SplineFontDB: 3.2
FontName: Vervelle-Script
FullName: Vervelle Script
FamilyName: Vervelle
Weight: Regular
Copyright: Copyright (c) 2020 by Nur Solikh / Astageni Type
Version: 1.0
ItalicAngle: 0
UnderlinePosition: 0
UnderlineWidth: 0
Ascent: 750
Descent: 250
InvalidEm: 0
LayerCount: 2
Layer: 0 0 "Back" 1
Layer: 1 0 "Fore" 0
XUID: [1021 439 1621342447 20303]
FSType: 0
OS2Version: 0
OS2_WeightWidthSlopeOnly: 0
OS2_UseTypoMetrics: 0
CreationTime: 1563807341
ModificationTime: 1579925640
PfmFamily: 65
TTFWeight: 400
TTFWidth: 5
LineGap: 66
VLineGap: 66
OS2TypoAscent: 0
OS2TypoAOffset: 1
OS2TypoDescent: 0
OS2TypoDOffset: 1
OS2TypoLinegap: 66
OS2WinAscent: 0
OS2WinAOffset: 1
OS2WinDescent: 0
OS2WinDOffset: 1
HheadAscent: 0
HheadAOffset: 1
HheadDescent: 0
HheadDOffset: 1
OS2Vendor: 'Asgn'
Lookup: 3 0 0 "'aalt' Access All Alternates in Latin lookup 0" { "'aalt' Access All Alternates in Latin lookup 0-1"  } ['aalt' ('DFLT' <'dflt' > 'latn' <'dflt' > ) ]
Lookup: 4 0 1 "'liga' Standard Ligatures in Latin lookup 1" { "'liga' Standard Ligatures in Latin lookup 1-1"  } ['liga' ('DFLT' <'dflt' > 'latn' <'dflt' > ) ]
Lookup: 258 0 0 "'kern' Horizontal Kerning in Latin lookup 0" { "'kern' Horizontal Kerning in Latin lookup 0-1" [150,15,2] } ['kern' ('DFLT' <'dflt' > 'latn' <'dflt' > ) ]
MarkAttachClasses: 1
DEI: 91125

StartChar: a
Encoding: 97 97 0
Width: 422
Flags: W
HStem: -31 21G<191.875 220> 363.003 74.0126<165.673 189.666>
VStem: -53.8938 94.6384<76.8262 194.007> 145.174 95.3321<40.5208 141.464>
LayerCount: 2
Fore
SplineSet
131 437 m 0
 199 437 228 363 228 363 c 1
 228 363 227.534532537 363.00264392 227.301999933 363.00264392 c 0
 119.631225944 363.00264392 40.7445373763 174.269445141 40.7445373763 102.864601585 c 0
 40.7445373763 86.9849907043 44.6460057823 76.9080428497 53 76 c 0
 73 78 264 437 296 437 c 0
 328 437 377 390 377 390 c 1
 326.204881436 289.368161336 240.505713512 123.520862024 240.505713512 50.9148838992 c 0
 240.505713512 47.7632508708 240.667187708 44.787302948 241 42 c 0
 240.772151899 40.9746835443 241.167280884 40.5204294184 242.046399981 40.5204294184 c 0
 248.88399295 40.5204294184 285 68 285 68 c 1
 285 68 290 63 285 40 c 0
 280 17 220 -31 220 -31 c 1
 163.75 -31 145.173611111 3.89583333333 145.173611111 49.4542824074 c 0
 145.173611111 113.236111111 181.583333333 197.916666667 202 237 c 2
 202 237 69 0 59 0 c 0
 -23.6090324885 0 -53.8938359567 49.6178033813 -53.8938359567 115.415587528 c 0
 -53.8938359567 244.890178274 63.3719495551 437.015271474 129.976684032 437.015271474 c 0
 130.31913622 437.015271474 130.660249151 437 131 437 c 0
EndSplineSet
Validated: 1
AlternateSubs2: "'aalt' Access All Alternates in Latin lookup 0-1" a.01 a.02 a.03 a.04 a.05
EndChar

StartChar: b
Encoding: 98 98 1
Width: 462
Flags: W
HStem: -28.0141 21G<133.93 175.888> 384.019 55.9892<240.646 264.356> 632 20G<148.179 195.958>
VStem: 264.416 110.729<258.593 382.622>
LayerCount: 2
Fore
SplineSet
157 652 m 1
 157 652 246.032490548 645.151346881 246.032490548 606.292684618 c 0
 246.032490548 605.865666352 246.02173913 605.434782609 246 605 c 0
 168 424 83 266 14 91 c 1
 14 91 210.876598011 440.008514657 274.459807157 440.008514657 c 0
 274.640955901 440.008514657 274.821022727 440.005681818 275 440 c 0
 276.285287619 440.026123732 277.556489484 440.039117138 278.813700866 440.039117138 c 0
 348.425383234 440.039117138 375.144668489 400.203581458 375.144668489 343.77530558 c 0
 375.144668489 206.780152785 217.658768444 -28.0141214784 134.116539549 -28.0141214784 c 0
 133.742873497 -28.0141214784 133.370686744 -28.0094242393 133 -28 c 0
 55.7603714204 -27.2037151693 34.9529311559 11.6367415593 29.6807831437 27.428476335 c 1
 24.8140000076 15.6064901873 21.7623716351 6.20788211077 21 0 c 1
 21 0 14.7501546991 -1.5469914111 5.43680461582 -1.5469914111 c 0
 -21.7851728451 -1.5469914111 -75.1797008098 11.6694759069 -75.1797008098 115.363196882 c 0
 -75.1797008098 118.808000187 -75.1207729469 122.352657005 -75 126 c 0
 -12 280 157 652 157 652 c 1
32.5468295782 34.1913723265 m 1
 183.981705609 42.8768542497 264.416121839 279.353602289 264.416121804 358.49421873 c 0
 264.416121804 374.457407287 261.143601543 384.01928528 254.521140783 384.01928528 c 0
 254.349673386 384.01928528 254.17596024 384.01287514 254 384 c 0
 231.35237971 383.128937681 76.6823354003 135.66426728 32.5468295782 34.1913723265 c 1
EndSplineSet
Validated: 1
AlternateSubs2: "'aalt' Access All Alternates in Latin lookup 0-1" b.01 b.02 b.03 b.04 b.05 b.06 b.07 b.08 b.09 b.10 b.11 b.12 b.13 b.14 b.15 b.16
EndChar

StartChar: c
Encoding: 99 99 2
Width: 355
Flags: W
HStem: -31 31<30.7501 76.1213> 371.054 65.9609<164.131 218.711>
VStem: -56.9639 85.2809<7.31906 147.552> 240 87<401.757 440.07>
LayerCount: 2
Fore
SplineSet
271 462 m 1
 271 462 327 433 327 415 c 0
 327 397 237 273 237 273 c 1
 237 273 204.93094846 294.492047087 204.93094846 312.08731943 c 0
 204.93094846 320.320930979 214.555993008 344.250984267 226 370 c 1
 222.157635468 370.709359606 218.334490039 371.053556262 214.534204411 371.053556262 c 0
 113.317597087 371.053556262 28.3169819757 126.891754842 28.3169819757 34.6895264266 c 0
 28.3169819757 13.22829895 32.9221804183 1.7763568394e-15 43 0 c 0
 90.6538461538 0 214.918276778 167.408314213 227.228981907 167.408314213 c 0
 227.576741939 167.408314213 227.835164835 167.274725275 228 167 c 0
 228.857142857 165.571428571 229.224489796 163.102040816 229.224489796 159.918367347 c 0
 229.224489796 140.816326531 216 96 216 96 c 1
 209 90 123 -31 41 -31 c 0
 -29.5724704162 -29.3276665778 -56.963907115 23.9157977865 -56.963907115 93.9334138818 c 0
 -56.963907115 232.585204209 50.447680309 437.014422895 142.660957251 437.014422895 c 0
 143.107666143 437.014422895 143.554018372 437.009625503 144 437 c 0
 184 437 221 418 240 400 c 1
 256 433 271 462 271 462 c 1
EndSplineSet
Validated: 1
AlternateSubs2: "'aalt' Access All Alternates in Latin lookup 0-1" c.01 c.02 c.03 c.04
EndChar

StartChar: d
Encoding: 100 100 3
Width: 419
Flags: W
HStem: -31 21G<180.771 201> 363.003 77.0069<151.866 196.962>
VStem: -56.8166 79.9824<76.6666 187.137> 123.98 97.9577<40.6709 140.985>
LayerCount: 2
Fore
SplineSet
370 651 m 1
 401 651 462 635 460 609 c 1
 385.555800615 442.142311724 221.937934028 198.621717349 221.937934028 41.4940773293 c 0
 221.937934028 40.823735276 222.345230465 40.5204294184 223.082378879 40.5204294184 c 0
 230.098862362 40.5204294184 267 68 267 68 c 1
 267 68 271 63 266 40 c 0
 261 17 201 -31 201 -31 c 1
 160.542687201 -28.0397088196 123.980185013 12.894985809 123.980185013 57.214763391 c 0
 123.980185013 106.014046608 160.161273018 175.395379011 191 251 c 1
 45 0 l 1
 -29.0128219499 0 -56.8166412391 49.3494203172 -56.8166412391 114.99405408 c 0
 -56.8166412391 245.362268895 52.843660092 440 128 440 c 0
 128.636942675 440.006369427 129.269300986 440.009533855 129.897107491 440.009533855 c 0
 207.495984576 440.009533855 215.553539934 391.664201703 215.553539934 371.584262159 c 0
 215.553539934 366.321239607 215 363 215 363 c 2
 214.767199394 363.001763641 214.534516985 363.00264392 214.301953331 363.00264392 c 0
 105.812169602 363.00264392 23.1657497085 171.438446215 23.1657497085 101.283751831 c 0
 23.1657497085 86.3181856055 26.9266938009 76.8775332825 35 76 c 0
 55 78 243 352 370 651 c 1
EndSplineSet
Validated: 33
AlternateSubs2: "'aalt' Access All Alternates in Latin lookup 0-1" d.01 d.02 d.03 d.04 d.05 d.06 d.07 d.08 d.09 d.10 d.11 d.12 d.13 d.14 d.15 d.16 d.17 d.18 d.19 d.20 d.21 d.22 d.23 d.24 d.25 d.26
EndChar

StartChar: e
Encoding: 101 101 4
Width: 394
Flags: W
HStem: -31 44.998<48.5176 150.632> 125 64.9805<78.7534 129.948> 398.012 39.9878<184.918 267.103>
VStem: -72.7323 111.028<31.0953 169.567> 269.049 39.9583<325.202 397.023>
LayerCount: 2
Fore
SplineSet
52.4940817699 171.045642388 m 1
 43.384776633 139.485151569 38.2961225025 109.228788796 38.2961225025 83.8443374289 c 0
 38.2961225025 42.4406373327 51.8338472234 13.9980451829 83.5436233091 13.9980451829 c 0
 170.712702804 13.9980451829 231.220835381 119.392596233 258 167 c 1
 270.722140429 160.33602168 278.306094918 145.59775117 278.306094918 128.121410761 c 0
 278.306094918 116.750156644 275.095308204 104.219697462 268 92 c 0
 242 47 168 -31 71 -31 c 0
 -7.39853425143 -31 -72.7322791038 21.9123970661 -72.7322791038 105.562482824 c 0
 -72.7322791038 125.409973851 -69.0542429014 146.987877424 -61 170 c 0
 -12 313 78 438 209 438 c 0
 292.791333191 438 309.007368564 398.802586648 309.007368564 359.697495359 c 0
 309.007368564 271.557753793 208.650849795 125.995082391 138 125 c 0
 100.576396184 125 70.3040947952 150.970519338 52.4940817699 171.045642388 c 1
58.3958708878 189.996961578 m 1
 58.9651514861 189.985993747 59.5358474343 189.980537772 60.1079168208 189.980537772 c 0
 148.269122679 189.980537772 269.049036293 319.558148024 269.049036293 374.181873369 c 0
 269.049036293 388.770097878 260.434399733 398.012230823 240.283095576 398.012230823 c 0
 239.860480201 398.012230823 239.43279066 398.008165862 239 398 c 0
 163.271561797 396.948216136 91.9681207796 290.526186787 58.3958708878 189.996961578 c 1
EndSplineSet
Validated: 1
AlternateSubs2: "'aalt' Access All Alternates in Latin lookup 0-1" e.01 e.02 e.03 e.04
EndChar

StartChar: f
Encoding: 102 102 5
Width: 279
Flags: W
HStem: 632 20G<105.967 190.517>
VStem: -98.0424 87.88<-169.213 6.49931> 76.1121 54.9525<-125.188 114.136>
LayerCount: 2
Fore
SplineSet
155 652 m 1
 155 652 257 652 258 594 c 1
 178.485827315 467.261673995 111.515981504 319.018787635 64.3893713135 186.949491496 c 1
 123.978381174 195.36742428 228.864221354 231.114435843 280 301 c 1
 280 301 304.319183673 275.896326531 304.319183673 264.599673469 c 0
 304.319183673 263.142040816 303.914285714 261.914285714 303 261 c 0
 230.636053744 189.540603072 160.726735949 158.991680502 98.4528225096 158.991680502 c 0
 91.8814983286 158.991680502 85.3951950105 159.331845297 79 160 c 1
 114.507466862 126.019736014 131.064601156 62.8851142293 131.064601156 -2.13253617194 c 0
 131.064601156 -107.112960739 87.8988523567 -217.002588724 11.6415379226 -217.002588724 c 0
 11.4279514728 -217.002588724 11.2141054248 -217.001726657 11 -217 c 0
 3.05534270215 -217.476679438 -5.06604381853 -218.003852939 -13.1154415826 -218.003852939 c 0
 -55.7252318883 -218.003852939 -96.3177862919 -203.231639004 -98 -88 c 0
 -98.0283069582 -86.1789190215 -98.0423688696 -84.3454626586 -98.0423688696 -82.4998459693 c 0
 -98.0423688696 111.254856728 56.9341296211 439.028665339 155 652 c 1
47.9633778567 139.169954003 m 1
 10.8708207659 26.9384866031 -10.1623946461 -69.1909683493 -10.1623946457 -123.54246807 c 0
 -10.1623946457 -152.876778828 -4.03558507006 -170.041501098 9 -171 c 0
 53.835843778 -168.393264897 76.1120621308 -79.3532661161 76.1120621308 5.14632611406 c 0
 76.1120621308 60.0626690494 66.7032357069 113.061276377 47.9633778567 139.169954003 c 1
EndSplineSet
Validated: 1
AlternateSubs2: "'aalt' Access All Alternates in Latin lookup 0-1" f.01 f.02 f.03 f.04 f.05 f.06 f.07 f.08 f.09 f.10 f.11 f.12 f.13 f.14
EndChar

StartChar: g
Encoding: 103 103 6
Width: 440
Flags: W
HStem: -220.055 60.0396<-20.2776 48.3869> -114.234 20G<-70.5164 -59.9378> -31.0058 65.0058<28.9416 63.3543> 376.544 60.4575<197.133 244.271>
VStem: -69.8247 98.7216<34.4215 142.996>
LayerCount: 2
Fore
SplineSet
269 375 m 1
 263.975212491 376.04217815 258.931029709 376.544059405 253.878744305 376.544059405 c 0
 143.327598721 376.544059405 28.8969480808 136.245195116 28.8969480808 58.1180875171 c 0
 28.8969480808 43.8883242495 32.6930181905 35.0383727262 41 34 c 0
 64 35 219 282 269 375 c 1
168 437 m 0
 244 436 265 397 271 381 c 1
 278 398 281 416 283 437 c 1
 351 437 388 397 389 350 c 1
 306 220 236 -214 42 -220 c 0
 40.7163794461 -220.037027516 39.4449458872 -220.055317527 38.1856015516 -220.055317527 c 0
 -55.7283478153 -220.055317527 -82.4112893817 -118.340273263 -82.4112893817 -100.495564808 c 0
 -82.4112893817 -94.8289875738 -74.6419847193 -94.2344046937 -66.390733461 -94.2344046937 c 0
 -53.4848557657 -94.2344046937 -37.7263815045 -97.9950982748 -39 -105 c 1
 -39 -105 -15 -160 3 -160 c 0
 3.3885615109 -160.010501662 3.77698516565 -160.01573722 4.16527110904 -160.01573722 c 0
 77.7245044246 -160.01573722 146.34130403 27.8873904776 211 196 c 1
 148.244764725 96.3885154359 66.6368785208 -31.005823128 28.4448963664 -31.005823128 c 0
 -41.8729494725 -31.005823128 -69.8246748847 17.0589672433 -69.8246748847 82.9641696064 c 0
 -69.8246748847 221.496747346 54.2288881479 437.001596877 167.466372539 437.001596877 c 0
 167.64427523 437.001596877 167.822151225 437 168 437 c 0
EndSplineSet
Validated: 1
AlternateSubs2: "'aalt' Access All Alternates in Latin lookup 0-1" g.01 g.02 g.03 g.04 g.05 g.06
EndChar

StartChar: h
Encoding: 104 104 7
Width: 422
Flags: W
HStem: -31 21G<178.5 199> 422 20G<258 326.499> 632 20G<154.434 208.854>
VStem: 121 98.9366<42.3359 119.919>
LayerCount: 2
Fore
SplineSet
163 652 m 1
 163 652 260 650 257 611 c 1
 194 499 109 295 48 153 c 1
 48 153 217 442 299 442 c 0
 353.99843406 442 366.260604563 419.957085113 366.260604563 399.103979746 c 0
 366.260604563 388.866115537 363.305011727 378.91503518 361 372 c 0
 314.570384613 262.804423072 219.936622906 141.389002382 219.936622906 41.48452655 c 0
 219.936622906 40.8208536998 220.331466248 40.5204294184 221.046399981 40.5204294184 c 0
 227.88399295 40.5204294184 264 68 264 68 c 1
 264 68 269 63 264 40 c 0
 259 17 199 -31 199 -31 c 1
 158 -28 120 14 121 59 c 1
 139 132 199 239 260 389 c 1
 260 389 13 65 13 7 c 1
 13 7 12.664058818 6.98981996418 12.0338849502 6.98981996418 c 0
 2.51258499557 6.98981996418 -74.1767480515 9.31373914743 -74.1767480515 84.1857894209 c 0
 -74.1767480515 89.4269895106 -73.8009478673 95.0236966825 -73 101 c 0
 -60 198 163 652 163 652 c 1
EndSplineSet
Validated: 33
AlternateSubs2: "'aalt' Access All Alternates in Latin lookup 0-1" h.01 h.02 h.03 h.05 h.06 h.07 h.08 h.09 h.10 h.11 h.12 h.13 h.14 h.15 h.16 h.17 h.18 h.19 h.20 h.21 h.22 h.23 h.24 h.25
EndChar

StartChar: i
Encoding: 105 105 8
Width: 213
Flags: W
HStem: -31 21G<-27.2287 -7> 417 20G<36.3425 112.186>
VStem: -84.0198 97.9577<40.6709 136.136> 98.603 82.7921<451.685 523.307>
LayerCount: 2
Fore
SplineSet
68 437 m 1
 68 437 160 433 163 394 c 1
 107.265404176 293.146921842 13.9379340278 129.867505686 13.9379340278 41.4940773293 c 0
 13.9379340278 40.823735276 14.3452304652 40.5204294184 15.0823788787 40.5204294184 c 0
 22.0988623618 40.5204294184 59 68 59 68 c 1
 59 68 63 63 58 40 c 0
 53 17 -7 -31 -7 -31 c 1
 -47.4573127986 -28.0397088196 -84.0198149871 12.894985809 -84.0198149871 57.214763391 c 0
 -84.0198149871 122.289981264 4.68507693868 302.455788495 68 437 c 1
157 599 m 1
 157 599 246 587 248 546 c 1
 248 546 181.39513478 482.095332018 181.39513478 452.485476829 c 0
 181.39513478 450.884944116 181.58974359 449.384615385 182 448 c 1
 180.268610705 447.670211563 178.285712954 447.510361271 176.102306455 447.510361271 c 0
 151.803201716 447.510361271 102.670211563 467.30851906 99 493 c 0
 98.7313432836 495.194029851 98.603029628 497.404098908 98.603029628 499.624372014 c 0
 98.603029628 546.990198262 157 599 157 599 c 1
EndSplineSet
Validated: 1
AlternateSubs2: "'aalt' Access All Alternates in Latin lookup 0-1" i.01 i.02 i.03 i.04
EndChar

StartChar: j
Encoding: 106 106 9
Width: 210
Flags: W
HStem: -220 62.986<-307.321 -229.329> -114.234 20G<-359.499 -348.938> 417 20G<-4 73.5>
VStem: 81.5971 81.798<451.685 523.395>
LayerCount: 2
Fore
SplineSet
56 437 m 1
 91 437 150 422 148 390 c 1
 31 99 -12 -220 -247 -220 c 0
 -344.007937008 -220 -371.411289382 -118.203294973 -371.411289382 -100.457619295 c 0
 -371.411289382 -94.8379152402 -363.608182956 -94.2344046937 -355.390733461 -94.2344046937 c 0
 -342.484855766 -94.2344046937 -326.726381505 -97.9950982748 -328 -105 c 1
 -328 -105 -298.558127347 -157.01397502 -280.507782992 -157.01397502 c 0
 -280.337496725 -157.01397502 -280.168224299 -157.009345794 -280 -157 c 0
 -172 -154 -64 95 56 437 c 1
139 599 m 1
 139 599 228 587 230 546 c 1
 230 546 163.39513478 482.095332018 163.39513478 452.485476829 c 0
 163.39513478 450.884944116 163.58974359 449.384615385 164 448 c 1
 162.268610705 447.670211563 160.292510479 447.510361271 158.12157816 447.510361271 c 0
 133.961298409 447.510361271 85.6702115628 467.30851906 82 493 c 0
 81.7272727273 495.227272727 81.597107438 497.47107438 81.597107438 499.725300526 c 0
 81.597107438 547.064049587 139 599 139 599 c 1
EndSplineSet
Validated: 33
AlternateSubs2: "'aalt' Access All Alternates in Latin lookup 0-1" j.01 j.02 j.03 j.04 j.05 j.06
EndChar

StartChar: k
Encoding: 107 107 10
Width: 432
Flags: W
HStem: -31 105.982<160.996 268.065> 380 57<253.656 294.943> 632 20G<120 187>
VStem: -98 98.9366<42.3359 101.109> 294.944 81.0787<340.183 406.991>
LayerCount: 2
Fore
SplineSet
60 195 m 1
 54 181 48 168 43 156 c 1
 51 158 59 160 67 163 c 1
 64 174 62 186 60 195 c 1
291 380 m 2
 241 381 86 230 86 230 c 1
 86 230 107 231 115 230 c 0
 117 230 119 216 123 196 c 1
 208.97187792 254.82286384 294.94375584 356.231934577 294.94375584 376.45735348 c 0
 294.94375584 378.581275341 293.995690144 379.809934272 292 380 c 2
 291 380 l 2
155 652 m 1
 155 652 246 636 243 597 c 1
 212 529 156 404 97 275 c 1
 119 301 240 437 318 437 c 0
 364.137752277 437 376.022450795 419.76194233 376.022450795 394.220050277 c 0
 376.022450795 315.474176009 245.13068203 214.632788099 130 166 c 1
 141 124 161 76 199 75 c 0
 199.8 74.9882352941 200.595847751 74.9824221453 201.387530226 74.9824221453 c 0
 267.888858131 74.9824221453 305 116 305 116 c 1
 305 116 306.099022593 107.497035731 306.099022593 94.58114064 c 0
 306.099022593 53.7941035091 295.139240506 -31 204 -31 c 0
 130 -31 90 68 71 145 c 1
 59 142 47 139 36 138 c 1
 16.2625273502 90.6300656406 0.936622906292 54.3450872236 0.936622906292 41.48452655 c 0
 0.936622906292 40.8208536998 1.33146624757 40.5204294184 2.04639998053 40.5204294184 c 0
 8.88399294985 40.5204294184 45 68 45 68 c 1
 45 68 50 63 45 40 c 0
 40 17 -21 -31 -21 -31 c 1
 -62 -28 -99 14 -98 59 c 1
 -66 165 85 489 155 652 c 1
EndSplineSet
Validated: 33
AlternateSubs2: "'aalt' Access All Alternates in Latin lookup 0-1" k.01 k.02 k.03 k.05 k.04 k.06 k.07 k.08 k.09 k.10 k.11 k.12 k.13 k.14 k.15 k.16 k.18 k.17 k.19 k.20 k.21
EndChar

StartChar: l
Encoding: 108 108 11
Width: 219
Flags: W
HStem: -43 21G<-37.5 -17>
VStem: -94 97.9379<30.3359 96.9689>
LayerCount: 2
Fore
SplineSet
173 662 m 1
 173 662 264 646 261 607 c 1
 203.321029839 482.843572705 3.93793402778 79.5909067907 3.93793402778 29.4940773293 c 0
 3.93793402778 28.823735276 4.3452304652 28.5204294184 5.08237887875 28.5204294184 c 0
 12.0988623618 28.5204294184 49 56 49 56 c 1
 49 56 54 51 49 28 c 0
 44 5 -17 -43 -17 -43 c 1
 -58 -40 -95 2 -94 47 c 0
 -95 124 101 523 173 662 c 1
EndSplineSet
Validated: 33
AlternateSubs2: "'aalt' Access All Alternates in Latin lookup 0-1" l.01 l.02 l.03 l.05 l.04 l.06 l.07 l.08 l.09 l.10 l.11 l.12 l.13 l.14 l.15 l.16 l.17 l.18 l.19 l.20 l.21 l.22 l.23 l.24 l.25 l.26
EndChar

StartChar: m
Encoding: 109 109 12
Width: 625
Flags: W
HStem: -31 21G<391.5 412> 420 20G<64 64 252 324.877 478 535.527>
VStem: 334 98.9366<42.3359 114.406>
LayerCount: 2
Fore
SplineSet
293 440 m 0
 356.753034479 440 369.126205863 412.194427031 369.126205863 389.95045111 c 0
 369.126205863 383.583929658 368.112619849 377.673003365 367 373 c 0
 363 356 259 146 228 78 c 1
 285 174 452 435 504 437 c 0
 567.053400822 437 579.25717396 410.392636677 579.25717396 388.54925078 c 0
 579.25717396 381.985641651 578.155280438 375.852177838 577 371 c 0
 527.009118912 258.089561681 432.936622906 138.188367949 432.936622906 41.48452655 c 0
 432.936622906 40.8208536998 433.331466248 40.5204294184 434.046399981 40.5204294184 c 0
 440.88399295 40.5204294184 477 68 477 68 c 1
 477 68 482 63 477 40 c 0
 472 17 412 -31 412 -31 c 1
 371 -28 333 14 334 59 c 1
 367 159 420 248 473 374 c 1
 376 239 235 33 223 0 c 1
 183 0 127 11 123 68 c 1
 135 119 258 387 258 387 c 1
 258 387 55 136 32 0 c 1
 32 0 -66.1146449704 2.88572485207 -66.1146449704 94.5074889053 c 0
 -66.1146449704 96.3039940828 -66.0769230769 98.1346153846 -66 100 c 0
 -62 197 64 437 64 437 c 1
 64 437 148 428 149 389 c 1
 129 355 52 177 28 98 c 1
 28 98 211 440 293 440 c 0
EndSplineSet
Validated: 33
AlternateSubs2: "'aalt' Access All Alternates in Latin lookup 0-1" m.01 m.02 m.03 m.04
EndChar

StartChar: n
Encoding: 110 110 13
Width: 404
Flags: W
HStem: -31 21G<169.5 190> 420 20G<68 68 235 307.729>
VStem: 113 97.9366<40.2937 114.732>
LayerCount: 2
Fore
SplineSet
276 440 m 0
 339.458928502 440 353.80766668 410.054761997 353.80766668 386.779682253 c 0
 353.80766668 379.979300844 352.582774396 373.748323188 351 369 c 0
 303.43307453 265.217617156 210.936622906 141.568953204 210.936622906 40.48452655 c 0
 210.936622906 39.8208536998 211.331466248 39.5204294184 212.046399981 39.5204294184 c 0
 218.88399295 39.5204294184 255 67 255 67 c 1
 255 67 260 63 255 40 c 0
 250 17 190 -31 190 -31 c 1
 149 -28 112 14 113 59 c 1
 131 121 187 231 248 383 c 1
 248 383 47 119 12 0 c 1
 12 0 -74.1877704265 2.63840113551 -74.1877704265 82.9686685626 c 0
 -74.1877704265 88.2966965042 -73.8086124402 93.966507177 -73 100 c 0
 -60 197 68 440 68 440 c 1
 68 440 160 433 157 394 c 1
 134 360 69 209 38 130 c 1
 38 130 194 440 276 440 c 0
EndSplineSet
Validated: 33
AlternateSubs2: "'aalt' Access All Alternates in Latin lookup 0-1" n.01 n.02 n.03 n.04
EndChar

StartChar: o
Encoding: 111 111 14
Width: 326
Flags: W
HStem: -31.0016 31.0016<8.83047 55.9486> 407 33<146.187 182.681>
VStem: -72.0501 78.4641<0.749974 115.307> 193.017 50.6032<224.532 401.817>
LayerCount: 2
Fore
SplineSet
69 440 m 0
 74.6986789096 442.421938537 80.5394356874 443.483988906 86.3429893286 443.483988906 c 0
 98.1582657335 443.483988906 109.819343931 439.082041187 119.813415523 432.791359702 c 1
 131.791594493 436.91417265 147.077363272 440 166 440 c 0
 220.65582788 440 243.620201156 390.632453555 243.620201156 323.862832968 c 0
 243.620201156 184.394152792 143.424252178 -31.0015867417 22.568102491 -31.0015867417 c 0
 22.3787855883 -31.0015867417 22.1894179894 -31.0010582011 22 -31 c 0
 21.745340019 -31.0010976723 21.4912836851 -31.0016459173 21.2378299933 -31.0016459173 c 0
 -47.6944946674 -31.0016459173 -72.0501098528 9.55138030301 -72.0501098528 66.87104025 c 0
 -72.0501098528 201.342992445 61.9963388621 428.093776066 69 440 c 0
145.999137942 406.285538798 m 1
 147.871549735 402.738667207 148.898176565 399.466520807 148.898176565 396.76953044 c 0
 148.898176565 395.335307688 148.607849827 394.063737197 148 393 c 0
 137.944541931 374.564993539 6.41396581384 111.073246047 6.41396581384 26.1621989136 c 0
 6.41396581384 9.74195327458 11.3327484169 1.7763568394e-15 23 0 c 0
 97.087664339 0 193.017007923 225.137309142 193.017007923 340.539873188 c 0
 193.017007923 379.344543808 182.170534432 405.741801229 156 407 c 0
 152.45913692 407 149.126419439 406.742878966 145.999137942 406.285538798 c 1
EndSplineSet
Validated: 1
AlternateSubs2: "'aalt' Access All Alternates in Latin lookup 0-1" o.01 o.02 o.03 o.04
EndChar

StartChar: p
Encoding: 112 112 15
Width: 433
Flags: W
HStem: -31 68.1065<75.5725 164.877> 385 52<216.979 245.503>
VStem: 245.56 108.157<250.224 384.454>
LayerCount: 2
Fore
SplineSet
66 440 m 1
 66 440 158 435 156 395 c 1
 81 249 8 69 -41 -62 c 1
 41 141 189 437 251 437 c 0
 251.749206349 437.00952381 252.493756614 437.014270597 253.233668422 437.014270597 c 0
 325.755236565 437.014270597 353.716526444 391.413282284 353.716526444 328.67962512 c 0
 353.716526444 190.437824573 217.936855168 -31 124 -31 c 0
 94 -30 45 -5 34 40 c 1
 41.5014218688 38.0388439559 48.8489984164 37.1065284971 56.0350689186 37.1065284971 c 0
 171.728779209 37.1065284971 245.559972755 278.763559851 245.559972755 359.272294877 c 0
 245.559972755 375.756446912 242.464784233 385.484858817 236 385 c 0
 186 387 -66 -144 -74 -217 c 0
 -76.1675395186 -217.078819619 -78.3381853034 -217.118810911 -80.5083260424 -217.118810911 c 0
 -133.404189689 -217.118810911 -186 -193.359542768 -186 -129 c 1
 -142 -25 66 440 66 440 c 1
EndSplineSet
Validated: 33
AlternateSubs2: "'aalt' Access All Alternates in Latin lookup 0-1" p.01 p.02 p.03 p.04
EndChar

StartChar: q
Encoding: 113 113 16
Width: 433
Flags: W
HStem: -0.117675 83.094<8.53043 45.6072> 370 70.0409<173.426 236.584>
VStem: -68.2066 101.113<83.8524 195.472>
LayerCount: 2
Fore
SplineSet
247 370 m 1
 102.075486874 364.26852208 32.9067252578 173.50529711 32.9067252578 106.201018408 c 0
 32.9067252578 91.7382328046 36.1006784571 82.9763168885 42.4232244379 82.9763168885 c 0
 42.6126745258 82.9763168885 42.8049336326 82.9841838081 43 83 c 0
 119 146 309 437 309 437 c 1
 337 437 388 424 385 368 c 1
 238 145 177 -31 147 -217 c 1
 147 -217 60 -217 53 -166 c 0
 52.5454545455 -162.681818182 52.3285123967 -159.010330579 52.3285123967 -155.024511645 c 0
 52.3285123967 -71.3223140496 148 151 148 151 c 1
 148 151 48.2235866612 -0.117674571346 8.84596079116 -0.117674571346 c 0
 8.21490909453 -0.117674571346 7.59936908517 -0.0788643533123 7 0 c 0
 -29.3636363636 0.909090909091 -68.2066115702 54.7107438017 -68.2066115702 106.558978212 c 0
 -68.2066115702 111.743801653 -67.8181818182 116.909090909 -67 122 c 0
 -58 178 25 437 161 440 c 0
 162.493150685 440.02739726 163.961531244 440.040908238 165.405540118 440.040908238 c 0
 238.090425487 440.040908238 249.025723205 405.808671903 249.025723205 385.207982008 c 0
 249.025723205 376.341394381 247 370 247 370 c 1
EndSplineSet
Validated: 33
AlternateSubs2: "'aalt' Access All Alternates in Latin lookup 0-1" q.01 q.02 q.03 q.04
EndChar

StartChar: r
Encoding: 114 114 17
Width: 417
Flags: W
HStem: -28 21G<-9 2> 420 19.0023G<54.3351 103.325 247.551 316.157>
VStem: 168.983 103.955<160.453 230.504> 256 105.942<342.215 385>
LayerCount: 2
Fore
SplineSet
63 440 m 1xd0
 63 440 151.505911053 426.984424845 151.505911053 396.103635574 c 0
 151.505911053 393.832989304 151.02739726 391.465753425 150 389 c 0
 94 268 71 217 28 113 c 1
 28 113 210.441647923 439.002288911 284.660307548 439.002288911 c 0
 347.653584804 439.002288911 361.941816708 407.689319433 361.941816708 384.598618035 c 0xd0
 361.941816708 377.44241845 360.634468874 370.903406623 359 366 c 0
 352.173617861 345.520853584 272.937934028 191.302681094 272.937934028 182.494077329 c 0
 272.937934028 181.823735276 273.345230465 181.520429418 274.082378879 181.520429418 c 0
 281.098862362 181.520429418 318 209 318 209 c 1
 318 209 322 205 317 182 c 0
 312 159 252 110 252 110 c 1
 211.468710005 112.965704146 168.982886436 139.385811176 168.982886436 183.463752768 c 0xe0
 168.982886436 217.485293502 255.986520952 384.393382361 256 385 c 2
 256 385 13 66 -9 -28 c 1
 -9 -28 -103.489956425 -19.7508768201 -103.489956425 40.9076240888 c 0
 -103.489956425 50.2952492295 -101.226804124 60.9381443299 -96 73 c 0
 -54 171 63 440 63 440 c 1xd0
EndSplineSet
Validated: 1
AlternateSubs2: "'aalt' Access All Alternates in Latin lookup 0-1" r.01 r.02 r.03 r.04 r.05
EndChar

StartChar: s
Encoding: 115 115 18
Width: 313
Flags: W
HStem: -31 88.8364<16.335 69.7467> 417 20G<63.0284 123.5 199.214 211>
VStem: -1.0908 91.0169<235.505 333.899> 72 79.6701<61.0721 96.7591>
LayerCount: 2
Fore
SplineSet
72 98 m 1xd0
 36 85 0 78 -36 73 c 1
 -36 73 -13.700617284 57.8364197531 25.8436213992 57.8364197531 c 0
 28.1697530864 57.8364197531 30.5555555556 57.8888888889 33 58 c 0
 63 59 73 75 72 98 c 1xd0
96 437 m 0
 151 437 172 396 178 381 c 1
 211 437 l 1
 211 437 258.129795457 407.779526817 258.129795457 397.841088396 c 0
 258.129795457 388.388013114 155.204494675 285.971527044 150.168461727 285.971527044 c 0
 145.0652988 285.971527044 134 303 134 303 c 1
 156 341 l 1
 127.718385172 326.371578537 89.9260719233 296.5260396 89.9260719233 249.608363123 c 0
 89.9260719233 222.385135815 102.352230866 188.711961282 117 150 c 1
 156 167 195 187 235 210 c 1
 235 210 242 198 236 189 c 0
 198 160 162 138 127 121 c 1
 140.034161265 83.8285030581 151.670056194 47.1230948951 151.670056194 19.0963786674 c 0xd0
 151.670056194 -10.9336778227 138.311249772 -31 99 -31 c 0
 -7 -31 -68 59 -90 100 c 1
 -86.5898364023 99.8548866554 -83.1480859804 99.7834759006 -79.6758946518 99.7834759006 c 0
 -35.293199325 99.7834759006 14.0631736483 111.451133446 66 130 c 1
 47.1924176863 189.557343993 -1.09079809052 263.086998009 -1.09079809052 306.971227512 c 0xe0
 -1.09079809052 360.825999888 30.0568354971 437 96 437 c 0
EndSplineSet
Validated: 33
AlternateSubs2: "'aalt' Access All Alternates in Latin lookup 0-1" s.01 s.02 s.03 s.04 s.05 s.06
EndChar

StartChar: t
Encoding: 116 116 19
Width: 221
Flags: W
HStem: -31 21G<-18.2287 2> 395 45<-2.16144 50 181 225.854>
VStem: -75.0198 97.9577<40.6709 139.844>
LayerCount: 2
Fore
SplineSet
140 542 m 0
 169 542 215 538 213 511 c 1
 201 486 196 473 181 440 c 1
 215 441 l 2
 215.202124423 441.020212442 215.405883017 441.030211314 215.611110629 441.030211314 c 0
 225.559411698 441.030211314 238.959575115 417.535113828 237 395 c 1
 237 395 209 395 161 395 c 1
 117.439170118 303.844930062 22.9379340278 133.320024958 22.9379340278 41.4940773293 c 0
 22.9379340278 40.823735276 23.3452304652 40.5204294184 24.0823788787 40.5204294184 c 0
 31.0988623618 40.5204294184 68 68 68 68 c 1
 68 68 72 63 67 40 c 0
 62 17 2 -31 2 -31 c 1
 -38.4573127986 -28.0397088196 -75.0198149871 12.894985809 -75.0198149871 57.214763391 c 0
 -75.0198149871 114.917920654 -34.1504821618 206.664998045 50 394 c 1
 41 394 16 395 15 395 c 0
 0.0392975798494 399.274486406 -2.74058215163 412.684589828 -2.74058215163 425.46779258 c 0
 -2.74058215163 430.628082738 -2.28758559904 435.686216014 -2 440 c 1
 73 440 l 1
 93 487 102 507 118 541 c 1
 118 541 127 542 140 542 c 0
EndSplineSet
Validated: 33
AlternateSubs2: "'aalt' Access All Alternates in Latin lookup 0-1" t.02 t.01 t.03 t.04 t.06 t.06 t.07 t.08 t.09 t.10 t.11 t.12 t.13 t.14 t.15 t.16 t.17 t.18
EndChar

StartChar: u
Encoding: 117 117 20
Width: 421
Flags: W
HStem: -31 21G<182.5 203> 0 69<30 54.4502> 421 20G<54.3167 100.367 221.5 304.851>
VStem: -70.0501 93.789<69.6947 159.247> 126 97.9379<42.3359 117.862>
LayerCount: 2
Fore
SplineSet
62 441 m 1
 62 441 159 431 156 392 c 1
 135.998974857 362.433267181 23.738965171 141.54257461 23.738965171 83.1260537873 c 0
 23.738965171 74.3670188898 26.2628307074 69.2607804224 32 69 c 0
 63 69 172 300 271 440 c 1
 338.701227228 440 357.703232669 407.056408791 357.703232669 384.199886793 c 0
 357.703232669 380.047714345 357.076142618 376.228427853 356 373 c 0
 305.318931118 255.909254652 223.937934028 143.061452224 223.937934028 41.4940773293 c 0
 223.937934028 40.823735276 224.345230465 40.5204294184 225.082378879 40.5204294184 c 0
 232.098862362 40.5204294184 269 68 269 68 c 1
 269 68 273 63 268 40 c 0
 263 17 203 -31 203 -31 c 1
 162 -28 125 14 126 59 c 1
 169 184 197 236 261 388 c 1
 176 242 67 0 30 0 c 1
 30 0 -70.0500632021 2.6799124072 -70.0500632021 84.8714313262 c 0
 -70.0500632021 89.6414748349 -69.7130801688 94.6793248945 -69 100 c 0
 -56 197 62 441 62 441 c 1
EndSplineSet
Validated: 33
AlternateSubs2: "'aalt' Access All Alternates in Latin lookup 0-1" u.01 u.02 u.03 u.04
EndChar

StartChar: v
Encoding: 118 118 21
Width: 333
Flags: W
HStem: 417 20G<29.5555 74.1731 240.426 249.32>
VStem: -32.508 90.5115<51.8875 212.133> 249.32 50.8288<357.193 429.252>
LayerCount: 2
Fore
SplineSet
41.0400390625 437 m 1
 41.0400390625 437 140.75390625 416 133.8125 381 c 1
 81.0934270043 258.732669932 58.0034284102 124.862979562 58.0034284102 72.4224418977 c 0
 58.0034284102 61.3856829695 59.0261860869 53.9557796543 61.0107421875 51 c 1
 134.2109375 171 231.532226562 303 249.3203125 440 c 1
 249.3203125 440 300.14914708 440 300.14914708 417.459545668 c 0
 300.14914708 267.736549152 69.1802473912 -19.9207498948 69.8766741677 -22.205222531 c 0
 62.8785690271 -26.5984865678 46.5753747172 -30.5411996794 31.7692630402 -30.5411996198 c 0
 23.2847605227 -30.5411996198 15.2918631601 -29.2465093329 9.8232421875 -26 c 0
 -0.6171875 -20 -30.6584568077 30.6222587501 -32.416015625 100 c 0
 -32.4777380865 102.436427686 -32.5080264253 104.915647903 -32.5080264253 107.435016648 c 0
 -32.5080264253 210.387939781 18.0708693467 380.385419665 41.0400390625 437 c 1
69.8766741677 -22.205222531 m 0
 69.8905139032 -22.2506207092 69.9958420201 -22.1833205462 70.1962890625 -22 c 1
 70.0920270764 -22.0685076466 69.9854753118 -22.1369195115 69.8766741677 -22.205222531 c 0
EndSplineSet
Validated: 37
AlternateSubs2: "'aalt' Access All Alternates in Latin lookup 0-1" v.01 v.02 v.03 v.04 v.05
EndChar

StartChar: w
Encoding: 119 119 22
Width: 558
Flags: W
HStem: -26.8543 21G<214.194 225.888> 420 20G<28.7417 79.1773 220.815 227.466 427.402 431.347>
VStem: -28.1888 96.4351<76.118 227.3> 151.245 91.2998<55.3752 148.249> 426.696 50.4883<368.466 440.037>
LayerCount: 2
Back
SplineSet
221.040039062 437 m 5
 221.040039062 437 320.75390625 416 313.8125 381 c 5
 249.998046875 233 229.596679688 68 241.010742188 51 c 5
 314.2109375 171 411.532226562 303 429.3203125 440 c 5
 429.3203125 440 482.3203125 440 480.080078125 416 c 4
 466.424804688 259 246.916015625 -25 250.196289062 -22 c 5
 239.54296875 -29 204.983398438 -35 189.823242188 -26 c 4
 179.3828125 -20 149.341796875 30.6220703125 147.583984375 100 c 4
 145 202 197.508789062 379 221.040039062 437 c 5
EndSplineSet
Fore
SplineSet
41.4658203125 440 m 1
 41.4658203125 440 147.0859375 422 141.401367188 387 c 1
 90.9739388841 265.352578405 68.2463075888 143.705156811 68.2463075888 94.8013492864 c 0
 68.2463075888 84.20727828 69.3128904167 77.0269853574 71.3955078125 74 c 1
 113.14453125 162 133.598632812 194 177.581054688 272 c 1
 193.796875 340 214.165039062 410 227.465820312 440 c 1
 227.465820312 440 332.0859375 422 326.401367188 387 c 1
 273.482633958 259.342737514 242.54432718 117.549647935 242.54432718 70.0728746673 c 0
 242.54432718 62.5072452797 243.32996843 57.3366657955 244.9375 55 c 1
 303.377929688 152 380.509765625 245 426.696289062 443 c 1
 426.696289062 443 427.064873589 443.006944444 427.739057187 443.006944444 c 0
 434.955382293 443.006944444 477.184588259 442.211310463 477.184588259 423.587431524 c 0
 477.184588259 231.873229962 257.399887488 -14.6955326995 254.92621541 -19.2177569579 c 0
 248.257616912 -23.4244938501 233.033325987 -26.8543491018 218.742344523 -26.8543496351 c 0
 209.644732446 -26.8543496351 200.925350282 -25.4643763603 195.032226562 -22 c 0
 160.515784392 4.43592878311 151.24456507 60.4947452831 151.24456507 109.5123037 c 0
 151.24456507 123.537621508 152.003595044 136.986475126 153.147460938 149 c 1
 106.245117188 59 77.6396484375 12 77.6396484375 12 c 2
 71.1591966744 7.69451494687 56.0352426932 4.14565036488 41.7897752001 4.14565036488 c 0
 32.874490485 4.14565036488 24.3032799696 5.53562363974 18.41015625 9 c 0
 8.60294669171 14.5828310503 -28.1887997848 74.7096665394 -28.1887997848 138.628846202 c 0
 -28.1887997848 143.405114157 -27.9833690662 148.202557079 -27.5458984375 153 c 0
 -25.3271484375 208 16.017578125 382 41.4658203125 440 c 1
254.92621541 -19.2177569579 m 0
 254.855050892 -19.3478557474 254.963742068 -19.2776267006 255.262695312 -19 c 1
 255.153099303 -19.0728066908 255.040923563 -19.1453970219 254.92621541 -19.2177569579 c 0
EndSplineSet
Validated: 37
AlternateSubs2: "'aalt' Access All Alternates in Latin lookup 0-1" w.01 w.02 w.03 w.04 w.05
EndChar

StartChar: x
Encoding: 120 120 23
Width: 357
Flags: W
HStem: -111.002 36.5857<284.133 354.714> -82 20G<351.974 357.876> -28 21G<-30.5 -18.5> 417.209 20G<-1.30036 17.1356>
VStem: -13.4121 102.06<232.667 431.717>
LayerCount: 2
Fore
SplineSet
-11 437 m 1xb8
 -11 437 -5.51428571429 437.208979592 2.91356268222 437.208979592 c 0
 31.3575510204 437.208979592 93.3142857143 434.828571429 91 414 c 0
 89.3538898524 410.23746252 88.6478722866 400.613171295 88.6478722866 387.11676396 c 0
 88.6478722866 343.220382918 96.1164273326 258.363105562 103 201 c 1
 152 271 212 347 244 404 c 1
 244 404 276 402 277 364 c 1
 246 309 175 222 116 144 c 1
 134.903653774 68.3853849027 266.03233886 -74.4165844667 329.848355589 -74.4165844667 c 0xb8
 340.301175181 -74.4165844667 348.948050559 -70.5853236258 355 -62 c 1x78
 360.752751418 -67.7527514182 363.645389209 -74.864969009 363.645389209 -81.8699853811 c 0
 363.645389209 -96.6755748837 350.72346604 -111.002277637 324.572536692 -111.002277637 c 0
 324.382390571 -111.002277637 324.191545046 -111.001520199 324 -111 c 0
 198 -110 111 6 70 73 c 1
 23 14 -15 -28 -22 -28 c 0
 -39 -28 -41 0 -41 0 c 1
 -28 13 6 57 48 113 c 1
 1.96690268865 212.334578409 -13.4120966665 337.105535973 -13.4120966665 401.983011541 c 0
 -13.4120966665 417.43938973 -12.5392144124 429.496329739 -11 437 c 1xb8
EndSplineSet
Validated: 33
AlternateSubs2: "'aalt' Access All Alternates in Latin lookup 0-1" x.01 x.02 x.03 x.04
EndChar

StartChar: y
Encoding: 121 121 24
Width: 416
Flags: W
HStem: -220.025 60.0156<-101.66 -30.2055> -114.234 20G<-152.511 -141.938> 0 45<37 47.1992> 417 20G<61.2255 104.102 215.5 283.5>
VStem: -63.0501 81.0895<45.7645 129.237>
LayerCount: 2
Fore
SplineSet
69 437 m 1
 69 437 158 427 155 388 c 1
 134.155932255 357.187030289 18.03942863 102.155310622 18.03942863 53.1259925222 c 0
 18.03942863 48.0548188144 19.2816506355 45.18747237 22 45 c 0
 53 45 166 257 265 440 c 1
 302 440 354 407 352 359 c 1
 313 244 170 -217 -40 -220 c 0
 -40.8665149926 -220.01666375 -41.7274763741 -220.024927663 -42.5829142211 -220.024927663 c 0
 -137.495306691 -220.024927663 -164.411289382 -118.29361384 -164.411289382 -100.482916303 c 0
 -164.411289382 -94.8319489121 -156.630723161 -94.2344046937 -148.390733461 -94.2344046937 c 0
 -135.484855766 -94.2344046937 -119.726381505 -97.9950982748 -121 -105 c 1
 -121 -105 -97 -160 -79 -160 c 0
 -78.7011947015 -160.00622511 -78.4016434271 -160.009330685 -78.1013522075 -160.009330685 c 0
 18.0757524726 -160.009330685 190.15562776 158.557147379 240 337 c 1
 122 79 59 0 37 0 c 1
 37 0 -63.0500632021 2.6799124072 -63.0500632021 84.8714313262 c 0
 -63.0500632021 89.6414748349 -62.7130801688 94.6793248945 -62 100 c 0
 -49 197 69 437 69 437 c 1
EndSplineSet
Validated: 33
AlternateSubs2: "'aalt' Access All Alternates in Latin lookup 0-1" y.01 y.02 y.03 y.04 y.05 y.06
EndChar

StartChar: z
Encoding: 122 122 25
Width: 335
Flags: W
HStem: -45 21G<-57 -41.2528> -27.6473 44.0223<-1.16717 167.412> 386.347 49.4955<18.9415 179.971> 422.455 20G<188.07 210.491>
LayerCount: 2
Fore
SplineSet
-1 437 m 2xa0
 0.973056360239 436.177893183 7.65009566296 435.842405292 17.5331426653 435.842405292 c 0xa0
 61.410862913 435.842405292 168.481870651 442.455172563 207.657779378 442.455172563 c 0
 213.324902526 442.455172563 217.571249819 442.316793502 220 442 c 0
 260.018429943 437.235901197 283.023275793 400.653084971 283.023275793 370.509765189 c 0
 283.023275793 337.609841875 -2 13 -2 13 c 1
 -2 13 82.9375 16.375 130.46875 16.375 c 0
 146.3125 16.375 158 16 161 15 c 0
 171.020384842 11.6598717193 182.435326801 -12.5986133077 182.435326801 -23.4227075622 c 0
 182.435326801 -25.5611025834 181.989807579 -27.1751603509 181 -28 c 0
 180.685387307 -28.2097417952 178.402149589 -28.2875087285 174.505521784 -28.2875087285 c 0
 163.325282983 -28.2875087285 138.863037524 -27.6473034037 109.509561579 -27.6473034037 c 0x50
 51.540152929 -27.6473034037 -25.5056722134 -30.1441850063 -57 -45 c 1
 -57 -45 -103.01183432 -8.36094674556 -103.01183432 23.2312243969 c 0
 -103.01183432 25.8639053254 -102.692307692 28.4615384615 -102 31 c 0
 -93 64 180 387 180 387 c 1
 180 387 140.163265306 386.346938776 100.979591837 386.346938776 c 0
 71.5918367347 386.346938776 42.5714285714 386.714285714 31 388 c 0
 4 391 -1 437 -1 437 c 2xa0
EndSplineSet
Validated: 1
AlternateSubs2: "'aalt' Access All Alternates in Latin lookup 0-1" z.01 z.02 z.03 z.04 z.05 z.06 z.07 z.08
EndChar

StartChar: A
Encoding: 65 65 26
Width: 1044
Flags: W
HStem: -207.376 12.376<871.797 908.73> -196.066 138.164<97.9839 150.122> 255 51<701.992 767> 769 20G<813.5 860>
VStem: 723.439 126.034<-155.297 130.243>
LayerCount: 2
Fore
SplineSet
855 579 m 1x38
 855 579 755 387 701 315 c 1
 722 313 754 309 775 306 c 1
 795 438 855 579 855 579 c 1x38
836 789 m 1
 884 789 1033 764 1035 709 c 1
 945.883031647 509.161949754 849.47328639 168.482145549 849.47328639 -32.704107899 c 0
 849.47328639 -129.514812224 871.797238826 -194.025385644 928 -195 c 1
 928 -195 894.660670611 -207.375963182 854.257133667 -207.375963182 c 0xb8
 814.265877712 -207.375963182 767.353846154 -195.251282051 739 -147 c 0
 727.873609345 -128.05506456 723.438925123 -97.6257140253 723.438925123 -60.2803788953 c 0
 723.438925123 26.5634720841 747.419971307 150.806275882 767 255 c 1
 734 254 687 252 650 250 c 1
 514.213383743 79.5233722904 337.167445386 -196.066290292 181.176692953 -196.066290292 c 0x78
 179.782765862 -196.066290292 178.390520056 -196.044284078 177 -196 c 0
 45 -192 0 -54 0 -54 c 1
 14.2618281942 -56.6410792952 28.6786630516 -57.902599288 43.2006960773 -57.902599288 c 0
 193.634327791 -57.902599288 355.356640969 77.4695044056 473 217 c 1
 403 207 347 197 323 186 c 1
 266 194 222 282 222 282 c 1
 300.583333333 304.041666667 414.065972222 315.0625 534.283564815 315.0625 c 0
 539.510416667 315.0625 544.75 315.041666667 550 315 c 1
 666 474 791 664 836 789 c 1
EndSplineSet
Validated: 1
EndChar

StartChar: B
Encoding: 66 66 27
Width: 779
Flags: W
HStem: -207.004 80.6588<50.9818 209.294> -128 20G<2.5 15.6393> -31.1024 21G<201.306 215.741> 749.345 39.6551<454.357 634.879>
VStem: 35 189.169<426.872 538.786> 116.591 104.409<-20.3632 44.8945> 453.01 121.99<74.7659 173.995> 689.986 113.014<574.824 702.261>
LayerCount: 2
Fore
SplineSet
554 789 m 0xbb
 765 789 803 707 803 594 c 0
 802 410 473 293 364 288 c 1
 364 288 575 239 575 107 c 0
 575 -24.640679737 318.402703805 -207.004080815 152.357655444 -207.004080815 c 0xbb
 151.90442662 -207.004080815 151.451872452 -207.002722123 151 -207 c 0
 67 -207 5 -176 0 -108 c 1x7b
 31.2785037731 -120.671804093 64.0750178841 -126.345323238 97.1143004857 -126.345323238 c 0
 268.230653531 -126.345323238 453.009765597 29.245804581 453.009765597 150.994965418 c 0
 453.009765597 201.415934318 377.602347484 233.013037787 317 235 c 1
 269 137 244 57 221 -31 c 1
 221 -31 218.1328 -31.1024 213.348672 -31.1024 c 0
 189.263062069 -31.1024 116.590963139 -28.5069678954 116.590963139 2.81721267785 c 0xb7
 116.590963139 53.8477678953 172.038093756 169.128971939 230 288 c 1
 223 301 217 315 209 331 c 1
 223 331 237 331 252 332 c 1
 305 437 366 547 419 629 c 0
 420.604336838 629.401084209 439.260739237 632.376065107 460.903447734 632.376065107 c 0
 493.221249249 632.376065107 532.197831581 625.742536901 531 594 c 1
 470 504 423 428 385 362 c 1
 548.116161199 419.570409835 689.986475676 547.415543441 689.986475676 645.015011021 c 0
 689.986475676 679.649420064 672.121098153 710.475067254 631 733 c 0
 610.744349254 744.033565853 585.22750946 749.344910629 556.892408198 749.344910629 c 0
 422.316753145 749.344910629 224.169262761 629.536319679 224.169262761 433.937744662 c 0
 224.169262761 420.637638221 225.085414555 406.987110335 227 393 c 1
 209.806343561 388.656339426 192.547175361 386.70385813 175.80940216 386.70385813 c 0
 100.066064104 386.70385813 35 426.687321148 35 466 c 0
 36 682 321 789 554 789 c 0xbb
EndSplineSet
Validated: 33
EndChar

StartChar: C
Encoding: 67 67 28
Width: 654
Flags: W
HStem: -173.002 59.0021<132.51 219.15> 275.981 78.019<377.862 412.711> 740.003 50.9965<452.561 523.541>
VStem: 0.145627 121.631<-90.6941 104.429> 528.442 96.981<597.091 730.674>
LayerCount: 2
Fore
SplineSet
281 354 m 1
 412.711200542 357.135980965 528.441539085 591.994460912 528.441539085 693.791122236 c 0
 528.441539085 721.837929289 519.65643304 739.783995241 500 740 c 0
 499.782963827 740.002333722 499.565776521 740.003499222 499.348438955 740.003499222 c 0
 347.322570321 740.003499222 121.776200986 169.737460438 121.776200986 -38.7934985099 c 0
 121.776200986 -85.4513404063 133.067503786 -114 159 -114 c 0
 298 -114 377 197 377 197 c 1
 430.925297327 195.103130245 453.201869996 166.991423592 453.201869996 127.031533409 c 0
 453.201869996 19.7301090345 292.577744614 -173.002056654 152.790337615 -173.002056654 c 0
 152.526817289 -173.002056654 152.263371012 -173.001371724 152 -173 c 0
 44.0802281754 -171.533698752 0.145627370014 -88.1938991039 0.145627370014 28.9232512755 c 0
 0.145627370014 311.168614465 255.309581095 789.586520499 485 791 c 0
 599 791 620 710 625 652 c 0
 625.280514173 648.689932762 625.422537111 644.608721154 625.422537111 639.851368037 c 0
 625.422537111 559.811702319 585.221408043 288.38286882 488 278 c 0
 475.700322467 276.752206627 462.034308261 275.981042326 447.732631315 275.981042326 c 0
 381.803285411 275.981042326 302.3653389 292.36921471 281 354 c 1
EndSplineSet
Validated: 1
EndChar

StartChar: D
Encoding: 68 68 29
Width: 964
Flags: W
HStem: -175.01 97.1808<34.1692 200.054> 667.088 81.9115<416.244 632.083>
VStem: 773.028 103.976<262.073 520.177>
LayerCount: 2
Fore
SplineSet
498 749 m 0
 695.458340274 749 877.004101773 615.732152758 877.004101773 400.770862475 c 0
 877.004101773 129.082165019 363.211553873 -175.009783804 86.7095742615 -175.009783804 c 0
 85.8038552096 -175.009783804 84.9006550786 -175.006526486 84 -175 c 0
 10 -175 0 -72 0 -72 c 1
 21.7318799978 -75.9512509087 44.1955904837 -77.8289821015 67.1652216231 -77.8289821015 c 0
 137.207678737 -77.8289821015 211.954458634 -60.36882591 285 -31 c 1
 266.723799815 -31 184.604538603 -31 184.604538603 2.82053807994 c 0
 184.604538603 98.3790424291 369.103320956 447.841688298 487 629 c 0
 488.604336838 629.401084209 507.260739237 632.376065107 528.903447734 632.376065107 c 0
 561.221249249 632.376065107 600.197831581 625.742536901 599 594 c 1
 388 280 334 143 289 -29 c 1
 538.420025542 73.3516439475 773.0282983 315.921214247 773.0282983 489.705770028 c 0
 773.0282983 598.348679847 678.697101792 664.988477656 557 667 c 0
 553.750945931 667.05907371 550.525229253 667.088484943 547.32286607 667.088484943 c 0
 333.686763288 667.088484943 223.985231572 536.193998759 223 349 c 0
 220.826672228 348.82137032 218.633844778 348.734034583 216.4244995 348.734034583 c 0
 144.424051225 348.734034583 54.8809135467 441.488580666 51 490 c 0
 50.8825260811 492.980900691 50.8243495598 495.930104229 50.8243495598 498.847898746 c 0
 50.8243495598 694.632559758 312.760637094 749 498 749 c 0
EndSplineSet
Validated: 33
EndChar

StartChar: E
Encoding: 69 69 30
Width: 677
Flags: W
HStem: -139.798 73.7825<88.154 220.56> 208 62.9139<245.612 278.312> 228 77.6601<432.752 481.033> 707 82<546.857 637.674>
VStem: -0.142114 87.1811<-65.2295 -21.0075> 61.9827 97.0144<295.072 389.358> 660 67.0076<642.935 706.049>
LayerCount: 2
Fore
SplineSet
575 789 m 0xd6
 629.721208734 789 727.007594151 713.768524932 727.007594151 653.913629114 c 0
 727.007594151 582.473330066 583.738182508 363.97545461 552 361 c 0
 543.136363636 360.181818182 534.37964876 359.800619835 525.75648009 359.800619835 c 0
 407.906508264 359.800619835 315 431 315 431 c 1
 439 434 660 599 660 707 c 1
 419.460396996 700.013372527 158.997135442 456.931391231 158.997135442 304.872129569 c 0
 158.997135442 279.222385809 184.424310699 270.913885371 219.854543999 270.913885371 c 0xd6
 290.810000425 270.913885371 400.656747636 305.037493543 418.105649107 305.037493543 c 0
 418.437484315 305.037493543 418.735902283 305.025152164 419 305 c 0
 423.425414365 305.447513812 427.586276365 305.660144684 431.497953452 305.660144684 c 0
 483.598015201 305.660144684 491.492992 267.939699978 491.492992 245.075847168 c 0
 491.492992 235.133184 490 228 490 228 c 1
 350.913119756 191.677948471 87.0390075487 -10.2422536512 87.0390075487 -56.5413916854 c 0
 87.0390075487 -62.5042977681 91.4159104488 -65.8859036958 101 -66 c 0
 102.099006258 -66.0105168063 103.196021659 -66.0157523091 104.291037041 -66.0157523091 c 0
 311.437069605 -66.0157523091 447.010516806 121.341796205 449 186 c 1
 449 186 488.070861678 140.258503401 488.070861678 84.1253374366 c 0
 488.070861678 -9.5247970743 312.056868199 -132.802782697 216 -139 c 0
 207.848563942 -139.525899101 199.428240516 -139.798275826 190.852155822 -139.798275826 c 0
 103.444967706 -139.798275826 -0.142113567356 -111.504808688 -0.142113567356 -34.9567120085 c 0xba
 -0.142113567356 58.2585213628 279.90631168 206.350923008 280 208 c 2
 280 208 61.9827437925 223.29746866 61.9827437925 361.584451602 c 0
 61.9827437925 499.214625392 448.487530599 786.011516471 575 789 c 0xd6
EndSplineSet
Validated: 1
EndChar

StartChar: F
Encoding: 70 70 31
Width: 649
Flags: W
HStem: -121.007 21G<210.593 261.17> 391 65<194.975 223> 398 54.545<264.037 371> 400 74<528 646.368> 401 80<530.843 635.971> 683 126.548<652.415 950.728>
VStem: 263.299 28.1803<183.297 309.848>
LayerCount: 2
Fore
SplineSet
371 398 m 1xa6
 315 397 264 397 264 397 c 1
 264 397 291.479570582 315.346418843 291.479570582 250.826573557 c 0
 291.479570582 242.531164877 291.025316456 234.518987342 290 227 c 1
 319 282 346 340 371 398 c 1xa6
956 809 m 1
 956 809 958.75 795.5 958.75 773 c 0
 958.75 750.5 956 719 945 683 c 1
 806.584423635 684.883205121 739.984693177 692.086102531 638.341376525 692.086102531 c 0
 632.037539105 692.086102531 625.598910685 692.05839744 619 692 c 1
 592 630 528 474 528 474 c 1x96
 589 476 628 479 671 481 c 1
 658 440 656 440 635 401 c 1x8e
 607.571428571 399.714285714 591.714285714 399.346938776 575.935860058 399.346938776 c 0
 554.897959184 399.346938776 534 400 486 400 c 1x96
 445.096218098 302.229984721 311.628425622 -121.007035476 210.711618813 -121.007035476 c 0
 210.474231884 -121.007035476 210.23702507 -121.004693566 210 -121 c 0
 95 -119 -4 -58 0 15 c 0
 3.90503175848 14.8588542738 7.85212131746 14.784115601 11.8367904315 14.784115601 c 0
 92.5447837395 14.784115601 188.669788881 45.4456548303 263 176 c 0
 263.201538826 180.635392994 263.299276356 185.437770682 263.299276356 190.376207858 c 0
 263.299276356 258.948725538 244.454869002 353.754363953 223 392 c 1
 217 391 l 1
 186 391 178 416 174 456 c 1xc6
 194.561160987 453.518480571 217.258749678 452.545027756 242.315521825 452.545027756 c 0
 287.940205139 452.545027756 341.386769236 455.772513878 404 459 c 1
 404 459 482 633 505 688 c 1
 350 674 275 654 233 627 c 0
 231.274473841 626.800900828 229.606206153 626.703105105 227.997535423 626.703105105 c 0
 210.164859285 626.703105105 199.655752647 638.720728317 199.655752647 657.977669032 c 0
 199.655752647 663.158759164 200.416487839 668.863890376 202 675 c 0
 307.809444446 778.024985382 750.452889109 809.548124171 921.454401204 809.548124171 c 0
 934.691380113 809.548124171 946.300657897 809.359234893 956 809 c 1
EndSplineSet
Validated: 33
EndChar

StartChar: G
Encoding: 71 71 32
Width: 634
Flags: W
HStem: -65.0425 71.0383<108.368 212.443> 178.982 68.0182<264.899 360.651> 722.017 66.9834<452.487 542.368>
VStem: 0.372586 99.0845<13.3873 181.135> 545.624 91.1374<602.335 705.595>
LayerCount: 2
Fore
SplineSet
443 789 m 0
 585.260630426 788.514468838 636.761164833 706.226981004 636.761164833 611.156532569 c 0
 636.761164833 510.419881683 578.93882431 395.331133108 510 348 c 1
 440 348 346 440 346 440 c 1
 447.000759176 440 545.623765692 606.442686276 545.623765692 683.590670015 c 0
 545.623765692 706.50516058 536.923159936 721.541996323 517 722 c 0
 516.466848789 722.011049766 515.932491867 722.016559366 515.39694361 722.016559366 c 0
 358.531641374 722.016559366 99.4570893824 249.326348072 99.4570893824 72.0713104314 c 0
 99.4570893824 31.1673786193 113.253232586 5.99585252486 145.285160439 5.99585252486 c 0
 145.522439056 5.99585252486 145.760718309 5.99723373767 146 6 c 0
 206 7 311 63 363 191 c 1
 363 191 322 185 286 180 c 0
 284.922322741 179.307207477 283.583925666 178.981792876 282.031333328 178.981792876 c 0
 263.414350264 178.981792876 214 225.770469782 214 247 c 1
 371.420229382 252.79460967 446.762122415 266.050886282 519.294332691 266.050886282 c 0
 521.865241762 266.050886282 524.432620881 266.034231722 527 266 c 2
 512 211 l 1
 512 211 512 212 483 209 c 1
 327 -138 l 1
 327 -138 284.333333333 -157.555555556 246.407407407 -157.555555556 c 0
 227.444444444 -157.555555556 209.666666667 -152.666666667 199 -138 c 1
 226 -85 262 -31 276 7 c 1
 276 7 212 -64 147 -65 c 0
 145.647773279 -65.028340081 144.305872904 -65.0424527529 142.974259589 -65.0424527529 c 0
 42.2369589684 -65.0424527529 0.372585536173 15.7244827403 0.372585536173 127.58303372 c 0
 0.372585536173 379.465365345 212.648943107 789 443 789 c 0
EndSplineSet
Validated: 1
EndChar

StartChar: H
Encoding: 72 72 33
Width: 762
Flags: W
HStem: -145.801 21G<513.839 557.201> 687.015 52.0109<381.191 440.372> 767 20G<707 780.538>
VStem: 411.989 145.07<-118.53 40.0574> 441.358 79.2274<571.993 686.468>
LayerCount: 2
Fore
SplineSet
744 787 m 1xe8
 744 787 846 780 839 735 c 1
 768.757510512 569.486087988 557.059136428 171.906300786 557.059136428 -33.5332028922 c 0
 557.059136428 -82.5442027516 569.107740497 -120.619727968 598 -142 c 1
 598 -142 573.024930748 -145.800554017 541.377460271 -145.800554017 c 0
 486.299694528 -145.800554017 411.989256749 -134.539568937 411.989256749 -71.8445755914 c 0xf0
 411.989256749 27.7945649322 480.430312901 152.118813542 540 307 c 1
 497 302 453 292 412 280 c 1
 348 130 190 -217 190 -217 c 1
 190 -217 93.6470920916 -217 93.6470920916 -160.248449064 c 0
 93.6470920916 -150.574889245 96.4466019417 -139.252427184 103 -126 c 0
 145 -41 210 91 272 224 c 1
 181 178 109 123 74 79 c 1
 74 79 -0.00991184597167 128.339941231 -0.00991184597167 159.381626111 c 0
 -0.00991184597167 194.955978185 141.966147617 290.218851118 322 331 c 1
 388.389521412 478.619053492 441.358072834 612.207092904 441.358072834 664.104400603 c 0
 441.358072834 678.652385183 437.195765891 686.781053193 428 687 c 0
 427.610644592 687.009983472 427.219520047 687.014958541 426.826653106 687.014958541 c 0
 348.516050783 687.014958541 200.97504132 489.341090848 196 358 c 1
 196 358 47 366 46 467 c 0
 47 582 238 736 425 739 c 0
 425.988932196 739.017248817 426.968806508 739.025836447 427.939684141 739.025836447 c 0
 497.067575955 739.025836447 520.585483849 695.489592072 520.585483849 634.968759912 c 0
 520.585483849 548.504334767 472.582987842 427.37259946 441 349 c 1
 458.635861375 350.392304845 476.27172275 351.138438763 494.007547116 351.138438763 c 0
 514.48711306 351.138438763 535.09996299 350.143593539 556 348 c 1
 606 474 670 618 744 787 c 1xe8
EndSplineSet
Validated: 33
EndChar

StartChar: I
Encoding: 73 73 34
Width: 557
Flags: W
HStem: -163.985 21G<208.037 228.268> 726.029 67.971<398.086 482.669>
VStem: 487.926 76.0985<618.169 722.303>
LayerCount: 2
Fore
SplineSet
178 357 m 1
 178 357 164.229025043 355.375334415 144.347749939 355.375334415 c 0
 92.7511074076 355.375334415 -1.89501192516e-14 366.317880795 0 445 c 0
 4 586 280 794 419 794 c 0
 509.9024895 794 564.024243874 747.382556643 564.024243874 647.994405034 c 0
 564.024243874 595.407037054 548.872399263 528.046061295 516 445 c 0
 421 205 242 -163 242 -163 c 1
 242 -163 234.00048074 -163.984556217 222.534980148 -163.984556217 c 0
 193.538265899 -163.984556217 142.372977814 -157.687289991 142.372977814 -113.240676099 c 0
 142.372977814 -104.414594883 144.390572391 -94.0841750842 149 -82 c 0
 209.881969287 76.1113829244 487.925785413 589.278256878 487.925785413 701.186518424 c 0
 487.925785413 712.432182604 485.118030713 719.625838828 479 722 c 0
 473.734249866 724.715152413 467.283826446 726.029005566 459.88043407 726.029005566 c 0
 377.302893044 726.029005566 176.164554692 562.569874532 178 357 c 1
EndSplineSet
Validated: 33
EndChar

StartChar: J
Encoding: 74 74 35
Width: 612
Flags: W
HStem: -140.088 92.0878<106.818 197.075> 720.121 69.1175<508.219 560>
VStem: -0.456837 103.267<-47.0327 97.2093> 92 122<467.186 548.951>
LayerCount: 2
Fore
SplineSet
214 361 m 1xd0
 214 361 93 437 92 491 c 1xd0
 98.8755108658 548.95073444 409.646626725 789.238831877 552.413169786 789.238831877 c 0
 554.998124371 789.238831877 557.528001478 789.160057458 560 789 c 2
 560 789 660.766711489 710.928493802 660.766711489 659.444469303 c 0
 660.766711489 656.89345908 660.519313305 654.407725322 660 652 c 0
 525 347 466 215 397 68 c 0
 334.248969047 -66.3264256328 242.657421355 -140.087766111 110.91428093 -140.087766111 c 0
 108.29212314 -140.087766111 105.654059226 -140.058545424 103 -140 c 0
 38.5146688876 -138.665820736 -0.456837121342 -71.0748088384 -0.456837121342 3.92866624159 c 0xe0
 -0.456837121342 97.5760098672 60.2972281096 202.778905686 208 205 c 1
 142.998467205 181.052066865 102.809738962 71.4297331068 102.809738962 4.58602789328 c 0
 102.809738962 -26.2626092462 111.369372999 -48 130 -48 c 0
 209 -48 257 16 308 128 c 0
 421 378 520 640 568 720 c 1
 567.108662883 720.081030647 566.171101367 720.121352306 565.188758356 720.121352306 c 0
 505.555578312 720.121352306 280.897983201 571.531888307 214 361 c 1xd0
EndSplineSet
Validated: 1
EndChar

StartChar: K
Encoding: 75 75 36
Width: 730
Flags: W
HStem: -178 21G<177 220> -167.377 65.2899<496.31 651.344> 319.188 46.2892<449.808 510.507> 733 56<275.586 451.481>
VStem: -0.00578204 163.006<380.535 463.518> 406.9 142.623<-59.2359 117.694> 440.633 109.081<71.8744 261.564> 452.91 96.0897<631.672 721.652>
LayerCount: 2
Fore
SplineSet
348 789 m 0xb9
 494 789 547 708 549 656 c 1xb9
 545 570 514 523 443 366 c 1
 445.635814684 365.654319386 448.383656013 365.476678738 451.232713134 365.476678738 c 0
 514.318672389 365.476678738 627.030873609 452.574132346 672 731 c 1
 672 731 795.10202553 732.558253488 795.10202553 639.393846641 c 0
 795.10202553 627.011235604 792.927374302 612.955307263 788 597 c 0
 741.208293216 445.394870019 596.328607126 319.187520394 468.923130893 319.187520394 c 0
 464.194562295 319.187520394 459.490063954 319.361367651 454.815543866 319.714215872 c 1
 543.232308974 306.409245093 549.71410953 217.155770141 549.714109523 124.156935062 c 0xba
 549.714109523 108.178813843 549.522775558 92.0901346731 549.522775558 76.2570826956 c 0
 549.522775558 -17.3862014282 556.21570225 -102.087560047 648.771084885 -102.087560047 c 0
 650.484464798 -102.087560047 652.227269088 -102.058533568 654 -102 c 0
 655.27878167 -107.11512668 655.854391839 -111.870491196 655.854391839 -116.280731735 c 0
 655.854391839 -146.358321628 629.081827495 -160.383634501 616 -163 c 0
 593.604076744 -165.971449277 573.470034343 -167.377446878 555.391932111 -167.377446878 c 0
 437.227172485 -167.377446878 406.900070818 -107.307830918 406.900070818 -31.6974035055 c 0x7c
 406.900070818 48.0460476843 440.633273512 145.07573178 440.633273512 207.154310629 c 0x7a
 440.633273512 240.860451412 430.68856394 264.262839123 400 269 c 1
 354 175 263 8 177 -178 c 1
 177 -178 4.786326027 -178 4.786326027 -138.992565413 c 0
 4.786326027 -136.492088837 5.49397590361 -133.831325301 7 -131 c 0
 124.694876774 -64.7966318145 452.910317556 610.140897358 452.910317556 718.388577066 c 0
 452.910317556 727.866522996 450.394087938 733 445 733 c 0
 349 733 173 596 163 330 c 0
 162.537300583 329.986780017 162.058172977 329.980201216 161.563134719 329.980201216 c 0
 124.756468438 329.980201216 -0.0057820391903 366.348432636 -0.0057820391903 413.444799332 c 0
 -0.0057820391903 557.823510562 203.171552 789 348 789 c 0xb9
EndSplineSet
Validated: 33
EndChar

StartChar: L
Encoding: 76 76 37
Width: 572
Flags: W
HStem: -168 21G<620.88 691> -114.656 67.8573<300.165 548.65> 724.097 64.9029<457.928 529.399>
VStem: 530.173 76.1341<638.629 722.81>
LayerCount: 2
Fore
SplineSet
471 789 m 0
 576.436876067 789 606.307517011 718.87018467 606.307517011 650.761492188 c 0
 606.307517011 626.496971537 602.516262955 602.488976691 597 582 c 0
 582 529 393 172 299 -47 c 1
 305.765743573 -46.8646851285 312.576245203 -46.7985418005 319.418933208 -46.7985418005 c 0
 464.282142687 -46.7985418005 623.570982558 -76.4433586288 678 -107 c 0
 689.636363636 -115 691.223140496 -143.628099174 691.223140496 -158.648384673 c 0
 691.223140496 -164.280991736 691 -168 691 -168 c 1
 550.760120448 -128.705734232 464.68095434 -114.655868798 385.807646956 -114.655868798 c 0
 348.260613131 -114.655868798 312.346544418 -117.839797453 273 -123 c 1
 252 -171 237 -205 237 -205 c 1
 237 -205 185 -202 155 -172 c 1
 138 -182 123 -193 111 -205 c 1
 88 -204 0 -158 0 -158 c 1
 19 -112 91 -62 168 -46 c 1
 227.869118841 82.4289162235 530.17345142 678.011840457 530.17345142 721.500563725 c 0
 530.17345142 723.048428515 529.790488172 723.896892847 529 724 c 0
 528.445023678 724.064035729 527.78798861 724.097089339 527.033310085 724.097089339 c 0
 492.432170894 724.097089339 252.573095137 654.614545874 233 316 c 1
 233 316 215.316774337 313.936957006 190.850580025 313.936957006 c 0
 137.257963912 313.936957006 51.1194029851 323.835820896 47 387 c 1
 67 603 328 789 471 789 c 0
EndSplineSet
Validated: 1
EndChar

StartChar: M
Encoding: 77 77 38
Width: 1195
Flags: W
HStem: -181.234 88.0627G<213.166 242.021 587.685 627.696> 636 20G<782 808> 729.015 59.9855<429.442 515.613>
VStem: 0.374153 190.775<346.482 468.521> 146.791 125.209<-164.145 -114.15> 515.614 86.5211<671.911 727.941> 826.926 166.966<-147.106 14.1034>
LayerCount: 2
Fore
SplineSet
514 789 m 0xf6
 577.922259519 789 602.135416608 750.314914539 602.135416608 691.195222148 c 0
 602.135416608 502.45012252 355.339222512 105.422261594 366 94 c 1
 501 268 756 656 808 656 c 1
 808 656 933 656 933 600 c 1
 855 483 753 263 669 53 c 1
 822 286 972 596 1189 746 c 1
 1189 746 1292 746 1292 690 c 1
 1197.76378734 513.609140407 993.892219417 152.978985577 993.892219417 -56.960568217 c 0
 993.892219417 -107.673762456 1005.78846868 -149.593906395 1034 -178 c 1
 1034 -178 1002.15168055 -185.573685722 963.101612141 -185.573685722 c 0
 913.538063775 -185.573685722 852.372881356 -173.372881356 830 -118 c 0
 827.913580247 -111.366255144 826.926179952 -103.227082592 826.926179952 -93.7625428892 c 0
 826.926179952 73.6870057071 1136 656 1136 656 c 1
 1136 656 669 53 666 -100 c 0
 666.760875874 -108.750072548 642.917137701 -114.171285548 612.474037564 -114.171285548 c 0
 562.895937952 -114.171285548 495.815182695 -99.7932858516 489 -62 c 1
 497 62 745 520 745 520 c 1
 745 520 326 7 272 -159 c 0
 269.858933243 -174.701156215 252.564648269 -181.233978717 231.477107184 -181.233978717 c 0
 194.854407882 -181.233978717 146.790787632 -161.530192931 146.790787632 -135.927674916 c 0xee
 146.790787632 132.933615051 515.614365046 660.102571057 515.614365046 722.972736606 c 0
 515.614365046 727.046019643 514.138384115 729.123073887 511 729 c 0
 510.384984279 729.009685287 509.767670341 729.014516176 509.148098956 729.014516176 c 0
 391.114068207 729.014516176 191.148831074 553.683452035 191.148831074 365.563284221 c 0
 191.148831074 350.761639634 192.386782861 335.880819817 195 321 c 1
 195 321 183.451458149 320.327862644 165.988244873 320.327862644 c 0
 112.804822623 320.327862644 4.76404494382 326.561797753 1 377 c 0
 0.58055236892 382.426603727 0.37415261955 387.851832952 0.37415261955 393.2720303 c 0
 0.37415261955 594.607459044 285.160637081 789 514 789 c 0xf6
EndSplineSet
Validated: 33
EndChar

StartChar: N
Encoding: 78 78 39
Width: 913
Flags: W
HStem: -122.75 21G<698.5 735.5> 749.013 39.9867<436.792 512.756>
VStem: 0 192.111<289.351 460.014> 515.461 114.114<667.316 748.849> 552.178 169.218<-93.0669 70.6673>
LayerCount: 2
Fore
SplineSet
500 789 m 0xf0
 593.377019371 789 629.575726358 746.632205898 629.575726358 673.105479449 c 0xf0
 629.575726358 535.604237548 502.980934895 289.133397807 387 7 c 1
 557 308 786 789 913 789 c 1
 913 789 1017 789 1017 733 c 1
 930.484435942 602.410469347 721.395938488 176.047121149 721.395938488 -25.7621932418 c 0
 721.395938488 -71.2122888596 732.001101055 -105.272795559 757 -122 c 1
 757 -122 744.75 -122.75 726.25 -122.75 c 0
 670.75 -122.75 559 -116 553 -62 c 0
 552.445887446 -56.8051948052 552.178426191 -51.2433799966 552.178426191 -45.3462066877 c 0xe8
 552.178426191 119.037499297 760 544 760 544 c 1
 711 545 434 -27 360 -173 c 0
 354.515616176 -183.968767648 339.631711749 -188.545861286 321.039470613 -188.545861286 c 0
 273.203477221 -188.545861286 200.818966445 -158.246330377 200.818966445 -128.55345145 c 0
 200.818966445 82.2923675668 515.461437466 657.204864978 515.461437466 739.400396893 c 0
 515.461437466 745.806096583 513.726385672 749.146132771 510 749 c 0
 509.437087095 749.00886477 508.871954187 749.013289536 508.304637067 749.013289536 c 0
 394.305407447 749.013289536 192.110559138 570.347118234 192.110559138 336.660351602 c 0
 192.110559138 309.136173827 194.915544217 280.848712762 201 252 c 1
 201 252 177.372244898 247.768163265 146.318623907 247.768163265 c 0
 86.7991836735 247.768163265 0 263.314285714 0 354 c 0
 0 653 265 789 500 789 c 0xf0
EndSplineSet
Validated: 33
EndChar

StartChar: O
Encoding: 79 79 40
Width: 771
Flags: W
HStem: -184.01 51.9957<263.998 343.956> 701.008 87.992<554.031 665.199>
VStem: 171.291 86.9006<-115.644 16.1783> 670.971 72.1797<517.109 699.27>
LayerCount: 2
Fore
SplineSet
466 524 m 1
 466 524 576 509 574 440 c 1
 453.209908698 368.005905846 258.191996063 47.0926522249 258.191996063 -79.9687344734 c 0
 258.191996063 -111.747110081 270.390616267 -131.399803138 299 -132 c 0
 299.358671355 -132.009501228 299.718296222 -132.014240538 300.078866319 -132.014240538 c 0
 426.982103051 -132.014240538 670.970918489 455.043840275 670.970918489 643.508702677 c 0
 670.970918489 679.544777897 662.050523099 701.008016647 641.685565983 701.008016647 c 0
 641.458468327 701.008016647 641.2299475 701.005347616 641 701 c 0
 470 697 185 440 189 223 c 1
 180.213017751 222.520710059 171.82591646 222.293827247 163.821025444 222.293827247 c 0
 21.5118518259 222.293827247 0 294 0 294 c 1
 0 473 328 789 605 789 c 0
 704.45019134 789 743.15066108 719.459436333 743.15066108 617.560149658 c 0
 743.15066108 338.2984337 452.482975018 -184 325 -184 c 0
 324.247281054 -184.006622161 323.497724397 -184.00992611 322.751321609 -184.00992611 c 0
 212.80613683 -184.00992611 171.291405875 -112.323106693 171.291405875 -14.530883597 c 0
 171.291405875 187.774944203 348.959881838 501.802736211 466 524 c 1
EndSplineSet
Validated: 33
EndChar

StartChar: P
Encoding: 80 80 41
Width: 773
VWidth: 1024
Flags: W
HStem: -146.073 21G<203.417 225.566> 735.065 72.9355<395.14 633.606>
VStem: 0 180.313<371.938 503.659> 735.924 64.238<507.594 656.014>
LayerCount: 2
Back
SplineSet
-29177.875 789 m 4
 -28636.7695312 789 -28823.875 317 -29274.875 314 c 5
 -29002.875 300.5859375 -29234.875 -103 -29019.875 -102 c 5
 -29019.875 -102 -29025.8759766 -181.615234375 -29071.875 -182 c 4
 -29435.2617188 -185.040039062 -29096.4599609 255.887695312 -29298.875 274 c 5
 -29341.875 186 -29459.875 -176 -29493.875 -178 c 5
 -29493.875 -178 -29701.2382812 -170.233398438 -29667.875 -136 c 4
 -29552.875 -18 -29251.875 522 -29270.875 656 c 5
 -29270.875 656 -29163.5927734 678 -29165.875 626 c 5
 -29167.9560547 536.182617188 -29214.7744141 449.776367188 -29268.875 352 c 5
 -29164.875 352 -28696.875 702 -29145.875 707 c 4
 -29483.9482422 710.764648438 -29580.875 440 -29541.875 259 c 5
 -29597.875 222 -29727.875 251 -29743.875 300 c 5
 -29737.875 656 -29368.875 789 -29177.875 789 c 4
EndSplineSet
Fore
SplineSet
499.440429688 808 m 0
 674.220712289 808 800.161906376 712.784091932 800.161906376 581.658480919 c 0
 800.161906376 569.467231737 799.073254129 556.965574359 796.833984375 544.201171875 c 0
 754.951604011 341.724133392 490.205679773 169.544756295 333.765561673 169.544756295 c 0
 331.392955058 169.544756295 329.045260348 169.584360048 326.723632812 169.6640625 c 2
 326.723632812 169.6640625 326.272460938 169.646484375 326.045898438 169.6328125 c 0
 250.962890625 6.875 247.715820312 -31.794921875 203.416992188 -146.073242188 c 1
 203.416992188 -146.073242188 105.737304688 -128.38671875 108.134765625 -75.44921875 c 0
 106.694335938 -43.3798828125 165.28125 81.041015625 247.356445312 250.92578125 c 1
 240.4765625 261.397460938 236.569335938 268.591796875 236.569335938 268.591796875 c 1
 242.303710938 268.268554688 248.103515625 268.129882812 253.959960938 268.15234375 c 1
 343.63671875 450.5625 435.17578125 671.444335938 435.17578125 671.444335938 c 1
 435.17578125 671.444335938 442.720655209 672.258341884 453.553388926 672.258341884 c 0
 481.449152575 672.258341884 531.147785894 666.860403148 529.954101562 628.263671875 c 0
 526.127929688 623.213867188 453.974609375 465.318359375 388.166992188 299.04296875 c 1
 389.011766333 299.030730541 389.858712937 299.024637106 390.707776428 299.024637106 c 0
 524.888520164 299.024637106 711.937828537 451.206273999 732.515625 552.944335938 c 0
 734.822691594 564.350209274 735.923877055 575.264010185 735.923877055 585.673181218 c 0
 735.923877055 681.266380749 643.052437934 734.300261622 538.3984375 735.048828125 c 0
 536.93527635 735.059295911 535.477761791 735.064516568 534.025874105 735.064516568 c 0
 247.914670432 735.064516568 180.313156608 532.329471857 180.313156608 329.440611337 c 0
 180.313156608 327.425851391 180.319822935 325.411076278 180.333007812 323.396484375 c 0
 168.906166863 315.930733163 155.549671718 312.693203355 141.35182585 312.693203355 c 0
 84.2236396259 312.693203355 13.4736995056 365.109910266 0 405.404296875 c 1
 10.765625 731.444335938 308.299804688 808 499.440429688 808 c 0
EndSplineSet
Validated: 33
EndChar

StartChar: Q
Encoding: 81 81 42
Width: 789
Flags: W
HStem: -125.571 64.8931<265.343 528.182> -48.2507 44.2467<302.27 387.167> 465 60<490.526 557.173> 730.036 51.9638<589.545 704.32>
VStem: 0 174.171<92.2865 255.92> 203.347 89.1441<56.8358 172.874> 558.085 54.4583<385.74 483.061> 716.196 79.4061<541.624 702.492>
LayerCount: 2
Fore
SplineSet
611 782 m 0
 744.52527565 782 795.6018363 707.760464416 795.6018363 603.687518265 c 0
 795.6018363 359.775712946 515.05098633 -48.0035999994 357.807814488 -48.0035999994 c 0
 357.538179738 -48.0035999994 357.268907563 -48.0024009604 357 -48 c 0
 353.188751987 -48.167790793 349.456650487 -48.2506894106 345.802803734 -48.2506894106 c 0
 306.459159583 -48.2506894106 276.188688739 -38.6390869885 253.87806406 -21.9047486137 c 1
 205.91972412 -62.6444745547 159.445775001 -96.4564810577 119.110196586 -118.651377815 c 1
 190.499297896 -81.6104156682 291.432864051 -60.6778684528 384.613872427 -60.6778686398 c 0
 511.827912172 -60.6778686398 624.5922032 -99.6933847888 628 -190 c 1
 567.868011573 -143.744624287 492.580808021 -125.570970717 416.112775078 -125.570970717 c 0
 294.200321176 -125.570970717 169.286470144 -171.764224463 98 -224 c 1
 98 -224 41.7359481109 -186.889667903 41.7359481109 -139.064484842 c 0
 41.7359481109 -125.073074904 46.5514403292 -110.164609053 59 -95 c 1
 120.289942624 -69.4181109049 177.319253414 -35.2518376705 229.280561918 3.64138309822 c 1
 211.438887387 29.2607098956 203.346790717 62.7615031394 203.346790717 100.438428432 c 0
 203.346790717 268.094685044 363.578949716 518.442817658 538 525 c 0
 590.462210615 524.375449874 612.542858441 501.127253847 612.542858441 463.619486019 c 0
 612.542858441 364.026739197 456.865736469 163.898486531 300.909497701 19.815109329 c 1
 308.387264739 4.96626914058 321.093129377 -3.72990185018 340 -4 c 0
 340.177659109 -4.00269180469 340.355781951 -4.00403588826 340.534366467 -4.00403588826 c 0
 446.733346275 -4.00403588826 716.195705658 471.308600184 716.195705658 656.973205829 c 0
 716.195705658 702.03610553 700.32200678 730.036193095 662.387571179 730.036193095 c 0
 661.601212187 730.036193095 660.805373498 730.024161205 660 730 c 0
 541.233535588 730 174.171321108 474.12270031 174.171321108 118.283387301 c 0
 174.171321108 108.595306679 174.443407809 98.8331287157 175 89 c 1
 147.165912527 81.047403579 116.208674938 74.6563822157 87.4751742151 74.6563822157 c 0
 51.1729324418 74.6563822157 18.4202398949 84.8577892629 0 115 c 1
 2 506 387 782 611 782 c 0
292.710936995 55.484791916 m 1
 458.243049871 202.568671837 558.084593923 387.139351724 558.084593938 446.031061022 c 0
 558.084593938 458.197471627 553.823433286 465 545 465 c 0
 434.667634031 462.717261394 292.490906402 193.520873232 292.490906402 64.0474568184 c 0
 292.490906402 61.1202498358 292.563579582 58.2644618035 292.710936995 55.484791916 c 1
EndSplineSet
Validated: 1
EndChar

StartChar: R
Encoding: 82 82 43
Width: 852
Flags: W
HStem: -182.016 80.0138<661.671 705.562> 314 38<475 527.574> 707.039 81.9612<447.885 737.489>
VStem: 0 193.895<274.23 428.831> 473.86 104.14<547.547 655.226> 789.38 107.625<563.822 666.216>
LayerCount: 2
Fore
SplineSet
566 789 m 0
 799.031905873 789 897.004664722 701.459615792 897.004664722 601.539284636 c 0
 897.004664722 469.44217087 725.7729264 315.708023901 469 314 c 1
 740.663444849 300.602535191 509.573351869 -102.00185525 723.20397012 -102.00185525 c 0
 723.468630258 -102.00185525 723.733972951 -102.001237335 724 -102 c 2
 724 -102 717.998591109 -181.615187715 672 -182 c 0
 670.751696917 -182.01044298 669.511680038 -182.015646901 668.27989896 -182.015646901 c 0
 525.570271326 -182.015646901 493.407217241 -112.165033267 493.407217241 -27.1052878607 c 0
 493.407217241 42.6997224471 515.068407412 122.747786625 515.068407412 182.8386907 c 0
 515.068407412 232.875111516 500.049535557 269.074156463 445 274 c 1
 402 186 284 -176 250 -178 c 1
 250 -178 72.3663705584 -171.346760453 72.3663705584 -143.214169698 c 0
 72.3663705584 -140.95102323 73.5159290025 -138.54887285 76 -136 c 0
 187.501805623 -21.5894516214 473.859822532 489.5378772 473.859822532 642.667794874 c 0
 473.859822532 647.472006016 473.577962549 651.923843074 473 656 c 1
 473 656 495.536798007 660.621527778 519.731888776 660.621527778 c 0
 548.326086957 660.621527778 579.236413044 654.166666667 578 626 c 0
 575.919191919 536.182572614 529.101010101 449.77593361 475 352 c 1
 546.401996319 352 789.379548156 516.976495691 789.379548156 622.015818367 c 0
 789.379548156 669.970671227 738.735612048 705.432788285 598 707 c 0
 595.671282373 707.025932268 593.354006523 707.038838871 591.048138061 707.038838871 c 0
 304.215556089 707.038838871 193.894924111 507.328811613 193.894924111 337.074908895 c 0
 193.894924111 309.997581235 196.685373755 283.665316676 202 259 c 1
 184.368506509 247.350620372 159.401442979 242.243776184 132.966417136 242.243776184 c 0
 75.4402375389 242.243776184 10.9624304312 266.427556805 0 300 c 1
 6 656 375 789 566 789 c 0
EndSplineSet
Validated: 33
EndChar

StartChar: S
Encoding: 83 83 44
Width: 747
Flags: W
HStem: -159 83.9836<42.9785 172.524> -51 20G<-0.0241624 0> 730.008 58.9922<665.849 742.278>
VStem: 146.941 125.005<302.218 403.166> 460.059 115.951<115.089 189.537> 745.666 70.5333<649.649 727.489>
LayerCount: 2
Fore
SplineSet
422 378 m 1
 587.76736426 430.436615225 745.666470253 645.245469236 745.666470253 710.870567763 c 0
 745.666470253 722.839266837 740.414362473 729.845751858 729 730 c 0
 728.684942955 730.005207554 728.368394385 730.007804941 728.050364282 730.007804941 c 0
 607.114375474 730.007804941 271.945593828 354.420144293 271.945593828 306.012914738 c 0
 271.945593828 260.066143508 576.009922629 285.666737796 576.009922629 128.563516086 c 0
 576.009922629 -7.88342233585 325.180109185 -158.010224106 149 -159 c 0
 39.7061900194 -159 -0.0727129374549 -126.623193989 -0.0727129374549 -37.7090786627 c 0
 -0.0727129374549 -35.5075039209 -0.0483248217757 -33.2712666235 0 -31 c 2
 0 -31 33.2568530371 -75.0164231373 89.1292260451 -75.0164231373 c 0
 89.7500301896 -75.0164231373 90.3736263736 -75.010989011 91 -75 c 0
 147.554303929 -74.0078192293 460.058505101 46.0995060279 460.058505101 172.998571445 c 0
 460.058505101 270.092510082 146.940916246 194.193119069 146.940916246 366.875992223 c 0
 146.940916246 439.455961727 520.434284241 789 643 789 c 0
 759.972253012 789 816.1998152 725.451708061 816.1998152 662.498350813 c 0
 816.1998152 660.330655581 816.133148661 658.163665738 816 656 c 0
 812.012654098 591.205629086 644.067619947 277.990518402 563.761909921 277.990518402 c 0
 563.507054606 277.990518402 563.253081952 277.993672951 563 278 c 0
 483 280 422 378 422 378 c 1
EndSplineSet
Validated: 1
EndChar

StartChar: T
Encoding: 84 84 45
Width: 533
Flags: W
HStem: -164 21G<167 249.5> 560.046 42.6858<121.312 234.487> 685 135<645.013 960.889>
LayerCount: 2
Fore
SplineSet
486 685 m 1
 351 685 152 623 121 600 c 1
 129.905063409 601.859298954 139.145292306 602.732253759 148.599800531 602.732253759 c 0
 235.760016858 602.732253759 341.131450869 528.541382582 370 469 c 1
 408 549 451 608 486 685 c 1
938 820 m 0
 951.839619039 820 991.117487589 759.397111458 991.117487589 708.084741881 c 0
 991.117487589 700.074820078 990.160380961 692.291285743 988 685 c 1
 943.666666667 687 901.333333333 687.666666667 859.555555556 687.666666667 c 0
 776 687.666666667 694.666666667 685 604 685 c 1
 515 469 290 8 209 -164 c 1
 125 -164 63 -150 61 -100 c 1
 61 -100 274 224 340 398 c 1
 313.268036462 512.565558021 230.534933362 560.046417609 140.810287813 560.046417609 c 0
 113.058991509 560.046417609 84.6388647436 555.504266075 57 547 c 0
 56.939148327 546.634889962 56.6672298659 546.454926229 56.2106081387 546.454926229 c 0
 49.1633814979 546.454926229 -1.87829665399 589.320468783 0 656 c 1
 181 710 443 818 938 820 c 0
EndSplineSet
Validated: 33
EndChar

StartChar: U
Encoding: 85 85 46
Width: 829
Flags: W
HStem: 741.012 47.9881<341.523 422.753>
VStem: 0.392615 159.876<311.87 508.039> 163 125.505<-91.2809 -38.0871> 424.401 87.9012<571.249 728.808> 496.743 124.783<-76.2207 70.6329>
LayerCount: 2
Fore
SplineSet
371 789 m 0xf0
 475.251832487 789 512.302448583 723.873352582 512.302448583 629.034408327 c 0xf0
 512.302448583 395.948414687 288.505393835 -16.608940632 288.505393835 -82.9017002566 c 0
 288.505393835 -88.7926667918 290.251050786 -92.0045015123 294.209290468 -92.0045015123 c 0
 341.086206751 -92.0045015123 702.135101893 571.327246808 792 789 c 1
 792 789 912 780 910 729 c 1
 716.672999543 284.471037165 621.526556496 85.9620811223 621.526556496 -13.5647180216 c 0
 621.526556496 -75.6884635883 658.596997093 -99.24731855 732 -120 c 1
 718.14800523 -166.332534231 671.898101073 -190.534102191 624.091354796 -190.534102191 c 0
 571.811747806 -190.534102191 517.670350238 -161.592020919 502 -101 c 0
 498.403930849 -86.8272568746 496.743144057 -71.2114419318 496.743144057 -54.3749912356 c 0xe8
 496.743144057 87.9732955133 615.461339179 317.576414907 687 500 c 1
 419.317252002 9.41414586206 329.875955112 -193.014695651 289.591162023 -193.014695651 c 0
 289.392922784 -193.014695651 289.195873904 -193.009793695 289 -193 c 0
 245 -191 162 -120 163 -76 c 1
 343.55834092 332.632034714 424.401211664 606.428685227 424.401211664 702.678279138 c 0
 424.401211664 727.967835952 418.820027509 741 408 741 c 0
 407.490975046 741.007953515 406.980574222 741.011921751 406.468825451 741.011921751 c 0
 308.213866772 741.011921751 160.269017015 594.729277176 160.269017015 422.792399661 c 0
 160.269017015 370.438334863 173.98612611 315.705668088 207 262 c 1
 207 262 195.512561545 261.327862644 178.020512959 261.327862644 c 0
 124.749274082 261.327862644 15.7865168539 267.561797753 6 318 c 0
 2.21859852104 338.070515542 0.392615455085 358.676890938 0.392615455085 379.526529382 c 0
 0.392615455085 573.712481268 158.785367886 789 371 789 c 0xf0
EndSplineSet
Validated: 33
EndChar

StartChar: V
Encoding: 86 86 47
Width: 714
Flags: W
HStem: -178 21G<471 487.5> 696.071 44.9307<314.682 393.934> 769.093 20G<756.856 779.512>
VStem: 0 156.722<239.63 416.898> 285.436 141.36<-50.4333 176.973> 397.179 115.393<508.04 673.331>
LayerCount: 2
Fore
SplineSet
748 789 m 1xf8
 748 789 752.858131488 789.093425606 760.854264197 789.093425606 c 0
 798.169550173 789.093425606 903.823529412 787.058823529 903 764 c 1
 669 440 504 224 471 -178 c 1
 471 -178 347 -162 307 -126 c 1
 291.647300095 -98.2035328031 285.435529611 -58.0015185335 285.435529611 -10.1169094281 c 0xf8
 285.435529611 192.977704192 397.178527477 534.273846772 397.178527477 653.42450214 c 0
 397.178527477 680.014353145 391.613603251 695.541114497 378 696 c 0
 376.77202513 696.047229803 375.544496391 696.070725444 374.317550321 696.070725444 c 0
 263.127169984 696.070725444 156.722046493 503.109171599 156.722046493 294.707188977 c 0
 156.722046493 261.956459273 159.349897929 228.824402508 165 196 c 1
 165 196 0 206 0 280 c 0
 0 531 212 738 357 741 c 0
 357.301519434 741.000933497 357.602508175 741.001399914 357.902966981 741.001399914 c 0
 476.566819672 741.001399914 512.571763377 668.249889348 512.571763377 563.48765637 c 0xf4
 512.571763377 401.788290488 426.795074771 163.827903596 426.795074771 -0.583734515467 c 0
 426.795074771 -18.306303886 427.791758879 -35.1742719629 430 -51 c 1
 445 179 661 543 748 789 c 1xf8
EndSplineSet
Validated: 33
EndChar

StartChar: W
Encoding: 87 87 48
Width: 1015
Flags: W
HStem: -89 21G<712 752> 696.055 44.947<321.922 393.012> 769.032 20G<819.059 829.857 981 1065>
VStem: 0 171.189<241.984 417.406> 270.498 185.502<-163.758 -38.3268> 396.221 136.212<514.939 674.635>
LayerCount: 2
Fore
SplineSet
818 789 m 0xf4
 818.401307544 789 818.830720373 789.031536124 819.286862786 789.031536124 c 0
 840.42689015 789.031536124 918.97887855 766.662056805 918 751 c 1
 780 440 731 232 721 89 c 1
 831 290 906 440 1056 789 c 1
 1074 789 1170 738 1173 721 c 1
 966 440 792 126 712 -89 c 1
 712 -89 572 -31 571 7 c 0
 577 183 652 440 711 595 c 1
 626 422 468 144 456 -217 c 1
 456 -217 331 -201 291 -165 c 1
 276.465198629 -138.684359623 270.497857095 -100.336822097 270.497857095 -54.244359336 c 0xf8
 270.497857095 157.322527551 396.221356074 532.064103599 396.221356074 655.404533329 c 0
 396.221356074 680.824272073 390.881276726 695.565799661 378 696 c 0
 377.044429361 696.036752717 376.089344996 696.055027007 375.134815216 696.055027007 c 0
 269.78423807 696.055027007 171.18924376 473.449785301 171.18924376 302.689636176 c 0
 171.18924376 264.512689926 176.117396827 228.927158725 187 199 c 1
 187 199 0 206 0 280 c 0
 0 531 212 738 357 741 c 0
 357.430934971 741.001334164 357.860921205 741.00200083 358.289960321 741.00200083 c 0
 489.972220602 741.00200083 532.433813037 678.200598597 532.433813037 576.629624371 c 0
 532.433813037 430.486793754 444.529118096 204.082550327 408 -31 c 1
 408 -31 604 656 818 789 c 0xf4
EndSplineSet
Validated: 33
EndChar

StartChar: X
Encoding: 88 88 49
Width: 715
Flags: W
HStem: -150.013 59.0133<648.02 757.848> 735.011 53.9887<299.241 357.686>
VStem: -0.0329266 161.804<354.379 523.508>
LayerCount: 2
Fore
SplineSet
353 789 m 0
 454.096149434 789 482.954145042 704.722153869 482.954145042 547.263711384 c 0
 482.954145042 506.918159281 481.059509909 461.768027859 478 412 c 0
 477 394 477 375 477 356 c 1
 566 491 655 619 709 686 c 1
 709 686 786.03734375 661.62109375 786.03734375 631.159650391 c 0
 786.03734375 602.22104787 599.871519077 397.807278615 490 233 c 1
 518 0 641 -91 706 -91 c 0
 736 -91 755 -70 758 -70 c 0
 765.222668075 -70 775.923131759 -88.3163902038 775.923131759 -107.421716211 c 0
 775.923131759 -127.994233229 763.516081189 -149.481511205 721 -150 c 0
 719.447704015 -150.008870263 717.901230466 -150.013334358 716.36057307 -150.013334358 c 0
 544.213321222 -150.013334358 444.68067054 -94.2791690224 409 98 c 1
 324 -55 246 -217 246 -217 c 1
 246 -217 197.088659592 -213.118147587 197.088659592 -150.628467479 c 0
 197.088659592 -142.197320162 197.979020979 -132.699300699 200 -122 c 0
 208 -80 291 64 390 221 c 1
 362.105076414 471.058065007 389.790635819 735.011250762 340.559621024 735.011250762 c 0
 340.374174434 735.011250762 340.187636453 735.007505458 340 735 c 0
 273.121825761 732.720062242 161.770879751 563.522838226 161.770879751 436.343791795 c 0
 161.770879751 396.177419286 172.877655557 360.202178465 200 335 c 1
 200 335 141.720465211 306.003778258 88.0762746392 306.003778258 c 0
 42.3367098876 306.003778258 -0.0329266324329 327.084237807 -0.0329266324329 405.193543274 c 0
 -0.0329266324329 582.728791883 158.046257905 789 353 789 c 0
EndSplineSet
Validated: 1
EndChar

StartChar: Y
Encoding: 89 89 50
Width: 790
Flags: W
HStem: -154 38.9939<218.556 296.503> 157.803 53.1512<370.681 420.197> 762 26.0021<420.728 471.629>
VStem: 0 170.811<274 382.989> 87.6737 54.0633<-20.7146 54> 256.669 113.962<211.444 293.356> 478.01 108.833<667.973 755.125>
LayerCount: 2
Fore
SplineSet
774 775 m 1xf6
 774 775 862.853185596 755.254847645 862.853185596 725.96777956 c 0
 862.853185596 724.340720222 862.578947368 722.684210526 862 721 c 0
 658.751897644 383.249476967 614.32652159 -154.022095985 301.483048914 -154.022095985 c 0
 300.325713288 -154.022095985 299.164704193 -154.014743091 298 -154 c 0
 164.047281619 -154 87.673700303 -4.47998278512 87.673700303 48.4423292926 c 0
 87.673700303 50.4364195674 87.7821317287 52.2933652078 88 54 c 2
 88 54 92 81 142 82 c 1
 141.823982183 78.6556614695 141.737038397 75.2222489069 141.737038397 71.7141627808 c 0xee
 141.737038397 -4.17393078675 182.423070327 -115.006108961 242.230598273 -115.006108961 c 0
 242.486715419 -115.006108961 242.743183226 -115.004076457 243 -115 c 0
 351 -113 506 159 560 331 c 1
 510.346644731 246.297217482 445.527087604 157.802884499 339.701281254 157.802884499 c 0
 336.831187909 157.802884499 333.930932649 157.867976007 331 158 c 0
 277.259308067 160.646321951 256.66900605 187.202362629 256.66900605 227.832620026 c 0
 256.66900605 361.046539809 478.010473329 645.555364192 478.010473329 734.704760269 c 0
 478.010473329 751.937902552 469.739532364 761.870983449 450 762 c 0
 389.830920335 761.140441719 170.81114643 523.851943175 170.81114643 313.691217443 c 0
 170.81114643 279.353425281 176.658036689 245.739828509 190 214 c 1
 170.911392405 207.582278481 152.960102548 204.9014581 136.28872361 204.9014581 c 0
 51.6494151578 204.9014581 1.1841222447e-14 274 0 274 c 0
 -0.998569871246 439.762598627 218.371195352 788.002144414 452.991851868 788.002144414 c 0
 453.327870165 788.002144414 453.663919743 788.001430129 454 788 c 0
 551.919369843 787.746978372 586.843114807 751.130628562 586.843114807 696.455176943 c 0
 586.843114807 560.413591288 370.631300743 312.568670493 370.631300743 234.881580042 c 0
 370.631300743 220.392230056 378.152368707 211.821930388 396 211 c 0
 396.716902027 210.969363161 397.434479858 210.954119623 398.15272728 210.954119623 c 0
 514.654051392 210.954119623 648.772048337 612.004888312 774 775 c 1xf6
EndSplineSet
Validated: 33
EndChar

StartChar: Z
Encoding: 90 90 51
Width: 654
Flags: W
HStem: -129.602 82.4968<306.612 522.229> 740.153 48.8472<489.997 600.403>
VStem: -0.0120321 203.671<303.808 412.139> 604.15 91.5706<661.364 739.396>
LayerCount: 2
Fore
SplineSet
541 789 m 0
 651.721741685 789 695.720771564 741.719667793 695.720771564 667.824163548 c 0
 695.720771564 469.421153762 378.542389632 79.1557955359 184 -103 c 1
 272.184744782 -71.87597243 386.156777897 -47.1053347392 482.134747092 -47.1053347392 c 0
 590.167433633 -47.1053347392 675.402133345 -78.4890551897 675.402133345 -167.52138638 c 0
 675.402133345 -182.370129269 673.031303857 -198.822386064 668 -217 c 1
 571.849096815 -155.443072564 465.604555402 -129.602095782 365.329666591 -129.602095782 c 0
 268.498201145 -129.602095782 177.233434064 -153.698794999 106 -193 c 1
 86.8 -186.6 52.88 -156.52 52.88 -121.704 c 0
 52.88 -113 55 -104 60 -95 c 2
 60 -95 604.150215905 603.059782382 604.150215905 722.682384251 c 0
 604.150215905 733.498338206 599.70163005 739.585400425 590 740 c 0
 587.482920901 740.10221641 584.948863487 740.15284486 582.39899377 740.15284486 c 0
 423.66680389 740.15284486 203.658793053 543.957516036 203.658793053 383.034770063 c 0
 203.658793053 344.222125475 216.457028507 307.461346265 246 276 c 1
 246 276 163.324546485 243.663229875 93.8290651826 243.663229875 c 0
 43.4446254405 243.663229875 -0.012032063999 260.66039027 -0.012032063999 319.300699192 c 0
 -0.012032063999 531.646160735 332.082282408 789 541 789 c 0
EndSplineSet
Validated: 1
EndChar

StartChar: two
Encoding: 50 50 52
Width: 458
Flags: W
HStem: -83 78G<-65.4167 -0.738059 318.745 350.71> 8.96207 67.6202<65.5706 273.362> 615.977 41.0324<296.357 395.566>
VStem: 23.9673 93.5578<349.542 441.937> 406.887 66.1399<461.21 607.74>
LayerCount: 2
Fore
SplineSet
120 338 m 1
 117.208448332 337.948304599 114.451638052 337.920660928 111.733299253 337.920660928 c 0
 60.8277867006 337.920660928 23.967283199 347.371638965 23.967283199 390.303131218 c 0
 23.967283199 495.365504005 225.939442757 656.007282502 354 657 c 0
 354.64866507 657.006119482 355.29384747 657.009168223 355.935565534 657.009168223 c 0
 460.743297617 657.009168223 473.02735556 576.029896356 473.02735556 508.709323662 c 0
 473.02735556 413.710723296 41 56 41 56 c 1
 63.4308715352 69.5848940284 102.929313717 76.5823046493 146.314589987 76.5823046493 c 0
 240.255882161 76.5823046493 352.420361159 43.7753676536 349 -26 c 1
 288.490247442 -3.92211730983 230.65502385 8.9620720592 176.656152054 8.9620720592 c 0
 98.5799006185 8.9620720592 28.5238817347 -17.9734647392 -30 -83 c 1
 -115 -35 l 1
 -115 -35 -94 27 -68 27 c 1
 -24.8490185905 163.797792128 406.88743934 474.236816714 406.88743934 581.433317082 c 0
 406.88743934 590.995123309 403.452355143 598.93984307 396 605 c 0
 386.787924397 612.525357535 374.831837503 615.976784196 361.062219299 615.976784196 c 0
 274.844240444 615.976784196 117.525060616 480.660355263 117.525060616 362.843949342 c 0
 117.525060616 354.455534655 118.322559193 346.155832887 120 338 c 1
EndSplineSet
Validated: 37
EndChar

StartChar: three
Encoding: 51 51 53
Width: 460
Flags: W
HStem: 0.977136 70.9409<-76.6517 102.955> 595.712 58.3145<263.154 355.585>
VStem: 18.9591 70.0409<376.614 413.862> 270.713 101.457<186.88 282.961> 356.738 54.3407<533.054 595.684>
LayerCount: 2
Fore
SplineSet
89 337 m 1xe8
 89 337 18.9590917621 340.891161569 18.9590917621 408.160283484 c 0
 18.9590917621 480.408056174 190.56389639 652.995154404 281 654 c 0
 281.867054761 654.017694995 282.745068473 654.02662283 283.633365189 654.02662283 c 0
 332.069269334 654.02662283 411.078223109 627.482714039 411.078223109 548.34671532 c 0xe8
 411.078223109 461.594333607 270.031848843 326.891855782 270 326 c 2
 270 326 372.169929735 316.451408436 372.169929735 214.311999314 c 0
 372.169929735 211.925564521 372.114155251 209.488584475 372 207 c 0
 367.04365659 98.9517136702 190.129933222 0.977135905142 -2.89571604469 0.977135905142 c 0
 -4.59592948946 0.977135905142 -6.29739297536 0.984737246724 -8 1 c 0
 -102.001953125 1.8427734375 -115 84 -115 84 c 1
 -86.5861853239 75.7062378783 -56.0965094916 71.9180380389 -25.1649647339 71.9180380389 c 0
 118.038367086 71.9180380389 270.712713075 153.114275867 270.712713075 244.320983649 c 0xf0
 270.712713075 261.681608391 265.181209359 279.404919815 253 297 c 1
 253 297 194 236 145 197 c 1
 92 198 66 238 66 238 c 1
 116.979462694 253.204401154 356.737542041 520.380260977 356.737542041 582.374075722 c 0
 356.737542041 589.695378354 353.393642306 594.155012308 346 595 c 0
 342.132475522 595.478836364 338.198472174 595.712107925 334.208234326 595.712107925 c 0
 229.866908543 595.712107925 87.0736671329 436.206142655 89 337 c 1xe8
EndSplineSet
Validated: 33
EndChar

StartChar: four
Encoding: 52 52 54
Width: 383
Flags: W
HStem: -31 21G<161 192> 636 16.0024G<132.282 177.221 359.739 375.009>
VStem: 84 102<-5.54297 40.6187>
LayerCount: 2
Fore
SplineSet
141 656 m 1
 141 656 228.005332749 641.225509533 228.005332749 607.958351986 c 0
 228.005332749 604.506099788 227.068376068 600.854700855 225 597 c 0
 142 440 93 313 93 313 c 1
 211 337 l 1
 211 337 351.554854264 652.00236842 367.923235777 652.00236842 c 0
 382.094117858 652.00236842 454.043550803 630.858831492 454.043550803 604.866989808 c 0
 454.043550803 601.357467222 452.794642785 597.72619038 450 594 c 0
 407 537 198 54 186 -31 c 1
 136 -31 100 -31 84 7 c 1
 121 135 140 167 186 285 c 1
 186 285 65.3650793651 257.789115646 38.326962531 257.789115646 c 0
 36.9750566893 257.789115646 35.8571428571 257.857142857 35 258 c 0
 20.7528629708 260.374522838 0.240882931558 272.146310192 0.240882931558 309.183109052 c 0
 0.240882931558 318.939036206 1.6641218037 330.447994828 5 344 c 0
 29 409 141 656 141 656 c 1
EndSplineSet
Validated: 1
EndChar

StartChar: five
Encoding: 53 53 55
Width: 406
Flags: W
HStem: -20.0126 21G<-38.0139 -11.1325> 399.213 40.6114<161.895 273.26> 606.358 52.1568<232.076 480.697>
VStem: 278.638 81.6812<324.682 393.243>
LayerCount: 2
Fore
SplineSet
488 656 m 1
 488 656 490 610 473 608 c 0
 462.708013747 606.789161558 438.384694175 606.357949444 408.957123055 606.357949444 c 0
 336.115518605 606.357949444 232 609 232 609 c 1
 145 409 l 1
 170.821248238 430.264557373 202.714718804 439.824451108 233.969163206 439.824451108 c 0
 298.506349274 439.824451108 360.318857716 399.063008137 360.318857716 336.423315277 c 0
 360.318857716 329.538176682 359.572060823 322.388712801 358 315 c 0
 338 221 75.6943359375 -18.4130859375 -10 -20 c 0
 -10.4537815126 -20.0084033613 -10.9065743945 -20.0125697338 -11.3583632168 -20.0125697338 c 0
 -64.6694442483 -20.0125697338 -104 38 -104 38 c 1
 15.1886835253 38 278.637678014 306.103662813 278.637678014 376.67002327 c 0
 278.637678014 384.25503847 275.59389269 389.557785929 269 392 c 0
 255.84285139 396.873018004 242.421854953 399.213096864 229.011300867 399.213096864 c 0
 159.861802379 399.213096864 90.9899444622 336.995229786 60 239 c 1
 60 239 -5.08947190585 264.782921679 -5.08947190585 298.611525494 c 0
 -5.08947190585 301.999585695 -4.4365746586 305.46835025 -3 309 c 0
 21 368 82 500 153 657 c 1
 153 657 264.715976331 658.514792899 359.973145198 658.514792899 c 0
 419.50887574 658.514792899 472.615384615 657.923076923 488 656 c 1
EndSplineSet
Validated: 33
EndChar

StartChar: six
Encoding: 54 54 56
Width: 450
Flags: W
HStem: -31.0294 37.9052<35.6227 127.774>
VStem: -58.0125 87.0636<30.5693 144.019> 240.263 97.7556<133.932 314.652>
LayerCount: 2
Fore
SplineSet
358 660 m 0
 424 658 432 571 432 571 c 1
 250.171786279 558.546012759 29.0511170133 182.119805735 29.0511170133 51.2597919451 c 0
 29.0511170133 24.5076154511 38.2924295615 8.01840510353 59 7 c 0
 60.6805270412 6.91701101031 62.36664991 6.87577550335 64.0574666141 6.87577550335 c 0
 143.862603067 6.87577550335 234.124483485 98.7386366598 240 228 c 0
 240.177777778 231.244444444 240.262716049 234.459259259 240.262716049 237.64066941 c 0
 240.262716049 306.040987654 201 359 201 359 c 1
 201 359 193.346574394 370.799031142 193.346574394 381.431290047 c 0
 193.346574394 389.626989619 197.894117647 397.129411765 214 398 c 0
 214.570788647 398.03085344 215.153000512 398.046237941 215.746154652 398.046237941 c 0
 253.826008176 398.046237941 338.018346771 333.831626628 338.018346771 228.975613905 c 0
 338.018346771 67.3915933733 180.612582047 -31.029446724 91.643218549 -31.029446724 c 0
 90.7552537881 -31.029446724 89.8741060957 -31.0196428336 89 -31 c 0
 0.743218277363 -29.0167015343 -58.0125174156 21.1516387798 -58.0125174156 114.629239332 c 0
 -58.0125174156 296.04969025 220.382606951 660 358 660 c 0
EndSplineSet
Validated: 1
EndChar

StartChar: seven
Encoding: 55 55 57
Width: 304
Flags: W
HStem: -34 21G<44 96> 591.669 59.1673<18.9401 263.935> 594 37<23.5876 111.625>
LayerCount: 2
Fore
SplineSet
5 631 m 1xa0
 5 631 178.387755102 650.836734694 244.300291545 650.836734694 c 0
 255.285714286 650.836734694 263.285714286 650.285714286 267 649 c 0
 293 640 364 598 364 561 c 1
 211 336 148 177 44 -34 c 1
 44 -34 -33.6697157876 -10.1016259115 -33.6697157876 60.5623482334 c 0
 -33.6697157876 66.3863021464 -33.1421319797 72.5279187817 -32 79 c 0
 -17 164 264 598 264 598 c 1
 264 598 174.221165279 591.669441141 112.542867686 591.669441141 c 0xc0
 92.9179548157 591.669441141 76.1379310345 592.310344828 66 594 c 0
 43 598 15 587 5 631 c 1xa0
EndSplineSet
Validated: 1
EndChar

StartChar: eight
Encoding: 56 56 58
Width: 406
Flags: W
HStem: -31.0023 37.7084<-44.9553 75.9101> 625.232 27.7683<186.179 270.561>
VStem: -163.186 105.352<14.8643 158.206> -3.08581 78.0858<414.052 526.412> 145.754 116.708<94.8492 267.392> 291.629 86.1627<514.991 607.907>
LayerCount: 2
Fore
SplineSet
175 430 m 1
 228.372738313 458.973772227 291.628545263 519.922178277 291.628545263 570.734956448 c 0
 291.628545263 586.564711232 285.489470898 601.41078758 271 614 c 0
 262.150318848 621.689075653 250.376835193 625.231748026 236.977182591 625.231748026 c 0
 173.967495957 625.231748026 75 546.896260264 75 453 c 0
 75 431.91899131 94.8357485938 413.923543513 121.602601581 392.967058609 c 1
 134.082396956 395.989584266 146.21156076 397.599517248 157.795298147 397.599517243 c 0
 164.385350344 397.599517243 170.798873374 397.078456804 177 396 c 0
 218.11850026 388.848661199 245.935852505 356.346621299 245.935852505 334.83442906 c 0
 245.935852505 331.600011066 245.307014562 328.614029125 244 326 c 0
 231.005440914 327.84214056 218.382702337 328.717547797 206.141287118 328.717547797 c 0
 203.320639032 328.717547797 200.520236421 328.671070091 197.740196034 328.579232394 c 1
 233.168120617 291.508698112 262.462198483 242.394917793 262.46219898 170.385937762 c 0
 262.46219898 152.979514419 260.750507099 134.235294118 257 114 c 0
 230.558662904 -28.6598166247 56.0727110368 -31.0022904181 4.6985738245 -31.0022904181 c 0
 3.38353437403 -31.0022904181 2.14916049477 -31.0007555777 1 -31 c 0
 -118.165912556 -30.9207804114 -163.185961212 14.485891132 -163.185961212 75.7136011169 c 0
 -163.185961212 170.323150083 -55.6930385275 302.708083856 51.8347563694 364.006156145 c 1
 26.5143479824 393.583554085 4.54120380942 422.752777143 -1 456 c 0
 -2.40656279328 464.439521983 -3.08581416339 472.71314319 -3.08581416339 480.798875922 c 0
 -3.08581416339 581.458905308 102.184486879 653 220 653 c 0
 289.388548257 653 377.79126101 637.506636525 377.79126101 541.029773605 c 0
 377.79126101 533.227689915 377.213111111 524.895977658 376 516 c 0
 364.134831461 428.988764045 314.874384547 406.991541472 268.093774336 406.991541472 c 0
 220.249968438 406.991541472 175 430 175 430 c 1
101.405966131 305.179962959 m 1
 -1.05003825592 256.326827439 -57.8340888823 142.483547801 -57.8340888823 70.4417043099 c 0
 -57.8340888823 33.6800470401 -43.0482183969 7.80297116544 -12 7 c 0
 -5.90557899165 6.84236344873 0.125839845086 6.70612111539 6.07685021977 6.70612111539 c 0
 65.527299522 6.70612111539 116.953015237 20.3030535826 143 162 c 0
 144.880821221 172.231667442 145.754165727 182.04449625 145.754165727 191.484474609 c 0
 145.754165727 236.0906042 126.254252503 272.371781451 101.405966131 305.179962959 c 1
EndSplineSet
Validated: 1
EndChar

StartChar: nine
Encoding: 57 57 59
Width: 383
Flags: W
HStem: -31 21G<-82 19.8087> 622.123 37.9065<181.226 273.377>
VStem: -29.0183 97.7556<314.108 490.376> 279.949 87.0636<484.856 598.411>
LayerCount: 2
Fore
SplineSet
-49 -31 m 0
 -115 -29 -123 57 -123 57 c 1
 58.828213721 69.4539872412 279.948882987 446.569535591 279.948882987 577.663558955 c 0
 279.948882987 604.463574856 270.707570439 620.981594896 250 622 c 0
 248.336480357 622.082149118 246.667477575 622.122963811 244.993866539 622.122963811 c 0
 165.176108072 622.122963811 74.8767763227 529.2890791 69 400 c 0
 68.8222222222 396.755555556 68.7372839506 393.542716049 68.7372839506 390.365080933 c 0
 68.7372839506 322.045925926 108 270 108 270 c 1
 108 270 115.653425606 257.882076125 115.653425606 246.972192957 c 0
 115.653425606 238.562491349 111.105882353 230.870588235 95 230 c 0
 94.4377759218 229.969609509 93.8644688605 229.95445812 93.2805384314 229.95445812 c 0
 55.2186998961 229.95445812 -29.0183467712 295.150554644 -29.0183467712 400.024386095 c 0
 -29.0183467712 561.608406627 128.387417953 660.029446724 217.356781451 660.029446724 c 0
 218.244746212 660.029446724 219.125893904 660.019642834 220 660 c 0
 308.256781723 658.016701534 367.012517416 607.84836122 367.012517416 514.370760668 c 0
 367.012517416 332.95030975 88.6173930486 -31 -49 -31 c 0
EndSplineSet
Validated: 1
EndChar

StartChar: zero
Encoding: 48 48 60
Width: 446
Flags: W
HStem: -31 38<65.625 138.174> 588 64.0174<315.3 369.783>
VStem: -24.1824 83.1637<30.2096 184.73> 378.357 39.3624<382.817 584.146>
LayerCount: 2
Fore
SplineSet
349 588 m 0
 323 588 190 447 122 299 c 0
 82.1587526703 211.224751977 58.9813174787 119.574198805 58.9813174787 62.8888335072 c 0
 58.9813174787 28.5162219039 67.5034549868 7 86 7 c 0
 153 7 234 109 308 249 c 0
 354.829519287 338.401809548 378.35675417 443.338475365 378.35675417 512.521288085 c 0
 378.35675417 557.093146789 368.591221242 586.824526725 349 588 c 0
306 652 m 0
 391.466999894 652 417.719129628 577.225017973 417.719129628 494.737180993 c 0
 417.719129628 451.756488357 410.5917231 406.681769321 401 369 c 0
 373 259 244 -31 97 -31 c 0
 11.5293579999 -31 -24.1823694397 42.6732204807 -24.1823694397 141.627101811 c 0
 -24.1823694397 343.969583896 125.138096862 652.017399694 303.676518722 652.017399694 c 0
 304.450466695 652.017399694 305.224963716 652 306 652 c 0
EndSplineSet
Validated: 1
EndChar

StartChar: one
Encoding: 49 49 61
Width: 182
Flags: W
HStem: 635 20G<157 157>
LayerCount: 2
Fore
SplineSet
60 567 m 1
 107 580 157 655 157 655 c 1
 157 655 249.863242779 630.125917113 249.863242779 593.212508471 c 0
 249.863242779 589.587084407 248.967479675 585.845528455 247 582 c 0
 121 339 45 166 -1 39 c 1
 24.6 37.4 34.84 25.56 34.84 7.064 c 0
 34.84 2.44 34.2 -2.6 33 -8 c 1
 14.7903284833 4.64560521995 -13.3978101115 10.1271827941 -39.3990075743 10.1271827941 c 0
 -64.8014341583 10.1271827941 -88.116484176 4.89516424164 -98 -4 c 0
 -98.4694125709 -4.015142341 -98.9327540939 -4.02260860063 -99.3900816229 -4.02260860063 c 0
 -122.152731466 -4.02260860063 -130.016490609 14.4740820857 -130.016490609 25.5950532721 c 0
 -130.016490609 29.0061589782 -129.276655175 31.723344825 -128 33 c 0
 -123 38 -101 44 -101 43 c 1
 -37 226 11 316 113 575 c 1
 113 575 91.3173828125 551 77 551 c 0
 63 551 60 567 60 567 c 1
EndSplineSet
Validated: 1
EndChar

StartChar: exclam
Encoding: 33 33 62
Width: 237
Flags: W
HStem: 634 20G<208 231.5>
VStem: -71.9998 112.91<35.4637 131.73>
LayerCount: 2
Fore
SplineSet
-10.67578125 155 m 1
 -10.67578125 155 40.9104438805 155.889417675 40.9104438805 98.9522244201 c 0
 40.9104438805 95.5163593099 40.7225927337 91.8699186992 40.32421875 88 c 0
 36.1058837083 47.0218881661 6.32421875 9 -24.67578125 8 c 0
 -25.1015255983 7.98626631135 -25.5247920102 7.97944786365 -25.9455639917 7.97944786365 c 0
 -54.8636481738 7.97944786365 -71.9997926255 40.185012856 -71.9997926255 73.1756347356 c 0
 -71.9997926255 75.7840254585 -71.8926709384 78.3973237391 -71.67578125 81 c 0
 -68.67578125 117 -41.67578125 154 -10.67578125 155 c 1
222 654 m 0
 241 654 261 652 275 650 c 1
 218.554911629 530.196078431 124.479764344 323.262032086 66.32421875 180 c 0
 61.4588341346 170.692307692 54.1322808802 167.022928994 45.6035414059 167.022928994 c 0
 13.8146033654 167.022928994 -34.67578125 218 -34.67578125 218 c 1
 42.1007501383 380.926294821 128.157961145 556.133466135 156 629 c 0
 163.828050156 649.487108892 194 654 222 654 c 0
EndSplineSet
Validated: 33
EndChar

StartChar: at
Encoding: 64 64 63
Width: 504
Flags: W
HStem: -23.0996 43.8312<21.7527 161.974> 105.7 40.7969<64.5027 126.427> 113.7 68<270.832 314.095> 303.404 43.1066<198.821 240.561> 436.966 51.1332<214.298 365.683>
VStem: -56.5982 49.045<54.7176 193.517> 29.9395 55.5617<146.926 190.51> 204.749 66.0825<157.566 229.045> 398.582 28.4866<304.752 408.428>
LayerCount: 2
Fore
SplineSet
254.580808595 305.033978583 m 1xdf80
 256.489489761 309.964952265 257.611499112 314.491447243 257.80859375 318.5 c 2
 257.80859375 318.5 316.208984375 318.5 314.608398438 294.5 c 1
 297.888868457 261.060940038 270.831027355 209.529204616 270.831027355 189.767344462 c 0
 270.831027355 184.944612111 272.442503272 182.013988916 276.208984375 181.700195312 c 0
 314.765899707 182.7281287 398.582452313 289.803066062 398.582452313 364.931944808 c 0
 398.582452313 405.638407122 373.976357053 436.966438362 304.232911515 436.966438362 c 0
 302.389726037 436.966438362 300.51501467 436.944557502 298.608398438 436.900390625 c 0
 137.057963835 432.875577999 -7.55316295537 224.751952053 -7.55316295537 104.393011729 c 0
 -7.55316295537 57.2707172065 14.613374445 23.6013237814 66.6083984375 20.900390625 c 0
 68.4795629054 20.7869685399 70.4065450067 20.7315973386 72.3856628341 20.7315973386 c 0
 154.176048523 20.7315973386 325.008789062 115.299804688 325.008789062 115.299804688 c 1
 325.008789062 115.299804688 331.409179688 104.900390625 324.208984375 98.5 c 0
 287.409179688 64.900390625 176.208984375 -23.099609375 95.4091796875 -23.099609375 c 0
 7.94733988881 -22.3046958585 -56.5981611783 59.0948409839 -56.5981611783 122.138179459 c 0
 -56.5981611783 318.047897179 147.713710805 488.099609375 260.208984375 488.099609375 c 0
 410.899657187 488.099609375 427.069059357 410.219121855 427.069059357 341.634260202 c 0
 427.069059357 333.756149445 426.855714787 326.000688325 426.608398438 318.5 c 0
 424.208984375 245.700195312 329.008789062 116.099609375 267.409179688 113.700195312 c 0xbf80
 265.963916473 113.648575956 264.550499266 113.623182589 263.168276738 113.623182589 c 0
 215.07838696 113.623182589 204.748511492 144.360920821 204.748511492 170.771212845 c 0
 204.748511492 190.662838567 210.608398438 208.099609375 210.608398438 208.099609375 c 1
 210.608398438 208.099609375 133.008789062 106.5 83.4091796875 105.700195312 c 0
 45.596162313 107.173367474 29.9394611084 130.124583393 29.9394611084 161.32336739 c 0
 29.9394611084 231.774664472 109.776223281 344.282019372 194.608398438 346.5 c 0
 194.983087817 346.507203704 195.355960009 346.510773115 195.727017354 346.510773115 c 0
 231.629146915 346.510773115 250.541071029 313.094739305 254.580808595 305.033978583 c 1xdf80
253.91553493 303.375253807 m 1
 253.357253135 303.394564166 252.796079743 303.404144485 252.232106108 303.404144485 c 0
 187.380294279 303.404144485 85.5011580814 176.724563507 85.5011580814 151.01591812 c 0
 85.5011580814 148.112632604 86.800448876 146.497055366 89.5990876285 146.497055366 c 0xdf80
 115.880721983 146.497055366 231.123499993 248.421323341 253.91553493 303.375253807 c 1
EndSplineSet
Validated: 33
EndChar

StartChar: numbersign
Encoding: 35 35 64
Width: 514
Flags: W
HStem: 172 81.5996<-58.4048 -0.673828 126.526 188.126 316.126 412.926> 424.8 81.6006<30.395 112.126 240.926 301.726 431.326 501.692> 636 20G<207.728 276.302 407.326 407.326>
VStem: 216.926 76<610.766 639.198>
LayerCount: 2
Fore
SplineSet
204.92578125 425.599609375 m 1
 180.125976562 370.400390625 152.92578125 310.400390625 126.526367188 253.599609375 c 1
 158.526367188 253.599609375 192.125976562 253.599609375 224.125976562 253.599609375 c 1
 248.92578125 308.799804688 276.125976562 368 301.725585938 424.799804688 c 1
 268.92578125 424.799804688 236.125976562 425.599609375 204.92578125 425.599609375 c 1
216.92578125 656 m 1
 216.92578125 656 292.125976562 649.599609375 292.92578125 630.400390625 c 0
 292.92578125 625.599609375 272.125976562 576 240.92578125 506.400390625 c 1
 273.725585938 506.400390625 307.326171875 506.400390625 338.526367188 506.400390625 c 1
 377.725585938 592 407.326171875 656 407.326171875 656 c 1
 407.326171875 656 482.526367188 649.599609375 483.326171875 630.400390625 c 0
 483.326171875 624.799804688 462.526367188 575.200195312 431.326171875 504.799804688 c 1
 473.725585938 504 504.125976562 502.400390625 508.125976562 500.799804688 c 0
 512.847746297 498.43891982 514.575233316 491.816886248 514.575233316 483.390070123 c 0
 514.575233316 460.407334238 501.725585938 424 501.725585938 424 c 1
 501.725585938 424 456.125976562 424.799804688 394.526367188 424.799804688 c 1
 369.725585938 370.400390625 342.526367188 309.599609375 316.125976562 252.799804688 c 1
 372.92578125 252 414.526367188 251.200195312 419.326171875 248.799804688 c 0
 424.04794161 246.438919821 425.775428628 239.816886248 425.775428628 231.390070124 c 0
 425.775428628 208.407334239 412.92578125 172 412.92578125 172 c 1
 412.92578125 172 353.725585938 172 278.526367188 172 c 1
 233.725585938 74.400390625 199.326171875 0 199.326171875 0 c 1
 199.326171875 0 138.275161458 22.3355360183 138.275161458 49.7687479048 c 0
 138.275161458 61.6650095773 158.492136346 105.323608302 188.125976562 172 c 1
 154.526367188 172 120.125976562 172.799804688 88.92578125 173.599609375 c 1
 43.326171875 75.2001953125 8.92578125 0 8.92578125 0 c 1
 8.92578125 0 -52.125132932 22.3358333126 -52.125132932 49.7692956231 c 0
 -52.125132932 61.6685643431 -31.1117209748 106.921547745 -0.673828125 175.200195312 c 1
 -22.2744140625 176 -36.673828125 177.599609375 -41.4736328125 178.400390625 c 0
 -65.8117139288 184.319704867 -67.9751722719 230.802047507 -67.9751722719 247.14257081 c 0
 -67.9751722719 250.675802631 -67.8740234375 252.799804688 -67.8740234375 252.799804688 c 1
 -67.8740234375 252.799804688 -25.4736328125 253.599609375 33.7255859375 253.599609375 c 1
 58.5263671875 309.599609375 85.7255859375 369.599609375 112.125976562 427.200195312 c 1
 77.7255859375 428 53.7255859375 429.599609375 47.326171875 431.200195312 c 0
 22.9880907587 437.1203125 20.8246324156 483.602137695 20.8246324156 499.942451634 c 0
 20.8246324156 503.475638185 20.92578125 505.599609375 20.92578125 505.599609375 c 1
 20.92578125 505.599609375 75.326171875 506.400390625 148.125976562 506.400390625 c 1
 187.326171875 592 216.92578125 656 216.92578125 656 c 1
EndSplineSet
Validated: 1
EndChar

StartChar: dollar
Encoding: 36 36 65
Width: 536
VWidth: 1024
Flags: W
HStem: -81.8154 21G<54.709 54.709> -5.11426 58.3748<-27.4024 39.2251> 269.114 26.2637<150.552 185.229>
VStem: 53.9966 87.0615<307.566 385.182> 271.793 81.1162<174.579 245.323> 470.492 48.8192<545.19 612.096>
LayerCount: 2
Fore
SplineSet
240.974609375 257.03125 m 1
 212.034179688 204.130859375 183.853515625 152.752929688 158.34765625 106.338867188 c 1
 217.538354134 138.176564593 271.793436425 180.980931421 271.793436425 225.236019212 c 0
 271.793436425 242.071724966 259.98506609 250.618639177 240.974609375 257.03125 c 1
330.521484375 537.256835938 m 1
 238.766341017 457.27416729 141.058173371 339.788880092 141.058173371 317.897141165 c 0
 141.058173371 306.604055368 167.355561248 301.657481158 199.384765625 295.377929688 c 1
 244.243164062 378.487304688 290.8671875 464.374023438 330.521484375 537.256835938 c 1
458.896484375 613.056640625 m 0
 450.571289062 613.217773438 440.756835938 610.7578125 429.83984375 606.1796875 c 1
 402.7734375 554.866210938 365.1171875 485.009765625 324.119140625 409.525390625 c 1
 406.150430492 468.841536546 470.49241913 564.559675035 470.49241913 599.63005903 c 0
 470.49241913 607.988479443 466.837633905 612.901956332 458.896484375 613.056640625 c 0
429.08203125 718.020507812 m 1
 429.08203125 718.020507812 472.600742751 711.578146339 472.600742751 692.656484926 c 0
 472.600742751 689.134835102 464.688190241 673.330025542 451.052734375 646.825195312 c 1
 497.08527746 632.512555866 519.311616814 598.979909135 519.311616814 565.761290166 c 0
 519.311616814 518.141078654 399.583174921 298.43475851 343.660845063 298.43475851 c 0
 318.919682578 298.43475851 296.465039376 312.854906096 279.669921875 327.864257812 c 1
 271.494140625 312.875976562 263.393554688 298.03125 255.201171875 283.041992188 c 1
 305.287491364 269.463465032 352.909615522 246.184811719 352.909615522 194.468409262 c 0
 352.909615522 109.884133166 214.963975939 18.178290258 99.01171875 -1.4775390625 c 1
 73.5224609375 -47.7314453125 54.708984375 -81.8154296875 54.708984375 -81.8154296875 c 1
 54.708984375 -81.8154296875 28.4458578782 -62.0617060103 28.4458578782 -36.8399522495 c 0
 28.4458578782 -33.8951583399 28.8038765485 -30.8758243005 29.603515625 -27.8046875 c 0
 30.2744140625 -25.2314453125 33.947265625 -17.287109375 39.9921875 -5.1142578125 c 1
 -25.6015625 -2.154296875 -49.044921875 22.7080078125 -48.05859375 83.5849609375 c 1
 -48.05859375 83.5849609375 -24.9159520608 53.2605818836 14.0021885291 53.2605818836 c 0
 14.4073044964 53.2605818836 14.8141298399 53.2638677241 15.22265625 53.2705078125 c 0
 25.951171875 53.4443359375 49.9306640625 59.7412109375 79.1162109375 70.5888671875 c 1
 107.32421875 124.1484375 145.04296875 194.5625 185.228515625 269.114257812 c 1
 124.458519083 279.605962592 53.9966266633 292.399694616 53.9966266633 360.299941832 c 0
 53.9966266633 410.063683971 303.667176806 643.835521235 393.96875 653.697265625 c 1
 414.076171875 690.547851562 429.08203125 718.020507812 429.08203125 718.020507812 c 1
EndSplineSet
Validated: 33
EndChar

StartChar: percent
Encoding: 37 37 66
Width: 600
Flags: W
HStem: -16.5996 18.0055<330.49 352.917> 261 28<436.679 466.477> 337 18.0064<135.574 158.915> 614.6 28<242.925 272.555>
VStem: 86.5007 47.3193<355.406 471.352> 275.325 17.4159<522.851 612.616> 280.1 48.1194<1.80569 117.753> 469.2 17.7238<166.687 258.713>
LayerCount: 2
Fore
SplineSet
455.810546875 261 m 0xfb
 444.610351562 261 385.411132812 197.799804688 355.010742188 131.400390625 c 0
 337.452278232 92.8689365603 328.219703222 50.7692962317 328.219703222 25.2247217486 c 0
 328.219703222 10.6034088775 331.244514197 1.40592899004 337.464163986 1.40592899004 c 0
 338.201319115 1.40592899004 338.983352387 1.53512668566 339.810546875 1.7998046875 c 0
 353.411132812 6.599609375 405.411132812 46.599609375 438.2109375 109 c 0
 458.92835535 148.508071729 469.199918598 194.98075496 469.199918598 226.048170557 c 0
 469.199918598 246.565411923 464.720060832 260.36377261 455.810546875 261 c 0xfb
436.610351562 289 m 0
 475.250421849 289 486.923708256 255.029350805 486.923708256 217.905858447 c 0
 486.923708256 198.921107755 483.870859512 179.111811776 479.810546875 162.599609375 c 0
 467.810546875 113.799804688 408.610351562 -16.599609375 343.010742188 -16.599609375 c 0
 298.834036113 -16.599609375 280.100263149 19.8019104712 280.100263149 67.478399493 c 0
 280.100263149 157.942372652 347.548101766 289 436.610351562 289 c 0
262.2109375 614.599609375 m 0
 251.010742188 614.599609375 191.010742188 551.400390625 160.610351562 485 c 0
 143.052157064 446.469137251 133.819958948 404.370197754 133.819958948 378.825728474 c 0
 133.819958948 364.20410835 136.844798482 355.006398691 143.064427378 355.006398691 c 0
 143.801678707 355.006398691 144.583819499 355.135634206 145.411132812 355.400390625 c 0
 159.010742188 360.200195312 211.010742188 400.200195312 243.810546875 462.599609375 c 0
 264.759957996 502.549552373 275.324762031 549.619830714 275.324762031 580.683257604 c 0xfd
 275.324762031 600.628138919 270.969386284 613.974142265 262.2109375 614.599609375 c 0
486.2109375 642.599609375 m 1
 486.2109375 642.599609375 549.411132812 625.799804688 549.411132812 595.400390625 c 1
 403.810546875 397 258.2109375 217.799804688 135.810546875 -13.400390625 c 1
 135.810546875 -13.400390625 80.6018651696 -10.2454162607 80.6018651696 26.6057493952 c 0
 80.6018651696 123.653710718 373.043518546 536.605903724 486.2109375 642.599609375 c 1
243.010742188 642.599609375 m 0
 281.257551364 642.599609375 292.74065627 609.316917135 292.74065627 572.638208104 c 0
 292.74065627 553.310913467 289.552251986 533.040679218 285.411132812 516.200195312 c 0
 273.411132812 467.400390625 215.010742188 337 149.411132812 337 c 0
 105.234426738 337 86.5006537734 373.401519846 86.5006537734 421.078008867 c 0
 86.5006537734 511.541982026 153.948492392 642.599609375 243.010742188 642.599609375 c 0
EndSplineSet
Validated: 1
EndChar

StartChar: asciicircum
Encoding: 94 94 67
Width: 234
Flags: W
HStem: 487.066 169.464<193.369 233.648>
VStem: 186.56 53.2407<498.092 618.559>
LayerCount: 2
Fore
SplineSet
65.19921875 510.599609375 m 1
 185.19921875 656.400390625 l 2
 185.19921875 656.473813434 185.954950178 656.529254841 187.278028236 656.529254841 c 0
 196.75990322 656.529254841 235.380197929 653.681833382 233.80078125 634.19921875 c 0
 235 630 233.80078125 513 239.80078125 489.599609375 c 1
 236.11636931 487.845209084 231.816440089 487.065516978 227.170935097 487.065516978 c 0
 215.928942755 487.065516978 202.663167182 491.631600437 191.19921875 498 c 0
 187.76081403 499.809469687 186.560085763 511.49601517 186.560085763 526.937643074 c 0
 186.560085763 562.698733889 193 618.599609375 193 618.599609375 c 1
 193 618.599609375 150.400390625 546 116.19921875 489.599609375 c 1
 90.3994140625 489.599609375 65.19921875 510.599609375 65.19921875 510.599609375 c 1
EndSplineSet
Validated: 33
EndChar

StartChar: ampersand
Encoding: 38 38 68
Width: 624
Flags: W
HStem: -151 21G<164.004 167.004> 273.143 51.178<150.911 247.224> 646 41.1536<510.053 584.987>
VStem: 48.0002 101.92<324.371 413.822> 57.7515 94.539<-9.89232 51.2281> 146.697 17.3067<-133.418 -115.324> 439.004 40.027<716.36 763.549> 585.607 78.4236<600.291 645.181>
LayerCount: 2
Fore
SplineSet
206.00390625 107 m 1xe3
 172.955740454 56.6408902153 152.290582169 13.0924345618 152.290582169 -3.18358269609 c 0
 152.290582169 -7.59230567605 153.806822606 -10 157.00390625 -10 c 0
 161.00390625 -10 166.00390625 -9 171.00390625 -8 c 1
 181.00390625 26 193.00390625 65 206.00390625 107 c 1xe3
354.00390625 537 m 1
 259.091189567 472.459352656 149.919939853 382.304442126 149.919939853 330.134381047 c 0
 149.919939853 326.015341347 156.04099598 324.32132681 166.17607761 324.32132681 c 0
 191.806733155 324.32132681 243.108522711 335.155157876 286.00390625 345 c 1
 309.00390625 412 333.00390625 478 354.00390625 537 c 1
574.00390625 646 m 0
 546.00390625 645 488.00390625 619 424.00390625 581 c 1
 407.00390625 539 388.00390625 490 367.00390625 437 c 1
 432.809374853 458.935156201 585.606958281 602.505304811 585.606958281 638.05270666 c 0
 585.606958281 643.019492997 582.623968856 645.877406248 576.00390625 646 c 0
 575.00390625 646 575.00390625 646 574.00390625 646 c 0
441.00390625 768 m 0
 452.786598858 768 479.030941995 762.215339788 479.030941995 726.979743976 c 0
 479.030941995 720.751607285 473.783296876 707.913049719 462.00390625 679 c 1
 476.00390625 684 488.00390625 687 495.00390625 687 c 0
 498.036739414 687.101094439 501.199878668 687.153643471 504.47214354 687.153643471 c 0
 565.360052543 687.153643471 664.030569692 668.959570045 664.030569692 606.778454387 c 0
 664.030569692 557.510759299 470.524055064 367.996067304 419.400444544 367.996067304 c 0
 386.295095319 367.996067304 367.789416162 397.476644641 359.00390625 417 c 1
 351.00390625 397 343.00390625 377 335.00390625 356 c 1
 343.00390625 358 350.00390625 359 354.00390625 359 c 0
 354.634341033 359.043478261 355.266666174 359.064744802 355.900501549 359.064744802 c 0
 384.423093396 359.064744802 416.00390625 316 416.00390625 316 c 1
 367.00390625 293 318.00390625 249 276.00390625 200 c 1
 252.00390625 134 229.00390625 69 210.00390625 10 c 1
 289.00390625 58 391.00390625 177 391.00390625 177 c 1
 391.00390625 177 423.515291534 154.199807723 423.515291534 110.24556926 c 0
 423.515291534 86.5559472307 414.071416799 56.7215189873 385.00390625 21 c 0
 344.00390625 -29 261.00390625 -55 189.00390625 -55 c 1
 178.00390625 -91 170.00390625 -124 164.00390625 -151 c 1
 164.00390625 -151 146.697254006 -128.501352082 146.697254006 -109.262794471 c 0xe7
 146.697254006 -93.137781729 152.57607332 -75.7968983047 158.00390625 -53 c 1
 100.539627827 -46.295834184 57.7515418253 -21.2464278423 57.7515418253 23.0267156997 c 0xeb
 57.7515418253 24.9803531325 57.8348581448 26.9714227381 58.00390625 29 c 0
 68.00390625 140 248.00390625 282 248.00390625 282 c 1
 248.00390625 282 213.769590301 273.143361048 173.628144893 273.143361048 c 0
 116.745134641 273.143361048 48.0001872443 290.928123559 48.0001872443 376.901953554 c 0xf3
 48.0001872443 449.087454782 259.842978873 582.920737262 394.00390625 649 c 1
 421.00390625 722 439.00390625 768 439.00390625 768 c 2
 440.00390625 768 440.00390625 768 441.00390625 768 c 0
EndSplineSet
Validated: 1
EndChar

StartChar: asterisk
Encoding: 42 42 69
Width: 193
Flags: W
HStem: 581.5 27<91.6177 124.705 193.795 243.375>
VStem: 76.125 170.016
LayerCount: 2
Fore
SplineSet
121.125 669.25 m 1
 128.625 664 145.125 648.25 162.375 628 c 1
 180.375 646.75 196.875 662.5 205.125 667 c 1
 205.125 667 218.957388154 659.58979206 218.957388154 648.377825265 c 0
 218.957388154 645.775047259 218.211956522 642.967391304 216.375 640 c 0
 206.625 632.5 196.125 625 184.125 613.75 c 1
 200.625 613.75 215.625 612.25 226.875 608.5 c 0
 242.501712329 603.691780822 246.14080972 596.314787014 246.14080972 590.486095723 c 0
 246.14080972 585.404672546 243.375 581.5 243.375 581.5 c 1
 223.875 584.5 207.375 586.75 193.125 587.5 c 1
 202.125 574 209.625 561.25 213.375 550 c 0
 215.11130137 544.79109589 215.824849878 540.509804841 215.824849878 536.990935486 c 0
 215.824849878 520.75 200.625 520.75 200.625 520.75 c 1
 185.625 550 173.625 571.75 161.625 588.25 c 0
 160.875 588.25 160.875 588.25 160.125 588.25 c 0
 147.375 572.5 133.875 551.5 117.375 523 c 1
 117.375 523 103.645031901 523.946894352 103.645031901 538.63024238 c 0
 103.645031901 542.427659974 104.563356164 547.143835616 106.875 553 c 0
 110.625 562.75 117.375 573.25 125.625 584.5 c 1
 112.875 582.25 101.625 579.25 91.125 577 c 0
 73.125 579.25 76.125 601.75 76.125 601.75 c 1
 85.875 605.5 112.875 610 142.125 612.25 c 1
 130.125 625 119.625 634 109.125 643 c 0
 107.536764706 645.779411765 106.882785467 648.39532872 106.882785467 650.81889884 c 0
 106.882785467 662.128892734 121.125 669.25 121.125 669.25 c 1
EndSplineSet
Validated: 1
EndChar

StartChar: parenleft
Encoding: 40 40 70
Width: 251
Flags: W
HStem: -87 21G<75.1644 117.351> 705 24<380.785 390.351>
VStem: 7.99958 64.0536<3.80815 204.641>
LayerCount: 2
Fore
SplineSet
111.850585938 -87 m 1
 38.4781773289 -48.4287338142 7.99958483947 29.8403386626 7.99958483947 123.440206809 c 0
 7.99958483947 352.587909444 190.673042148 673.620742575 373.850585938 729 c 0
 379.850585938 729 402.850585938 719 400.850585938 705 c 1
 260.216716302 646.860858363 72.053207539 273.297747979 72.053207539 63.9413751481 c 0
 72.053207539 6.82715427603 86.0571895935 -38.0660561513 118.850585938 -61 c 1
 119.850585938 -67 122.850585938 -87 111.850585938 -87 c 1
EndSplineSet
Validated: 33
EndChar

StartChar: parenright
Encoding: 41 41 71
Width: 244
Flags: W
HStem: -87 24<-194.882 -185.798>
VStem: 123.798 64.1715<437.231 637.823>
LayerCount: 2
Fore
SplineSet
84.1181640625 729 m 1
 157.490572671 690.428733814 187.969165161 612.159661337 187.969165161 518.559793191 c 0
 187.969165161 289.412090556 5.29570785236 -31.6207425751 -177.881835938 -87 c 0
 -183.881835938 -87 -207.881835938 -77 -205.881835938 -63 c 1
 -65.1493113508 -4.82007363451 123.797694406 368.608383459 123.797694406 577.616544237 c 0
 123.797694406 634.449281923 109.827235226 679.125028664 77.1181640625 702 c 1
 76.1181640625 708 73.1181640625 729 84.1181640625 729 c 1
EndSplineSet
Validated: 33
EndChar

StartChar: underscore
Encoding: 95 95 72
Width: 753
Flags: W
HStem: -199 112<454.659 621.589> -174.727 101.625<82.7303 594.927>
LayerCount: 2
Fore
SplineSet
-144 -102 m 1x80
 -110.207740458 -89.8347865649 164.757348291 -73.1019059099 370.956859489 -73.1019059099 c 0x40
 469.856080948 -73.1019059099 552.936209466 -76.9512009161 586 -87 c 0x80
 643.041666667 -104.729166667 649.577690972 -158.703559028 649.577690972 -182.510733145 c 0
 649.577690972 -189.588541667 649 -194 649 -194 c 1
 560.734088291 -179.939943268 440.893457886 -174.726909165 322.898888521 -174.726909165 c 0x40
 138.774869178 -174.726909165 -40.8540133849 -187.420585498 -89 -199 c 1
 -135 -194 -144 -102 -144 -102 c 1x80
EndSplineSet
Validated: 1
EndChar

StartChar: hyphen
Encoding: 45 45 73
Width: 439
Flags: W
HStem: 269.1 76<32.0132 152.298> 287.476 81.348<11.54 330.897>
LayerCount: 2
Fore
SplineSet
2.7001953125 345.099609375 m 1x80
 29.9697522738 354.916916185 124.537619146 368.824090273 208.07862228 368.824090273 c 0
 247.078668496 368.824090273 283.675553645 365.793203148 309.900390625 357.900390625 c 0
 355.533215841 343.716726938 360.761940798 300.061646033 360.761940798 280.798084319 c 0
 360.761940798 275.071131017 360.299804688 271.5 360.299804688 271.5 c 1
 286.457689132 283.159239788 231.627044362 287.476088642 188.270581166 287.476088642 c 0x40
 124.53106772 287.476088642 85.5904025385 278.146196221 47.5 269.099609375 c 1
 9.900390625 273.099609375 2.7001953125 345.099609375 2.7001953125 345.099609375 c 1x80
EndSplineSet
Validated: 1
EndChar

StartChar: plus
Encoding: 43 43 74
Width: 415
Flags: W
HStem: 417.2 20G<171.2 185.989>
VStem: 63.8066 72.1934<114.923 157.5>
LayerCount: 2
Fore
SplineSet
173.599609375 437.200195312 m 0
 198.379224602 437.200195312 247.06086032 421.265244824 247.06086032 397.863584743 c 0
 247.06086032 395.577609281 246.596329046 393.220384773 245.599609375 390.799804688 c 2
 245.599609375 390.799804688 230.400390625 350 216 308.400390625 c 1
 243.200195312 306.799804688 268 303.599609375 287.200195312 298 c 0
 314.242226794 289.594893565 321.586983633 272.843722618 321.586983633 257.12505935 c 0
 321.586983633 238.432552875 311.200195312 221.200195312 311.200195312 221.200195312 c 1
 259.200195312 229.200195312 218.400390625 234 185.599609375 235.599609375 c 1
 164.799804688 180.400390625 148.799804688 126.799804688 136 102.799804688 c 0
 135.030105059 102.707455219 133.91888779 102.660433834 132.686668382 102.660433834 c 0
 113.269588997 102.660433834 63.8066403926 114.336247191 63.8066403926 144.313424906 c 0
 63.8066403926 158.727474684 75.1365303634 188.449300505 90.400390625 230 c 1
 68 226 49.599609375 220.400390625 28 215.599609375 c 1
 -9.599609375 219.599609375 -15.2001953125 285.200195312 -15.2001953125 285.200195312 c 1
 4.7998046875 292.400390625 62.400390625 302 124 306 c 1
 148.799804688 369.200195312 171.200195312 437.200195312 171.200195312 437.200195312 c 2
 172 437.200195312 172.799804688 437.200195312 173.599609375 437.200195312 c 0
EndSplineSet
Validated: 1
EndChar

StartChar: equal
Encoding: 61 61 75
Width: 422
Flags: W
HStem: 220 83<34.4257 300.28> 356.991 83.0089<95.425 360.28>
LayerCount: 2
Fore
SplineSet
165.280273438 303 m 0
 221.280273438 303 282.280273438 302 326.280273438 299 c 0
 331.201533281 298.606299213 333.177787233 295.306342613 333.177787233 290.259581338 c 0
 333.177787233 269.668795338 300.280273438 220 300.280273438 220 c 1
 67.8748847622 220 86.467445694 217.991245169 6.83210955002 217.991245169 c 0
 1.96041433555 217.991245169 0.000273437500001 221.195321637 0.000273437500001 226.352 c 0
 0.000273437500001 247.6 33.2802734375 302 33.2802734375 302 c 1
 57.2802734375 302 109.280273438 303 165.280273438 303 c 0
225.280273438 441 m 0
 281.280273438 441 343.280273438 440 387.280273438 437 c 0
 392.125234678 436.612403101 394.07824231 433.407968271 394.07824231 428.49305046 c 0
 394.07824231 408.046992368 360.280273438 358 360.280273438 358 c 1
 127.869819898 358 147.471264998 356.991141767 67.8269010335 356.991141767 c 0
 62.959017179 356.991141767 61.0002734375 360.155266272 61.0002734375 365.248 c 0
 61.0002734375 386.24 94.2802734375 440 94.2802734375 440 c 1
 118.280273438 440 169.280273438 441 225.280273438 441 c 0
EndSplineSet
Validated: 1
EndChar

StartChar: braceleft
Encoding: 123 123 76
Width: 265
Flags: W
HStem: -81.1813 31.0146<56.8099 131.379> 675.836 62.1642<302.697 354.206>
VStem: -37.9995 71.1577<-30.7013 73.006> 91.3851 73.5267<263.958 365.905>
LayerCount: 2
Fore
SplineSet
391.158203125 673 m 1
 380.816656338 674.924008705 371.328260957 675.835803875 362.594120112 675.835803875 c 0
 226.062542358 675.835803875 273.838785962 453.031732047 128.158203125 391 c 1
 154.585177628 366.140727375 164.911780181 339.275177871 164.911780181 311.144730438 c 0
 164.911780181 213.668941837 40.9186290146 101.00532362 33.158203125 4 c 0
 33.158203125 -46 103.991536458 -50.1666666667 127.602647569 -50.1666666667 c 0
 132.324869792 -50.1666666667 135.158203125 -50 135.158203125 -50 c 1
 135.158203125 -50 126.158203125 -78 80.158203125 -81 c 0
 78.3113740986 -81.1204453713 76.4306952015 -81.1812504941 74.5215377987 -81.1812504941 c 0
 29.6528740329 -81.1812504941 -37.9995353282 -44.3424317187 -37.9995353282 43.7355217312 c 0
 -37.9995353282 123.592650239 91.3851080534 254.305340077 91.3851080534 327.371327912 c 0
 91.3851080534 349.603626258 79.4060978091 366.498734534 48.158203125 375 c 1
 34.7878327546 388.37037037 32.8070371442 403.226337449 32.8070371442 410.856068689 c 0
 32.8070371442 414.068587106 33.158203125 416 33.158203125 416 c 1
 229.158203125 450 167.158203125 738 309.158203125 738 c 0
 380.158203125 738 391.158203125 673 391.158203125 673 c 1
EndSplineSet
Validated: 1
EndChar

StartChar: braceright
Encoding: 125 125 77
Width: 280
Flags: W
HStem: -109 64<-137.048 -83.6879> 679.167 31.0146<85.7788 160.348>
VStem: 52.2464 73.5267<263.215 367.069> 184 71.1577<555.95 659.701>
LayerCount: 2
Fore
SplineSet
-174 -45 m 1
 -163.658453213 -46.9240087046 -154.170057832 -47.8358038753 -145.435916987 -47.8358038753 c 0
 -8.90433923305 -47.8358038753 -56.680582837 174.968267953 89 237 c 1
 62.5730254974 261.859272625 52.2464229437 288.774979051 52.2464229437 316.983274299 c 0
 52.2464229437 414.728816063 176.23957411 527.99467638 184 625 c 0
 184 675 113.166666667 679.166666667 89.5555555556 679.166666667 c 0
 84.8333333333 679.166666667 82 679 82 679 c 1
 82 679 91 707 137 710 c 0
 138.846829026 710.120445371 140.727507924 710.181250494 142.636665326 710.181250494 c 0
 187.505329092 710.181250494 255.157738453 673.342431719 255.157738453 585.264478269 c 0
 255.157738453 505.407349761 125.773095072 374.694659923 125.773095072 301.628672088 c 0
 125.773095072 279.396373742 137.752105316 262.501265466 169 254 c 1
 182.37037037 240.62962963 184.351165981 225.278463649 184.351165981 217.355281207 c 0
 184.351165981 214.01920439 184 212 184 212 c 1
 -12 178 50 -109 -92 -109 c 0
 -163 -109 -174 -45 -174 -45 c 1
EndSplineSet
Validated: 1
EndChar

StartChar: bracketleft
Encoding: 91 91 78
Width: 205
Flags: W
HStem: -88 48<-16 59.1731> 698.444 50.5556<319.02 402>
LayerCount: 2
Fore
SplineSet
411 749 m 1
 412 737 402 698 402 698 c 1
 394.666666667 698.333333333 383 698.444444444 370.703703704 698.444444444 c 0
 346.111111111 698.444444444 319 698 319 698 c 1
 319 698 -26 -40 -16 -40 c 2
 75 -40 l 1
 75 -40 66 -88 48 -88 c 0
 35.1428571429 -88 -58.8367346939 -90.5510204082 -113.311953353 -90.5510204082 c 0
 -135.102040816 -90.5510204082 -150.571428571 -90.1428571429 -152 -89 c 0
 -37 167 66 400 226 749 c 1
 411 749 l 1
EndSplineSet
Validated: 33
EndChar

StartChar: bracketright
Encoding: 93 93 79
Width: 259
Flags: W
HStem: -111 51.5556<-210.93 -126.95> 678 49<131.897 208.07>
LayerCount: 2
Fore
SplineSet
-219.9296875 -111 m 1
 -220.9296875 -99 -210.9296875 -59 -210.9296875 -59 c 1
 -203.596354167 -59.3333333333 -191.818576389 -59.4444444444 -179.374131944 -59.4444444444 c 0
 -154.485243056 -59.4444444444 -126.9296875 -59 -126.9296875 -59 c 1
 -126.9296875 -59 218.0703125 678 208.0703125 678 c 2
 116.0703125 678 l 1
 116.0703125 678 125.0703125 727 143.0703125 727 c 0
 155.927455357 727 249.907047194 729.551020408 304.382265853 729.551020408 c 0
 326.172353316 729.551020408 341.641741071 729.142857143 343.0703125 728 c 0
 228.0703125 472 125.0703125 238 -34.9296875 -111 c 1
 -219.9296875 -111 l 1
EndSplineSet
Validated: 33
EndChar

StartChar: bar
Encoding: 124 124 80
Width: 225
Flags: W
HStem: -61 21G<-26.7803 -26.7803>
LayerCount: 2
Fore
SplineSet
222.219726562 759 m 2
 222.219726562 759 317.22836379 751.047221518 317.22836379 726.774106041 c 0
 317.22836379 698.602886827 -26.7802734375 -61 -26.7802734375 -61 c 1
 -26.7802734375 -61 -103.99997863 -32.7488883442 -103.99997863 1.82111100731 c 0
 -103.99997863 39.662519689 222.068854405 757.91360969 222.219726562 759 c 2
EndSplineSet
Validated: 1
EndChar

StartChar: colon
Encoding: 58 58 81
Width: 173
Flags: W
VStem: -94.9998 112.91<71.4597 167.73> 32.0002 112.901<357.888 456.12>
LayerCount: 2
Fore
SplineSet
-33.67578125 191 m 1
 -33.67578125 191 17.9104438805 191.889417675 17.9104438805 134.95222442 c 0
 17.9104438805 131.51635931 17.7225927337 127.869918699 17.32421875 124 c 0
 13.32421875 83 -16.67578125 45 -47.67578125 44 c 0
 -48.0888402757 43.9870919054 -48.4995666367 43.9806819482 -48.9079452779 43.9806819482 c 0
 -77.849596053 43.9806819482 -94.9998075115 76.1747376899 -94.9998075115 109.1757552 c 0
 -94.9998075115 111.78396124 -94.8926805935 114.397207878 -94.67578125 117 c 0
 -91.67578125 153 -64.67578125 190 -33.67578125 191 c 1
92.32421875 478 m 1
 92.32421875 478 144.90124275 478.891136 144.90124275 421.78714112 c 0
 144.90124275 418.399616 144.71621875 414.808 144.32421875 411 c 0
 140.32421875 370 110.32421875 332 79.32421875 331 c 0
 78.9002840858 330.986752042 78.4788065391 330.980173403 78.059802386 330.980173403 c 0
 49.137663016 330.980173403 32.0001924885 362.324593389 32.0001924885 395.190681116 c 0
 32.0001924885 397.789188499 32.1073194065 400.397207878 32.32421875 403 c 0
 35.32421875 439 61.32421875 477 92.32421875 478 c 1
EndSplineSet
Validated: 33
EndChar

StartChar: semicolon
Encoding: 59 59 82
Width: 224
Flags: W
HStem: 20.979 33.8335<-90.862 -63.4521>
VStem: 7.22363 70.7764<127.953 191.265> 82.676 112.901<357.46 455.12>
LayerCount: 2
Fore
SplineSet
7 235 m 2
 7 235 77 227 78 159 c 0
 77 83 20 22 -37 21 c 0
 -37.5492957746 20.985915493 -38.098988296 20.9789724261 -38.6489574224 20.9789724261 c 0
 -77.1467962706 20.9789724261 -117 55 -117 55 c 2
 -115.46875 54.875 -113.907226562 54.8125 -112.318969727 54.8125 c 0
 -64.6091060068 54.8125 7.22363217812 111.209357197 7.22363217812 224.003071592 c 0
 7.22363217812 227.611010715 7.1501349388 231.276653518 7 235 c 2
143 477 m 1
 143 477 195.577024 477.891136 195.577024 420.78714112 c 0
 195.577024 417.399616 195.392 413.808 195 410 c 0
 191 369 161 331 130 330 c 0
 129.586940974 329.987091905 129.176214613 329.980681948 128.767835972 329.980681948 c 0
 99.826185197 329.980681948 82.6759737385 362.17473769 82.6759737385 395.1757552 c 0
 82.6759737385 397.78396124 82.7831006565 400.397207878 83 403 c 0
 86 439 112 476 143 477 c 1
EndSplineSet
Validated: 33
EndChar

StartChar: quotesingle
Encoding: 39 39 83
Width: 106
Flags: W
HStem: 537.369 123.407<119.622 178.459>
VStem: 114 69.9796<547.354 660.508>
LayerCount: 2
Fore
SplineSet
117.467773438 661 m 2
 119.560424956 660.839026806 121.711379304 660.775224997 123.899780499 660.775224997 c 0
 132.26811954 660.775224997 141.184028898 661.708173441 149.481323017 661.708173441 c 0
 165.973009082 661.708173441 180.020827051 658.022517486 182.467773438 636 c 0
 183.55472996 629.11438519 183.980060773 620.638394967 183.980060773 611.588904028 c 0
 183.980060773 579.010736649 178.467773438 539 178.467773438 539 c 1
 178.467773438 539 166.115811488 537.368608799 152.662861387 537.368608799 c 0
 138.24898628 537.368608799 122.571221714 539.24137931 119.467773438 547 c 0
 115.295359645 554.382846175 114.000472606 572.56681499 114.000472606 592.295734469 c 0
 114.000472606 624.579420891 117.467773438 661 117.467773438 661 c 2
EndSplineSet
Validated: 1
EndChar

StartChar: cent
Encoding: 162 162 84
Width: 393
VWidth: 1024
Flags: W
VStem: -7.9998 86.8589<143.554 273.248> 59.153 31.2455<30.5427 65.5154> 296.021 27.0294<633.398 640.951>
LayerCount: 2
Fore
SplineSet
211.888671875 475.490234375 m 1x20
 135.378874513 410.178449436 78.8591152182 232.724643132 78.8591152182 156.316876997 c 0
 78.8591152182 151.517653323 79.0820959213 147.117074608 79.537109375 143.16796875 c 1
 119.799804688 260.827148438 161.607421875 361.955078125 211.888671875 475.490234375 c 1x20
296.021484375 662.0234375 m 1
 296.021484375 662.0234375 323.050837648 647.06009364 323.050837648 614.468761061 c 0
 323.050837648 608.310510237 322.085795757 601.522878924 319.791015625 594.087890625 c 0
 312.274414062 580.544921875 302.130859375 560.498046875 290.21875 535.5234375 c 0
 292.225585938 533.885742188 294.109375 532.228515625 295.849609375 530.5625 c 1
 312.161132812 564.188476562 327.791015625 594.087890625 327.791015625 594.087890625 c 1
 327.791015625 594.087890625 384.826907943 563.5496936 384.826907943 545.24019698 c 0
 384.826907943 526.679371192 292.547851562 399.650390625 292.547851562 399.650390625 c 1
 292.547851562 399.650390625 259.377215874 422.492543384 259.377215874 440.865177471 c 0
 259.377215874 449.277154642 268.996743473 472.902419286 280.998046875 499.130859375 c 1
 278.536132812 499.580078125 276.083984375 499.865234375 273.640625 500.029296875 c 0
 231.510742188 408.111328125 174.946289062 272.3359375 129.009765625 136.853515625 c 1
 186.88444052 179.647438449 271.998100802 291.812288357 282.231471738 291.812288357 c 0
 282.58620427 291.812288357 282.850959676 291.67750962 283.021484375 291.400390625 c 0
 283.947410301 289.895760995 284.341786158 287.242297347 284.341786158 283.813418365 c 0
 284.341786158 264.097364219 271.302734375 218.744140625 271.302734375 218.744140625 c 1
 264.618164062 212.666992188 190.5 109.06640625 113.961914062 91.32421875 c 1
 105.533203125 65.02734375 97.6142578125 38.93359375 90.3984375 13.37109375 c 1
 90.3984375 13.37109375 59.1529638855 13.9343699912 59.1529638855 62.0561346795 c 0x60
 59.1529638855 70.3232463947 60.0751352549 79.9939878631 62.236328125 91.306640625 c 0
 62.4248046875 91.884765625 62.6123046875 92.4501953125 62.80078125 93.02734375 c 1
 12.2820095061 107.384300446 -7.99980461551 156.022234997 -7.99980461551 217.027972027 c 0xa0
 -7.99980461551 358.915010398 101.711376083 567.703668344 195.887796283 567.703668344 c 0
 196.393751332 567.703668344 196.899258003 567.697642104 197.404296875 567.685546875 c 0
 215.754882812 567.474609375 233.338867188 563.84375 248.94921875 558.22265625 c 1
 263.86328125 591.237304688 279.45703125 625.545898438 296.021484375 662.0234375 c 1
EndSplineSet
Validated: 1
EndChar

StartChar: plusminus
Encoding: 177 177 85
Width: 449
Flags: W
HStem: 19.0996 76<-47.9868 72.2982> 37.4761 81.348<-68.46 250.897>
VStem: 97.8066 72.1934<153.923 196.5>
LayerCount: 2
Fore
SplineSet
207.599609375 476.200195312 m 0x20
 232.379224602 476.200195312 281.06086032 460.265244824 281.06086032 436.863584743 c 0
 281.06086032 434.577609281 280.596329046 432.220384773 279.599609375 429.799804688 c 2
 279.599609375 429.799804688 264.400390625 389 250 347.400390625 c 1
 277.200195312 345.799804688 302 342.599609375 321.200195312 337 c 0
 348.242226794 328.594893565 355.586983633 311.843722618 355.586983633 296.12505935 c 0
 355.586983633 277.432552875 345.200195312 260.200195312 345.200195312 260.200195312 c 1
 293.200195312 268.200195312 252.400390625 273 219.599609375 274.599609375 c 1
 198.799804688 219.400390625 182.799804688 165.799804688 170 141.799804688 c 0
 169.030105059 141.707455219 167.91888779 141.660433834 166.686668382 141.660433834 c 0
 147.269588997 141.660433834 97.8066403926 153.336247191 97.8066403926 183.313424906 c 0
 97.8066403926 197.727474684 109.136530363 227.449300505 124.400390625 269 c 1
 102 265 83.599609375 259.400390625 62 254.599609375 c 1
 24.400390625 258.599609375 18.7998046875 324.200195312 18.7998046875 324.200195312 c 1
 38.7998046875 331.400390625 96.400390625 341 158 345 c 1
 182.799804688 408.200195312 205.200195312 476.200195312 205.200195312 476.200195312 c 2
 206 476.200195312 206.799804688 476.200195312 207.599609375 476.200195312 c 0x20
-77.2998046875 95.099609375 m 1xa0
 -50.0302477262 104.916916185 44.5376191464 118.824090273 128.07862228 118.824090273 c 0
 167.078668496 118.824090273 203.675553645 115.793203148 229.900390625 107.900390625 c 0
 275.533215841 93.7167269376 280.761940798 50.0616460333 280.761940798 30.798084319 c 0
 280.761940798 25.0711310166 280.299804688 21.5 280.299804688 21.5 c 1
 206.457689132 33.1592397878 151.627044362 37.4760886418 108.270581167 37.4760886418 c 0x60
 44.5310677206 37.4760886418 5.59040253866 28.1461962206 -32.5 19.099609375 c 1
 -70.099609375 23.099609375 -77.2998046875 95.099609375 -77.2998046875 95.099609375 c 1xa0
EndSplineSet
Validated: 1
EndChar

StartChar: paragraph
Encoding: 182 182 86
Width: 716
Flags: W
HStem: -33.1161 21G<238.261 252.948 453.261 467.948> 671.806 117.194<789.746 899.127> 699 93<372.906 461>
VStem: 70 89<530.285 612.648> 143.906 113.167<-3.14218 101.389> 358.906 113.103<-2.81893 103.225>
LayerCount: 2
Fore
SplineSet
461 699 m 1xb4
 303 697 163 666 159 550 c 0
 159 531.075574348 184.89811161 524.915217989 218.872266187 524.915217989 c 0
 263.889296275 524.915217989 323.085632648 535.731106413 355 542 c 1
 393 603 431 657 461 699 c 1xb4
627 792 m 0
 720 792 807 789 872 789 c 0
 893.68254468 789 909.992143716 770.962253912 909.992143716 740.592841767 c 0
 909.992143716 721.939897875 903.839450214 698.634910641 889 672 c 0
 885.975893112 671.868517092 882.744333162 671.806185204 879.314412328 671.806185204 c 0
 856.657894386 671.806185204 825.346234948 674.525931633 788 678 c 1
 690.74162175 520.075504624 472.009449725 168.349307729 472.009449725 -11.0776826069 c 0
 472.009449725 -17.9804085389 472.333176322 -24.6281292963 473 -31 c 0
 472.723330359 -32.3833482059 470.09286844 -33.1160546438 465.802193066 -33.1160546438 c 0
 440.720393834 -33.1160546438 358.906347203 -8.07826037986 358.906347203 58.390210266 c 0
 358.906347203 62.7472460806 359.257890451 67.2823035814 360 72 c 0
 391 274 567 545 669 689 c 1
 641 691 613 693 584 695 c 1
 492.292194506 546.336820568 257.073084345 174.019659836 257.073084345 -11.7351658966 c 0
 257.073084345 -18.4035297672 257.376215778 -24.8314671356 258 -31 c 0
 257.723330359 -32.3833482059 255.09286844 -33.1160546438 250.802193066 -33.1160546438 c 0
 225.720393834 -33.1160546438 143.906347203 -8.07826037986 143.906347203 58.390210266 c 0xcc
 143.906347203 62.7472460806 144.257890451 67.2823035814 145 72 c 0
 162 185 226 318 295 440 c 1
 247 443 75 462 70 595 c 1
 71 768 371 792 627 792 c 0
EndSplineSet
Validated: 1
EndChar

StartChar: periodcentered
Encoding: 183 183 87
Width: 178
Flags: W
HStem: 236 147
VStem: -1.99981 112.91<263.46 359.73>
LayerCount: 2
Fore
SplineSet
59.32421875 383 m 1
 59.32421875 383 110.910443881 383.889417675 110.910443881 326.95222442 c 0
 110.910443881 323.51635931 110.722592734 319.869918699 110.32421875 316 c 0
 106.32421875 275 76.32421875 237 45.32421875 236 c 0
 44.9111597243 235.987091905 44.5004333633 235.980681948 44.0920547221 235.980681948 c 0
 15.150403947 235.980681948 -1.99980751147 268.17473769 -1.99980751147 301.1757552 c 0
 -1.99980751147 303.78396124 -1.89268059346 306.397207878 -1.67578125 309 c 0
 1.32421875 345 28.32421875 382 59.32421875 383 c 1
EndSplineSet
Validated: 33
EndChar

StartChar: questiondown
Encoding: 191 191 88
Width: 470
Flags: W
HStem: -7.00478 48.0048<8.31949 97.3173>
VStem: -86.6055 91.0954<41.0739 145.385> 214.402 122.454<537.854 596.318> 271.617 76.5347<215.085 245.204>
LayerCount: 2
Fore
SplineSet
255.456054688 496 m 1xe0
 255.456054688 496 214.401613054 495.29489537 214.401613054 535.33028212 c 0
 214.401613054 542.97280928 215.897662938 552.099945777 219.4609375 563 c 0
 232.643554688 604 271.377929688 643 302.6015625 644 c 0
 303.017520805 644.012908095 303.429524188 644.019318052 303.837581653 644.019318052 c 0
 326.353920452 644.019318052 336.85588759 624.502544223 336.85588759 600.283926919 c 0
 336.85588759 590.938958696 335.292280527 580.893946799 332.251953125 571 c 0
 321.190429688 535 286.6796875 497 255.456054688 496 c 1xe0
45.8056640625 -7 m 0
 45.2878619278 -7 44.7717438083 -7.00478423261 44.2573068786 -7.00478423261 c 0
 -48.5067240545 -7.00478423261 -86.6054614433 44.771765114 -86.6054614433 106.186662323 c 0
 -86.6054614433 151.134800017 -66.1981153526 201.245657372 -31.8779296875 240 c 0
 17.775390625 296.06640625 148.288085938 308.032226562 204.961914062 467 c 0
 208.844551794 469.053626569 219.624824092 470.521505626 231.972899051 470.521505626 c 0
 255.701709185 470.521505626 285.220069272 465.100951535 282.706054688 448 c 0
 240.458984375 304.220703125 175.783203125 305.545898438 92.33203125 232 c 0
 33.5666161842 180.024554293 4.48991556895 108.358561882 4.48991556895 69.2549384621 c 0
 4.48991556895 51.9324607372 10.195907382 41 21.5546875 41 c 0
 65.5546875 41 225.752929688 91 271.6171875 269 c 1
 271.6171875 269 348.15189877 265.56427148 348.15189877 229.239105076 c 0xd0
 348.15189877 226.369495358 347.674271745 223.294633879 346.643554688 220 c 0
 324.112304688 106 208.029296875 -6 45.8056640625 -7 c 0
EndSplineSet
Validated: 33
EndChar

StartChar: Agrave
Encoding: 192 192 89
Width: 1044
Flags: W
HStem: -207.376 12.376<871.797 908.73> -196.066 138.164<97.9839 150.122> 255 51<701.992 767> 769 20G<813.5 860>
VStem: 723.439 126.034<-155.297 130.243>
LayerCount: 2
Fore
SplineSet
855 579 m 1x38
 855 579 755 387 701 315 c 1
 722 313 754 309 775 306 c 1
 795 438 855 579 855 579 c 1x38
836 789 m 1
 884 789 1033 764 1035 709 c 1
 945.883031647 509.161949754 849.47328639 168.482145549 849.47328639 -32.704107899 c 0
 849.47328639 -129.514812224 871.797238826 -194.025385644 928 -195 c 1
 928 -195 894.660670611 -207.375963182 854.257133667 -207.375963182 c 0xb8
 814.265877712 -207.375963182 767.353846154 -195.251282051 739 -147 c 0
 727.873609345 -128.05506456 723.438925123 -97.6257140253 723.438925123 -60.2803788953 c 0
 723.438925123 26.5634720841 747.419971307 150.806275882 767 255 c 1
 734 254 687 252 650 250 c 1
 514.213383743 79.5233722904 337.167445386 -196.066290292 181.176692953 -196.066290292 c 0x78
 179.782765862 -196.066290292 178.390520056 -196.044284078 177 -196 c 0
 45 -192 0 -54 0 -54 c 1
 14.2618281942 -56.6410792952 28.6786630516 -57.902599288 43.2006960773 -57.902599288 c 0
 193.634327791 -57.902599288 355.356640969 77.4695044056 473 217 c 1
 403 207 347 197 323 186 c 1
 266 194 222 282 222 282 c 1
 300.583333333 304.041666667 414.065972222 315.0625 534.283564815 315.0625 c 0
 539.510416667 315.0625 544.75 315.041666667 550 315 c 1
 666 474 791 664 836 789 c 1
925.232421875 874.581054688 m 1
 981.045898438 805.862304688 l 1
 940.180664062 806.830078125 l 1
 882 874.581054688 l 1
 925.232421875 874.581054688 l 1
EndSplineSet
Validated: 1
EndChar

StartChar: Aacute
Encoding: 193 193 90
Width: 1044
Flags: W
HStem: -207.376 12.376<871.797 908.73> -196.066 138.164<97.9839 150.122> 255 51<701.992 767> 769 20G<813.5 860>
VStem: 723.439 126.034<-155.297 130.243>
LayerCount: 2
Fore
SplineSet
855 579 m 1x38
 855 579 755 387 701 315 c 1
 722 313 754 309 775 306 c 1
 795 438 855 579 855 579 c 1x38
836 789 m 1
 884 789 1033 764 1035 709 c 1
 945.883031647 509.161949754 849.47328639 168.482145549 849.47328639 -32.704107899 c 0
 849.47328639 -129.514812224 871.797238826 -194.025385644 928 -195 c 1
 928 -195 894.660670611 -207.375963182 854.257133667 -207.375963182 c 0xb8
 814.265877712 -207.375963182 767.353846154 -195.251282051 739 -147 c 0
 727.873609345 -128.05506456 723.438925123 -97.6257140253 723.438925123 -60.2803788953 c 0
 723.438925123 26.5634720841 747.419971307 150.806275882 767 255 c 1
 734 254 687 252 650 250 c 1
 514.213383743 79.5233722904 337.167445386 -196.066290292 181.176692953 -196.066290292 c 0x78
 179.782765862 -196.066290292 178.390520056 -196.044284078 177 -196 c 0
 45 -192 0 -54 0 -54 c 1
 14.2618281942 -56.6410792952 28.6786630516 -57.902599288 43.2006960773 -57.902599288 c 0
 193.634327791 -57.902599288 355.356640969 77.4695044056 473 217 c 1
 403 207 347 197 323 186 c 1
 266 194 222 282 222 282 c 1
 300.583333333 304.041666667 414.065972222 315.0625 534.283564815 315.0625 c 0
 539.510416667 315.0625 544.75 315.041666667 550 315 c 1
 666 474 791 664 836 789 c 1
975.815429688 864.043945312 m 1
 1019.046875 864.043945312 l 1
 960.8671875 796.291992188 l 1
 920 795.32421875 l 1
 975.815429688 864.043945312 l 1
EndSplineSet
Validated: 1
EndChar

StartChar: Acircumflex
Encoding: 194 194 91
Width: 1044
Flags: W
HStem: -207.376 12.376<871.797 908.73> -196.066 138.164<97.9839 150.122> 255 51<701.992 767> 769 20G<813.5 860>
VStem: 723.439 126.034<-155.297 130.243>
LayerCount: 2
Fore
SplineSet
855 579 m 1x38
 855 579 755 387 701 315 c 1
 722 313 754 309 775 306 c 1
 795 438 855 579 855 579 c 1x38
836 789 m 1
 884 789 1033 764 1035 709 c 1
 945.883031647 509.161949754 849.47328639 168.482145549 849.47328639 -32.704107899 c 0
 849.47328639 -129.514812224 871.797238826 -194.025385644 928 -195 c 1
 928 -195 894.660670611 -207.375963182 854.257133667 -207.375963182 c 0xb8
 814.265877712 -207.375963182 767.353846154 -195.251282051 739 -147 c 0
 727.873609345 -128.05506456 723.438925123 -97.6257140253 723.438925123 -60.2803788953 c 0
 723.438925123 26.5634720841 747.419971307 150.806275882 767 255 c 1
 734 254 687 252 650 250 c 1
 514.213383743 79.5233722904 337.167445386 -196.066290292 181.176692953 -196.066290292 c 0x78
 179.782765862 -196.066290292 178.390520056 -196.044284078 177 -196 c 0
 45 -192 0 -54 0 -54 c 1
 14.2618281942 -56.6410792952 28.6786630516 -57.902599288 43.2006960773 -57.902599288 c 0
 193.634327791 -57.902599288 355.356640969 77.4695044056 473 217 c 1
 403 207 347 197 323 186 c 1
 266 194 222 282 222 282 c 1
 300.583333333 304.041666667 414.065972222 315.0625 534.283564815 315.0625 c 0
 539.510416667 315.0625 544.75 315.041666667 550 315 c 1
 666 474 791 664 836 789 c 1
840 804.6796875 m 1
 868.284179688 828.875976562 894.416992188 852.858398438 922.485351562 876.086914062 c 1
 996.904296875 804.6796875 l 1
 948.618164062 804.463867188 l 1
 921.625 834.252929688 l 1
 888.287109375 804.463867188 l 1
 840 804.6796875 l 1
EndSplineSet
Validated: 1
EndChar

StartChar: Atilde
Encoding: 195 195 92
Width: 1044
Flags: W
HStem: -207.376 12.376<871.797 908.73> -196.066 138.164<97.9839 150.122> 255 51<701.992 767> 769 20G<813.5 860> 800.163 34.4081<962.209 1032.96> 845.333 32.5836<867.738 924.92>
VStem: 723.439 126.034<-155.297 130.243> 848 16.6699<812.316 837.063> 1035.45 16.1309<843.049 864.474>
LayerCount: 2
Fore
SplineSet
855 579 m 1x3c80
 855 579 755 387 701 315 c 1
 722 313 754 309 775 306 c 1
 795 438 855 579 855 579 c 1x3c80
836 789 m 1
 884 789 1033 764 1035 709 c 1
 945.883031647 509.161949754 849.47328639 168.482145549 849.47328639 -32.704107899 c 0
 849.47328639 -129.514812224 871.797238826 -194.025385644 928 -195 c 1
 928 -195 894.660670611 -207.375963182 854.257133667 -207.375963182 c 0xbe80
 814.265877712 -207.375963182 767.353846154 -195.251282051 739 -147 c 0
 727.873609345 -128.05506456 723.438925123 -97.6257140253 723.438925123 -60.2803788953 c 0
 723.438925123 26.5634720841 747.419971307 150.806275882 767 255 c 1
 734 254 687 252 650 250 c 1
 514.213383743 79.5233722904 337.167445386 -196.066290292 181.176692953 -196.066290292 c 0x7e80
 179.782765862 -196.066290292 178.390520056 -196.044284078 177 -196 c 0
 45 -192 0 -54 0 -54 c 1
 14.2618281942 -56.6410792952 28.6786630516 -57.902599288 43.2006960773 -57.902599288 c 0
 193.634327791 -57.902599288 355.356640969 77.4695044056 473 217 c 1
 403 207 347 197 323 186 c 1
 266 194 222 282 222 282 c 1
 300.583333333 304.041666667 414.065972222 315.0625 534.283564815 315.0625 c 0
 539.510416667 315.0625 544.75 315.041666667 550 315 c 1
 666 474 791 664 836 789 c 1
848 812.31640625 m 1x3d80
 848.215820312 854.2578125 860.153320312 877.056640625 902.416992188 877.916992188 c 0
 902.826280034 877.925345001 903.233510058 877.92948101 903.63871818 877.92948101 c 0
 944.970519271 877.92948101 965.265866482 834.897252394 1002.64453125 834.577148438 c 0
 1002.95022812 834.573299673 1003.25328632 834.571383535 1003.55372545 834.571383535 c 0
 1028.40972312 834.571383535 1035.3391852 847.686627993 1035.44628906 864.581054688 c 1
 1051.57714844 864.473632812 l 1
 1051.8995997 843.76953374 1039.59364804 800.16327446 986.796466142 800.16327446 c 0
 936.190286409 800.16327446 926.2453137 845.008155663 894.78125 845.331054688 c 0
 894.609912972 845.332639283 894.439474479 845.33342958 894.269930519 845.33342958 c 0
 871.347751098 845.33342958 864.776555038 830.887771751 864.669921875 811.885742188 c 1
 848 812.31640625 l 1x3d80
EndSplineSet
Validated: 33
EndChar

StartChar: Adieresis
Encoding: 196 196 93
Width: 1044
Flags: W
HStem: -207.376 12.376<871.797 908.73> -196.066 138.164<97.9839 150.122> 255 51<701.992 767> 769 20G<813.5 860> 817.476 67.1055<856.332 918.775 966.225 1028.59>
VStem: 723.439 126.034<-155.297 130.243> 854 67.1064<819.807 882.249> 963.908 66.998<819.515 882.541>
LayerCount: 2
Fore
SplineSet
855 579 m 1x3f
 855 579 755 387 701 315 c 1
 722 313 754 309 775 306 c 1
 795 438 855 579 855 579 c 1x3f
836 789 m 1
 884 789 1033 764 1035 709 c 1
 945.883031647 509.161949754 849.47328639 168.482145549 849.47328639 -32.704107899 c 0
 849.47328639 -129.514812224 871.797238826 -194.025385644 928 -195 c 1
 928 -195 894.660670611 -207.375963182 854.257133667 -207.375963182 c 0xbf
 814.265877712 -207.375963182 767.353846154 -195.251282051 739 -147 c 0
 727.873609345 -128.05506456 723.438925123 -97.6257140253 723.438925123 -60.2803788953 c 0
 723.438925123 26.5634720841 747.419971307 150.806275882 767 255 c 1
 734 254 687 252 650 250 c 1
 514.213383743 79.5233722904 337.167445386 -196.066290292 181.176692953 -196.066290292 c 0x7f
 179.782765862 -196.066290292 178.390520056 -196.044284078 177 -196 c 0
 45 -192 0 -54 0 -54 c 1
 14.2618281942 -56.6410792952 28.6786630516 -57.902599288 43.2006960773 -57.902599288 c 0
 193.634327791 -57.902599288 355.356640969 77.4695044056 473 217 c 1
 403 207 347 197 323 186 c 1
 266 194 222 282 222 282 c 1
 300.583333333 304.041666667 414.065972222 315.0625 534.283564815 315.0625 c 0
 539.510416667 315.0625 544.75 315.041666667 550 315 c 1
 666 474 791 664 836 789 c 1
997.352539062 884.581054688 m 0
 1015.95800781 884.581054688 1030.90625 869.525390625 1030.90625 851.028320312 c 0
 1030.90625 832.53125 1015.95800781 817.475585938 997.352539062 817.475585938 c 0
 978.85546875 817.475585938 963.908203125 832.53125 963.908203125 851.028320312 c 0
 963.908203125 869.525390625 978.85546875 884.581054688 997.352539062 884.581054688 c 0
887.552734375 884.581054688 m 0
 906.049804688 884.581054688 921.106445312 869.525390625 921.106445312 851.028320312 c 0
 921.106445312 832.53125 906.049804688 817.475585938 887.552734375 817.475585938 c 0
 869.055664062 817.475585938 854 832.53125 854 851.028320312 c 0
 854 869.525390625 869.055664062 884.581054688 887.552734375 884.581054688 c 0
EndSplineSet
Validated: 1
EndChar

StartChar: Aring
Encoding: 197 197 94
Width: 1044
Flags: W
HStem: -207.376 12.376<871.797 908.73> -196.066 138.164<97.9839 150.122> 255 51<701.992 767> 769 20G<813.5 860> 795.109 17.6367<930.318 962.68> 852.214 17.6377<930.318 963.077>
VStem: 723.439 126.034<-155.297 130.243> 910 16.9912<816.086 848.92> 966.029 16.9922<816.086 848.92>
LayerCount: 2
Fore
SplineSet
855 579 m 1x3f80
 855 579 755 387 701 315 c 1
 722 313 754 309 775 306 c 1
 795 438 855 579 855 579 c 1x3f80
836 789 m 1
 884 789 1033 764 1035 709 c 1
 945.883031647 509.161949754 849.47328639 168.482145549 849.47328639 -32.704107899 c 0
 849.47328639 -129.514812224 871.797238826 -194.025385644 928 -195 c 1
 928 -195 894.660670611 -207.375963182 854.257133667 -207.375963182 c 0xbf80
 814.265877712 -207.375963182 767.353846154 -195.251282051 739 -147 c 0
 727.873609345 -128.05506456 723.438925123 -97.6257140253 723.438925123 -60.2803788953 c 0
 723.438925123 26.5634720841 747.419971307 150.806275882 767 255 c 1
 734 254 687 252 650 250 c 1
 514.213383743 79.5233722904 337.167445386 -196.066290292 181.176692953 -196.066290292 c 0x7f80
 179.782765862 -196.066290292 178.390520056 -196.044284078 177 -196 c 0
 45 -192 0 -54 0 -54 c 1
 14.2618281942 -56.6410792952 28.6786630516 -57.902599288 43.2006960773 -57.902599288 c 0
 193.634327791 -57.902599288 355.356640969 77.4695044056 473 217 c 1
 403 207 347 197 323 186 c 1
 266 194 222 282 222 282 c 1
 300.583333333 304.041666667 414.065972222 315.0625 534.283564815 315.0625 c 0
 539.510416667 315.0625 544.75 315.041666667 550 315 c 1
 666 474 791 664 836 789 c 1
946.45703125 852.213867188 m 0
 934.412109375 852.213867188 926.991210938 843.395507812 926.991210938 832.534179688 c 0
 926.991210938 821.564453125 934.412109375 812.74609375 946.45703125 812.74609375 c 0
 958.609375 812.74609375 966.029296875 821.564453125 966.029296875 832.534179688 c 0
 966.029296875 843.395507812 958.609375 852.213867188 946.45703125 852.213867188 c 0
946.45703125 869.8515625 m 0
 966.674804688 869.8515625 983.021484375 853.181640625 983.021484375 832.534179688 c 0
 983.021484375 811.885742188 966.674804688 795.109375 946.45703125 795.109375 c 0
 926.345703125 795.109375 910 811.885742188 910 832.534179688 c 0
 910 853.181640625 926.345703125 869.8515625 946.45703125 869.8515625 c 0
EndSplineSet
Validated: 1
EndChar

StartChar: AE
Encoding: 198 198 95
Width: 1242
Flags: W
HStem: -196.066 138.164<-130.016 -77.8782> -149.798 73.7827<649.626 782.56> 218 77.6601<994.752 1043.03> 255 51<473.992 539> 697 82<1108.86 1199.67> 769 20G<585.5 632>
VStem: 495.439 153.6<-115.823 50.9228> 1222 67.0076<632.935 696.049>
LayerCount: 2
Fore
SplineSet
662.787109375 265.090820312 m 1x03
 645.54296875 189.872070312 632.5390625 116.599609375 626.056640625 51.4453125 c 1
 708.733398438 125.30859375 842 198 842 198 c 1
 842 198 725.462890625 206.130859375 662.787109375 265.090820312 c 1x03
608 789 m 1x97
 656 789 805 764 807 709 c 1
 784.250976562 657.986328125 761.025390625 597.793945312 739.05078125 533.087890625 c 1
 863.454101562 655.692382812 1054.93164062 777.061523438 1137 779 c 0
 1191.72120873 779 1289.00759415 703.768524932 1289.00759415 643.913629114 c 0
 1289.00759415 572.473330066 1145.73818251 353.97545461 1114 351 c 0
 1105.13636364 350.181818182 1096.37964876 349.800619835 1087.75648009 349.800619835 c 0
 969.906508264 349.800619835 877 421 877 421 c 1
 1001 424 1222 589 1222 697 c 1
 981.460396996 690.013372527 720.997135442 446.931391231 720.997135442 294.872129569 c 0
 720.997135442 269.222385809 746.424310699 260.913885371 781.854543999 260.913885371 c 0
 852.810000425 260.913885371 962.656747636 295.037493543 980.105649107 295.037493543 c 0
 980.437484315 295.037493543 980.735902283 295.025152164 981 295 c 0
 985.425414365 295.447513812 989.586276365 295.660144684 993.497953452 295.660144684 c 0
 1045.5980152 295.660144684 1053.492992 257.939699978 1053.492992 235.075847168 c 0
 1053.492992 225.133184 1052 218 1052 218 c 1
 912.913119756 181.677948471 649.039007549 -20.2422536512 649.039007549 -66.5413916854 c 0
 649.039007549 -72.5042977681 653.415910449 -75.8859036958 663 -76 c 0
 664.099006258 -76.0105168063 665.196021659 -76.0157523091 666.291037041 -76.0157523091 c 0
 873.437069605 -76.0157523091 1009.01051681 111.341796205 1011 176 c 1
 1011 176 1050.07086168 130.258503401 1050.07086168 74.1253374366 c 0
 1050.07086168 -19.5247970743 874.056868199 -142.802782697 778 -149 c 0
 769.848210923 -149.525998653 761.427544921 -149.798421357 752.851128892 -149.798421357 c 0x6b
 712.162196267 -149.798421357 667.967609692 -143.666674542 632.34765625 -129.390625 c 1
 644.041992188 -170.172851562 665.71875 -194.405273438 700 -195 c 1
 700 -195 666.660670611 -207.375963182 626.257133667 -207.375963182 c 0
 586.265877712 -207.375963182 539.353846154 -195.251282051 511 -147 c 0
 499.873609345 -128.05506456 495.438925123 -97.6257140253 495.438925123 -60.2803788953 c 0
 495.438925123 26.5634720841 519.419971307 150.806275882 539 255 c 1
 506 254 459 252 422 250 c 1
 286.213383743 79.5233722904 109.167445386 -196.066290292 -46.8233070469 -196.066290292 c 0
 -48.2172341384 -196.066290292 -49.6094799442 -196.044284078 -51 -196 c 0
 -183 -192 -228 -54 -228 -54 c 1
 -213.738171806 -56.6410792952 -199.321336948 -57.902599288 -184.799303923 -57.902599288 c 0
 -34.3656722088 -57.902599288 127.356640969 77.4695044056 245 217 c 1
 175 207 119 197 95 186 c 1
 38 194 -6 282 -6 282 c 1
 72.5833333333 304.041666667 186.065972222 315.0625 306.283564815 315.0625 c 0
 311.510416667 315.0625 316.75 315.041666667 322 315 c 1
 438 474 563 664 608 789 c 1x97
627 579 m 1
 627 579 527 387 473 315 c 1
 494 313 526 309 547 306 c 1x13
 567 438 627 579 627 579 c 1
EndSplineSet
Validated: 1
EndChar

StartChar: Ccedilla
Encoding: 199 199 96
Width: 654
Flags: W
HStem: -290.037 18.1238<110.046 167.357> -209.082 37.6076<128.783 146.427> -173.002 59.0021<150.414 219.15> 275.981 78.019<377.862 412.711> 740.003 50.9965<452.561 523.541>
VStem: 0.145627 121.631<-90.8668 104.429> 130.033 15.9725<-192.413 -172.972> 177.532 40.7446<-268.418 -212.215> 528.442 96.981<597.091 730.674>
LayerCount: 2
Fore
SplineSet
281 354 m 1xdf80
 412.711200542 357.135980965 528.441539085 591.994460912 528.441539085 693.791122236 c 0
 528.441539085 721.837929289 519.65643304 739.783995241 500 740 c 0
 499.782963827 740.002333722 499.565776521 740.003499222 499.348438955 740.003499222 c 0
 347.322570321 740.003499222 121.776200986 169.737460438 121.776200986 -38.7934985099 c 0
 121.776200986 -85.4513404063 133.067503786 -114 159 -114 c 0
 298 -114 377 197 377 197 c 1
 430.925297327 195.103130245 453.201869996 166.991423592 453.201869996 127.031533409 c 0
 453.201869996 19.7301090345 292.577744614 -173.002056654 152.790337615 -173.002056654 c 0xbf80
 152.526817289 -173.002056654 152.263371012 -173.001371724 152 -173 c 0
 151.469669075 -172.992794417 150.940883302 -172.983611704 150.413640302 -172.972457568 c 2
 154.393554688 -155.418945312 l 1
 132.670898438 -156.708984375 l 1
 130.033319574 -171.47447023 l 1
 38.0794245914 -159.563695285 0.145627370014 -79.9021591321 0.145627370014 28.9232512755 c 0
 0.145627370014 311.168614465 255.309581095 789.586520499 485 791 c 0
 599 791 620 710 625 652 c 0
 625.280514173 648.689932762 625.422537111 644.608721154 625.422537111 639.851368037 c 0
 625.422537111 559.811702319 585.221408043 288.38286882 488 278 c 0
 475.700322467 276.752206627 462.034308261 275.981042326 447.732631315 275.981042326 c 0
 381.803285411 275.981042326 302.3653389 292.36921471 281 354 c 1xdf80
130.033319574 -171.47447023 m 1xdf80
 136.553265107 -172.318997848 143.344793929 -172.822911968 150.413640302 -172.972457568 c 1
 146.005859375 -192.413085938 l 1
 146.005859375 -192.413085938 218.276454013 -192.413085938 218.276454013 -243.477612404 c 0
 218.276454013 -282.172819065 181.36367596 -290.036803303 141.460594933 -290.036803303 c 0
 129.621060748 -290.036803303 117.508425065 -289.344255684 106 -288.555664062 c 1
 111.376953125 -270.2734375 l 1
 111.376953125 -270.2734375 120.765909427 -271.912986417 132.469250618 -271.912986417 c 0
 152.457906702 -271.912986417 177.531894607 -267.34714045 177.531894607 -242.787057639 c 0
 177.531894607 -207.643813212 152.35590362 -209.929963425 123.315429688 -209.08203125 c 1
 130.033319574 -171.47447023 l 1xdf80
EndSplineSet
Validated: 5
EndChar

StartChar: Egrave
Encoding: 200 200 97
Width: 677
Flags: W
HStem: -139.798 73.7825<88.154 220.56> 208 62.9139<245.612 278.312> 228 77.6601<432.752 481.033> 707 82<546.857 637.674>
VStem: -0.142114 87.1811<-65.2295 -21.0075> 61.9827 97.0144<295.072 389.358> 660 67.0076<642.935 706.049>
LayerCount: 2
Fore
SplineSet
575 789 m 0xd6
 629.721208734 789 727.007594151 713.768524932 727.007594151 653.913629114 c 0
 727.007594151 582.473330066 583.738182508 363.97545461 552 361 c 0
 543.136363636 360.181818182 534.37964876 359.800619835 525.75648009 359.800619835 c 0
 407.906508264 359.800619835 315 431 315 431 c 1
 439 434 660 599 660 707 c 1
 419.460396996 700.013372527 158.997135442 456.931391231 158.997135442 304.872129569 c 0
 158.997135442 279.222385809 184.424310699 270.913885371 219.854543999 270.913885371 c 0xd6
 290.810000425 270.913885371 400.656747636 305.037493543 418.105649107 305.037493543 c 0
 418.437484315 305.037493543 418.735902283 305.025152164 419 305 c 0
 423.425414365 305.447513812 427.586276365 305.660144684 431.497953452 305.660144684 c 0
 483.598015201 305.660144684 491.492992 267.939699978 491.492992 245.075847168 c 0
 491.492992 235.133184 490 228 490 228 c 1
 350.913119756 191.677948471 87.0390075487 -10.2422536512 87.0390075487 -56.5413916854 c 0
 87.0390075487 -62.5042977681 91.4159104488 -65.8859036958 101 -66 c 0
 102.099006258 -66.0105168063 103.196021659 -66.0157523091 104.291037041 -66.0157523091 c 0
 311.437069605 -66.0157523091 447.010516806 121.341796205 449 186 c 1
 449 186 488.070861678 140.258503401 488.070861678 84.1253374366 c 0
 488.070861678 -9.5247970743 312.056868199 -132.802782697 216 -139 c 0
 207.848563942 -139.525899101 199.428240516 -139.798275826 190.852155822 -139.798275826 c 0
 103.444967706 -139.798275826 -0.142113567356 -111.504808688 -0.142113567356 -34.9567120085 c 0xba
 -0.142113567356 58.2585213628 279.90631168 206.350923008 280 208 c 2
 280 208 61.9827437925 223.29746866 61.9827437925 361.584451602 c 0
 61.9827437925 499.214625392 448.487530599 786.011516471 575 789 c 0xd6
565.232421875 874.581054688 m 1
 621.045898438 805.862304688 l 1
 580.180664062 806.830078125 l 1
 522 874.581054688 l 1
 565.232421875 874.581054688 l 1
EndSplineSet
Validated: 1
EndChar

StartChar: Eacute
Encoding: 201 201 98
Width: 677
Flags: W
HStem: -139.798 73.7825<88.154 220.56> 208 62.9139<245.612 278.312> 228 77.6601<432.752 481.033> 707 82<546.857 637.674>
VStem: -0.142114 87.1811<-65.2295 -21.0075> 61.9827 97.0144<295.072 389.358> 660 67.0076<642.935 706.049>
LayerCount: 2
Fore
SplineSet
575 789 m 0xd6
 629.721208734 789 727.007594151 713.768524932 727.007594151 653.913629114 c 0
 727.007594151 582.473330066 583.738182508 363.97545461 552 361 c 0
 543.136363636 360.181818182 534.37964876 359.800619835 525.75648009 359.800619835 c 0
 407.906508264 359.800619835 315 431 315 431 c 1
 439 434 660 599 660 707 c 1
 419.460396996 700.013372527 158.997135442 456.931391231 158.997135442 304.872129569 c 0
 158.997135442 279.222385809 184.424310699 270.913885371 219.854543999 270.913885371 c 0xd6
 290.810000425 270.913885371 400.656747636 305.037493543 418.105649107 305.037493543 c 0
 418.437484315 305.037493543 418.735902283 305.025152164 419 305 c 0
 423.425414365 305.447513812 427.586276365 305.660144684 431.497953452 305.660144684 c 0
 483.598015201 305.660144684 491.492992 267.939699978 491.492992 245.075847168 c 0
 491.492992 235.133184 490 228 490 228 c 1
 350.913119756 191.677948471 87.0390075487 -10.2422536512 87.0390075487 -56.5413916854 c 0
 87.0390075487 -62.5042977681 91.4159104488 -65.8859036958 101 -66 c 0
 102.099006258 -66.0105168063 103.196021659 -66.0157523091 104.291037041 -66.0157523091 c 0
 311.437069605 -66.0157523091 447.010516806 121.341796205 449 186 c 1
 449 186 488.070861678 140.258503401 488.070861678 84.1253374366 c 0
 488.070861678 -9.5247970743 312.056868199 -132.802782697 216 -139 c 0
 207.848563942 -139.525899101 199.428240516 -139.798275826 190.852155822 -139.798275826 c 0
 103.444967706 -139.798275826 -0.142113567356 -111.504808688 -0.142113567356 -34.9567120085 c 0xba
 -0.142113567356 58.2585213628 279.90631168 206.350923008 280 208 c 2
 280 208 61.9827437925 223.29746866 61.9827437925 361.584451602 c 0
 61.9827437925 499.214625392 448.487530599 786.011516471 575 789 c 0xd6
615.815429688 864.043945312 m 1
 659.046875 864.043945312 l 1
 600.8671875 796.291992188 l 1
 560 795.32421875 l 1
 615.815429688 864.043945312 l 1
EndSplineSet
Validated: 1
EndChar

StartChar: Ecircumflex
Encoding: 202 202 99
Width: 677
Flags: W
HStem: -139.798 73.7825<88.154 220.56> 208 62.9139<245.612 278.312> 228 77.6601<432.752 481.033> 707 82<546.857 637.674>
VStem: -0.142114 87.1811<-65.2295 -21.0075> 61.9827 97.0144<295.072 389.358> 660 67.0076<642.935 706.049>
LayerCount: 2
Fore
SplineSet
575 789 m 0xd6
 629.721208734 789 727.007594151 713.768524932 727.007594151 653.913629114 c 0
 727.007594151 582.473330066 583.738182508 363.97545461 552 361 c 0
 543.136363636 360.181818182 534.37964876 359.800619835 525.75648009 359.800619835 c 0
 407.906508264 359.800619835 315 431 315 431 c 1
 439 434 660 599 660 707 c 1
 419.460396996 700.013372527 158.997135442 456.931391231 158.997135442 304.872129569 c 0
 158.997135442 279.222385809 184.424310699 270.913885371 219.854543999 270.913885371 c 0xd6
 290.810000425 270.913885371 400.656747636 305.037493543 418.105649107 305.037493543 c 0
 418.437484315 305.037493543 418.735902283 305.025152164 419 305 c 0
 423.425414365 305.447513812 427.586276365 305.660144684 431.497953452 305.660144684 c 0
 483.598015201 305.660144684 491.492992 267.939699978 491.492992 245.075847168 c 0
 491.492992 235.133184 490 228 490 228 c 1
 350.913119756 191.677948471 87.0390075487 -10.2422536512 87.0390075487 -56.5413916854 c 0
 87.0390075487 -62.5042977681 91.4159104488 -65.8859036958 101 -66 c 0
 102.099006258 -66.0105168063 103.196021659 -66.0157523091 104.291037041 -66.0157523091 c 0
 311.437069605 -66.0157523091 447.010516806 121.341796205 449 186 c 1
 449 186 488.070861678 140.258503401 488.070861678 84.1253374366 c 0
 488.070861678 -9.5247970743 312.056868199 -132.802782697 216 -139 c 0
 207.848563942 -139.525899101 199.428240516 -139.798275826 190.852155822 -139.798275826 c 0
 103.444967706 -139.798275826 -0.142113567356 -111.504808688 -0.142113567356 -34.9567120085 c 0xba
 -0.142113567356 58.2585213628 279.90631168 206.350923008 280 208 c 2
 280 208 61.9827437925 223.29746866 61.9827437925 361.584451602 c 0
 61.9827437925 499.214625392 448.487530599 786.011516471 575 789 c 0xd6
500 804.6796875 m 1
 528.284179688 828.875976562 554.416992188 852.858398438 582.485351562 876.086914062 c 1
 656.904296875 804.6796875 l 1
 608.618164062 804.463867188 l 1
 581.625 834.252929688 l 1
 548.287109375 804.463867188 l 1
 500 804.6796875 l 1
EndSplineSet
Validated: 1
EndChar

StartChar: Edieresis
Encoding: 203 203 100
Width: 677
Flags: W
HStem: -139.798 73.7825<88.154 220.56> 208 62.9139<245.612 278.312> 228 77.6601<432.752 481.033> 707 82<546.857 637.674> 807.476 67.1055<506.332 568.775 616.225 678.588>
VStem: -0.142114 87.1811<-65.2295 -21.0075> 61.9827 97.0144<295.072 389.358> 504 67.1064<809.807 872.249> 613.908 66.998<809.515 872.541> 660 67.0076<642.935 706.049>
LayerCount: 2
Fore
SplineSet
575 789 m 0xdb
 629.721208734 789 727.007594151 713.768524932 727.007594151 653.913629114 c 0
 727.007594151 582.473330066 583.738182508 363.97545461 552 361 c 0
 543.136363636 360.181818182 534.37964876 359.800619835 525.75648009 359.800619835 c 0
 407.906508264 359.800619835 315 431 315 431 c 1
 439 434 660 599 660 707 c 1
 419.460396996 700.013372527 158.997135442 456.931391231 158.997135442 304.872129569 c 0
 158.997135442 279.222385809 184.424310699 270.913885371 219.854543999 270.913885371 c 0xdb40
 290.810000425 270.913885371 400.656747636 305.037493543 418.105649107 305.037493543 c 0
 418.437484315 305.037493543 418.735902283 305.025152164 419 305 c 0
 423.425414365 305.447513812 427.586276365 305.660144684 431.497953452 305.660144684 c 0
 483.598015201 305.660144684 491.492992 267.939699978 491.492992 245.075847168 c 0
 491.492992 235.133184 490 228 490 228 c 1
 350.913119756 191.677948471 87.0390075487 -10.2422536512 87.0390075487 -56.5413916854 c 0
 87.0390075487 -62.5042977681 91.4159104488 -65.8859036958 101 -66 c 0
 102.099006258 -66.0105168063 103.196021659 -66.0157523091 104.291037041 -66.0157523091 c 0
 311.437069605 -66.0157523091 447.010516806 121.341796205 449 186 c 1
 449 186 488.070861678 140.258503401 488.070861678 84.1253374366 c 0
 488.070861678 -9.5247970743 312.056868199 -132.802782697 216 -139 c 0
 207.848563942 -139.525899101 199.428240516 -139.798275826 190.852155822 -139.798275826 c 0
 103.444967706 -139.798275826 -0.142113567356 -111.504808688 -0.142113567356 -34.9567120085 c 0xbd
 -0.142113567356 58.2585213628 279.90631168 206.350923008 280 208 c 2
 280 208 61.9827437925 223.29746866 61.9827437925 361.584451602 c 0
 61.9827437925 499.214625392 448.487530599 786.011516471 575 789 c 0xdb
647.352539062 874.581054688 m 0
 665.958007812 874.581054688 680.90625 859.525390625 680.90625 841.028320312 c 0
 680.90625 822.53125 665.958007812 807.475585938 647.352539062 807.475585938 c 0
 628.85546875 807.475585938 613.908203125 822.53125 613.908203125 841.028320312 c 0x9980
 613.908203125 859.525390625 628.85546875 874.581054688 647.352539062 874.581054688 c 0
537.552734375 874.581054688 m 0
 556.049804688 874.581054688 571.106445312 859.525390625 571.106445312 841.028320312 c 0
 571.106445312 822.53125 556.049804688 807.475585938 537.552734375 807.475585938 c 0
 519.055664062 807.475585938 504 822.53125 504 841.028320312 c 0
 504 859.525390625 519.055664062 874.581054688 537.552734375 874.581054688 c 0
EndSplineSet
Validated: 1
EndChar

StartChar: Igrave
Encoding: 204 204 101
Width: 557
Flags: W
HStem: -163.985 21G<208.037 228.268> 726.029 67.971<398.086 482.669>
VStem: 487.926 76.0985<618.169 722.303>
LayerCount: 2
Fore
SplineSet
178 357 m 1
 178 357 164.229025043 355.375334415 144.347749939 355.375334415 c 0
 92.7511074076 355.375334415 -1.89501192516e-14 366.317880795 0 445 c 0
 4 586 280 794 419 794 c 0
 509.9024895 794 564.024243874 747.382556643 564.024243874 647.994405034 c 0
 564.024243874 595.407037054 548.872399263 528.046061295 516 445 c 0
 421 205 242 -163 242 -163 c 1
 242 -163 234.00048074 -163.984556217 222.534980148 -163.984556217 c 0
 193.538265899 -163.984556217 142.372977814 -157.687289991 142.372977814 -113.240676099 c 0
 142.372977814 -104.414594883 144.390572391 -94.0841750842 149 -82 c 0
 209.881969287 76.1113829244 487.925785413 589.278256878 487.925785413 701.186518424 c 0
 487.925785413 712.432182604 485.118030713 719.625838828 479 722 c 0
 473.734249866 724.715152413 467.283826446 726.029005566 459.88043407 726.029005566 c 0
 377.302893044 726.029005566 176.164554692 562.569874532 178 357 c 1
435.232421875 874.581054688 m 1
 491.045898438 805.862304688 l 1
 450.180664062 806.830078125 l 1
 392 874.581054688 l 1
 435.232421875 874.581054688 l 1
EndSplineSet
Validated: 33
EndChar

StartChar: Iacute
Encoding: 205 205 102
Width: 557
Flags: W
HStem: -163.985 21G<208.037 228.268> 726.029 67.971<398.086 482.669>
VStem: 487.926 76.0985<618.169 722.303>
LayerCount: 2
Fore
SplineSet
178 357 m 1
 178 357 164.229025043 355.375334415 144.347749939 355.375334415 c 0
 92.7511074076 355.375334415 -1.89501192516e-14 366.317880795 0 445 c 0
 4 586 280 794 419 794 c 0
 509.9024895 794 564.024243874 747.382556643 564.024243874 647.994405034 c 0
 564.024243874 595.407037054 548.872399263 528.046061295 516 445 c 0
 421 205 242 -163 242 -163 c 1
 242 -163 234.00048074 -163.984556217 222.534980148 -163.984556217 c 0
 193.538265899 -163.984556217 142.372977814 -157.687289991 142.372977814 -113.240676099 c 0
 142.372977814 -104.414594883 144.390572391 -94.0841750842 149 -82 c 0
 209.881969287 76.1113829244 487.925785413 589.278256878 487.925785413 701.186518424 c 0
 487.925785413 712.432182604 485.118030713 719.625838828 479 722 c 0
 473.734249866 724.715152413 467.283826446 726.029005566 459.88043407 726.029005566 c 0
 377.302893044 726.029005566 176.164554692 562.569874532 178 357 c 1
465.815429688 874.043945312 m 1
 509.046875 874.043945312 l 1
 450.8671875 806.291992188 l 1
 410 805.32421875 l 1
 465.815429688 874.043945312 l 1
EndSplineSet
Validated: 33
EndChar

StartChar: Icircumflex
Encoding: 206 206 103
Width: 557
Flags: W
HStem: -163.985 21G<208.037 228.268> 726.029 67.971<398.086 482.669>
VStem: 487.926 76.0985<618.169 722.303>
LayerCount: 2
Fore
SplineSet
178 357 m 1
 178 357 164.229025043 355.375334415 144.347749939 355.375334415 c 0
 92.7511074076 355.375334415 -1.89501192516e-14 366.317880795 0 445 c 0
 4 586 280 794 419 794 c 0
 509.9024895 794 564.024243874 747.382556643 564.024243874 647.994405034 c 0
 564.024243874 595.407037054 548.872399263 528.046061295 516 445 c 0
 421 205 242 -163 242 -163 c 1
 242 -163 234.00048074 -163.984556217 222.534980148 -163.984556217 c 0
 193.538265899 -163.984556217 142.372977814 -157.687289991 142.372977814 -113.240676099 c 0
 142.372977814 -104.414594883 144.390572391 -94.0841750842 149 -82 c 0
 209.881969287 76.1113829244 487.925785413 589.278256878 487.925785413 701.186518424 c 0
 487.925785413 712.432182604 485.118030713 719.625838828 479 722 c 0
 473.734249866 724.715152413 467.283826446 726.029005566 459.88043407 726.029005566 c 0
 377.302893044 726.029005566 176.164554692 562.569874532 178 357 c 1
360 814.6796875 m 1
 388.284179688 838.875976562 414.416992188 862.858398438 442.485351562 886.086914062 c 1
 516.904296875 814.6796875 l 1
 468.618164062 814.463867188 l 1
 441.625 844.252929688 l 1
 408.287109375 814.463867188 l 1
 360 814.6796875 l 1
EndSplineSet
Validated: 33
EndChar

StartChar: Idieresis
Encoding: 207 207 104
Width: 557
Flags: W
HStem: -163.985 21G<208.037 228.268> 726.029 67.971<398.086 482.669> 817.476 67.1055<356.332 418.775 466.225 528.588>
VStem: 354 67.1064<819.807 882.249> 463.908 66.998<819.515 882.541> 487.926 76.0985<618.169 722.303>
LayerCount: 2
Fore
SplineSet
178 357 m 1xf4
 178 357 164.229025043 355.375334415 144.347749939 355.375334415 c 0
 92.7511074076 355.375334415 -1.89501192516e-14 366.317880795 0 445 c 0
 4 586 280 794 419 794 c 0
 509.9024895 794 564.024243874 747.382556643 564.024243874 647.994405034 c 0
 564.024243874 595.407037054 548.872399263 528.046061295 516 445 c 0
 421 205 242 -163 242 -163 c 1
 242 -163 234.00048074 -163.984556217 222.534980148 -163.984556217 c 0
 193.538265899 -163.984556217 142.372977814 -157.687289991 142.372977814 -113.240676099 c 0
 142.372977814 -104.414594883 144.390572391 -94.0841750842 149 -82 c 0
 209.881969287 76.1113829244 487.925785413 589.278256878 487.925785413 701.186518424 c 0
 487.925785413 712.432182604 485.118030713 719.625838828 479 722 c 0
 473.734249866 724.715152413 467.283826446 726.029005566 459.88043407 726.029005566 c 0
 377.302893044 726.029005566 176.164554692 562.569874532 178 357 c 1xf4
497.352539062 884.581054688 m 0
 515.958007812 884.581054688 530.90625 869.525390625 530.90625 851.028320312 c 0
 530.90625 832.53125 515.958007812 817.475585938 497.352539062 817.475585938 c 0
 478.85546875 817.475585938 463.908203125 832.53125 463.908203125 851.028320312 c 0xf8
 463.908203125 869.525390625 478.85546875 884.581054688 497.352539062 884.581054688 c 0
387.552734375 884.581054688 m 0
 406.049804688 884.581054688 421.106445312 869.525390625 421.106445312 851.028320312 c 0
 421.106445312 832.53125 406.049804688 817.475585938 387.552734375 817.475585938 c 0
 369.055664062 817.475585938 354 832.53125 354 851.028320312 c 0
 354 869.525390625 369.055664062 884.581054688 387.552734375 884.581054688 c 0
EndSplineSet
Validated: 33
EndChar

StartChar: Eth
Encoding: 208 208 105
Width: 964
Flags: W
HStem: -175.01 97.1808<34.1692 200.054> 667.088 81.9115<416.244 632.083>
VStem: 773.028 103.976<262.073 520.177>
LayerCount: 2
Fore
SplineSet
498 749 m 0
 695.458340274 749 877.004101773 615.732152758 877.004101773 400.770862475 c 0
 877.004101773 129.082165019 363.211553873 -175.009783804 86.7095742615 -175.009783804 c 0
 85.8038552096 -175.009783804 84.9006550786 -175.006526486 84 -175 c 0
 10 -175 0 -72 0 -72 c 1
 21.7318799978 -75.9512509087 44.1955904837 -77.8289821015 67.1652216231 -77.8289821015 c 0
 137.207678737 -77.8289821015 211.954458634 -60.36882591 285 -31 c 1
 266.723799815 -31 184.604538603 -31 184.604538603 2.82053807994 c 0
 184.604538603 98.3790424291 369.103320956 447.841688298 487 629 c 0
 488.604336838 629.401084209 507.260739237 632.376065107 528.903447734 632.376065107 c 0
 561.221249249 632.376065107 600.197831581 625.742536901 599 594 c 1
 388 280 334 143 289 -29 c 1
 538.420025542 73.3516439475 773.0282983 315.921214247 773.0282983 489.705770028 c 0
 773.0282983 598.348679847 678.697101792 664.988477656 557 667 c 0
 553.750945931 667.05907371 550.525229253 667.088484943 547.32286607 667.088484943 c 0
 333.686763288 667.088484943 223.985231572 536.193998759 223 349 c 0
 220.826672228 348.82137032 218.633844778 348.734034583 216.4244995 348.734034583 c 0
 144.424051225 348.734034583 54.8809135467 441.488580666 51 490 c 0
 50.8825260811 492.980900691 50.8243495598 495.930104229 50.8243495598 498.847898746 c 0
 50.8243495598 694.632559758 312.760637094 749 498 749 c 0
EndSplineSet
Validated: 33
EndChar

StartChar: Ntilde
Encoding: 209 209 106
Width: 913
Flags: W
HStem: -122.75 21G<698.5 735.5> 749.013 39.9867<436.792 512.756> 800.163 34.4081<742.209 812.963> 845.333 32.5836<647.738 704.92>
VStem: 0 192.111<289.351 460.014> 515.461 114.114<667.316 748.849> 552.178 169.218<-93.0669 70.6673> 628 16.6699<812.316 837.063> 815.446 16.1309<843.049 864.474>
LayerCount: 2
Fore
SplineSet
500 789 m 0xfc80
 593.377019371 789 629.575726358 746.632205898 629.575726358 673.105479449 c 0xfc80
 629.575726358 535.604237548 502.980934895 289.133397807 387 7 c 1
 557 308 786 789 913 789 c 1
 913 789 1017 789 1017 733 c 1
 930.484435942 602.410469347 721.395938488 176.047121149 721.395938488 -25.7621932418 c 0
 721.395938488 -71.2122888596 732.001101055 -105.272795559 757 -122 c 1
 757 -122 744.75 -122.75 726.25 -122.75 c 0
 670.75 -122.75 559 -116 553 -62 c 0
 552.445887446 -56.8051948052 552.178426191 -51.2433799966 552.178426191 -45.3462066877 c 0xfa80
 552.178426191 119.037499297 760 544 760 544 c 1
 711 545 434 -27 360 -173 c 0
 354.515616176 -183.968767648 339.631711749 -188.545861286 321.039470613 -188.545861286 c 0
 273.203477221 -188.545861286 200.818966445 -158.246330377 200.818966445 -128.55345145 c 0
 200.818966445 82.2923675668 515.461437466 657.204864978 515.461437466 739.400396893 c 0
 515.461437466 745.806096583 513.726385672 749.146132771 510 749 c 0
 509.437087095 749.00886477 508.871954187 749.013289536 508.304637067 749.013289536 c 0
 394.305407447 749.013289536 192.110559138 570.347118234 192.110559138 336.660351602 c 0
 192.110559138 309.136173827 194.915544217 280.848712762 201 252 c 1
 201 252 177.372244898 247.768163265 146.318623907 247.768163265 c 0
 86.7991836735 247.768163265 0 263.314285714 0 354 c 0
 0 653 265 789 500 789 c 0xfc80
628 812.31640625 m 1xf980
 628.215820312 854.2578125 640.153320312 877.056640625 682.416992188 877.916992188 c 0
 682.826280034 877.925345001 683.233510058 877.92948101 683.63871818 877.92948101 c 0
 724.970519271 877.92948101 745.265866482 834.897252394 782.64453125 834.577148438 c 0
 782.950228124 834.573299673 783.25328632 834.571383535 783.553725447 834.571383535 c 0
 808.409723113 834.571383535 815.339185209 847.686627993 815.446289062 864.581054688 c 1
 831.577148438 864.473632812 l 1
 831.899599705 843.76953374 819.593648042 800.16327446 766.796466142 800.16327446 c 0
 716.190286409 800.16327446 706.2453137 845.008155663 674.78125 845.331054688 c 0
 674.609912972 845.332639283 674.439474479 845.33342958 674.269930519 845.33342958 c 0
 651.347751098 845.33342958 644.776555038 830.887771751 644.669921875 811.885742188 c 1
 628 812.31640625 l 1xf980
EndSplineSet
Validated: 33
EndChar

StartChar: Ograve
Encoding: 210 210 107
Width: 771
Flags: W
HStem: -184.01 51.9957<263.998 343.956> 701.008 87.992<554.031 665.199>
VStem: 171.291 86.9006<-115.644 16.1783> 670.971 72.1797<517.109 699.27>
LayerCount: 2
Fore
SplineSet
466 524 m 1
 466 524 576 509 574 440 c 1
 453.209908698 368.005905846 258.191996063 47.0926522249 258.191996063 -79.9687344734 c 0
 258.191996063 -111.747110081 270.390616267 -131.399803138 299 -132 c 0
 299.358671355 -132.009501228 299.718296222 -132.014240538 300.078866319 -132.014240538 c 0
 426.982103051 -132.014240538 670.970918489 455.043840275 670.970918489 643.508702677 c 0
 670.970918489 679.544777897 662.050523099 701.008016647 641.685565983 701.008016647 c 0
 641.458468327 701.008016647 641.2299475 701.005347616 641 701 c 0
 470 697 185 440 189 223 c 1
 180.213017751 222.520710059 171.82591646 222.293827247 163.821025444 222.293827247 c 0
 21.5118518259 222.293827247 0 294 0 294 c 1
 0 473 328 789 605 789 c 0
 704.45019134 789 743.15066108 719.459436333 743.15066108 617.560149658 c 0
 743.15066108 338.2984337 452.482975018 -184 325 -184 c 0
 324.247281054 -184.006622161 323.497724397 -184.00992611 322.751321609 -184.00992611 c 0
 212.80613683 -184.00992611 171.291405875 -112.323106693 171.291405875 -14.530883597 c 0
 171.291405875 187.774944203 348.959881838 501.802736211 466 524 c 1
605.232421875 874.581054688 m 1
 661.045898438 805.862304688 l 1
 620.180664062 806.830078125 l 1
 562 874.581054688 l 1
 605.232421875 874.581054688 l 1
EndSplineSet
Validated: 33
EndChar

StartChar: Oacute
Encoding: 211 211 108
Width: 771
Flags: W
HStem: -184.01 51.9957<263.998 343.956> 701.008 87.992<554.031 665.199>
VStem: 171.291 86.9006<-115.644 16.1783> 670.971 72.1797<517.109 699.27>
LayerCount: 2
Fore
SplineSet
466 524 m 1
 466 524 576 509 574 440 c 1
 453.209908698 368.005905846 258.191996063 47.0926522249 258.191996063 -79.9687344734 c 0
 258.191996063 -111.747110081 270.390616267 -131.399803138 299 -132 c 0
 299.358671355 -132.009501228 299.718296222 -132.014240538 300.078866319 -132.014240538 c 0
 426.982103051 -132.014240538 670.970918489 455.043840275 670.970918489 643.508702677 c 0
 670.970918489 679.544777897 662.050523099 701.008016647 641.685565983 701.008016647 c 0
 641.458468327 701.008016647 641.2299475 701.005347616 641 701 c 0
 470 697 185 440 189 223 c 1
 180.213017751 222.520710059 171.82591646 222.293827247 163.821025444 222.293827247 c 0
 21.5118518259 222.293827247 0 294 0 294 c 1
 0 473 328 789 605 789 c 0
 704.45019134 789 743.15066108 719.459436333 743.15066108 617.560149658 c 0
 743.15066108 338.2984337 452.482975018 -184 325 -184 c 0
 324.247281054 -184.006622161 323.497724397 -184.00992611 322.751321609 -184.00992611 c 0
 212.80613683 -184.00992611 171.291405875 -112.323106693 171.291405875 -14.530883597 c 0
 171.291405875 187.774944203 348.959881838 501.802736211 466 524 c 1
625.815429688 864.043945312 m 1
 669.046875 864.043945312 l 1
 610.8671875 796.291992188 l 1
 570 795.32421875 l 1
 625.815429688 864.043945312 l 1
EndSplineSet
Validated: 33
EndChar

StartChar: Ocircumflex
Encoding: 212 212 109
Width: 771
Flags: W
HStem: -184.01 51.9957<263.998 343.956> 701.008 87.992<554.031 665.199>
VStem: 171.291 86.9006<-115.644 16.1783> 670.971 72.1797<517.109 699.27>
LayerCount: 2
Fore
SplineSet
466 524 m 1
 466 524 576 509 574 440 c 1
 453.209908698 368.005905846 258.191996063 47.0926522249 258.191996063 -79.9687344734 c 0
 258.191996063 -111.747110081 270.390616267 -131.399803138 299 -132 c 0
 299.358671355 -132.009501228 299.718296222 -132.014240538 300.078866319 -132.014240538 c 0
 426.982103051 -132.014240538 670.970918489 455.043840275 670.970918489 643.508702677 c 0
 670.970918489 679.544777897 662.050523099 701.008016647 641.685565983 701.008016647 c 0
 641.458468327 701.008016647 641.2299475 701.005347616 641 701 c 0
 470 697 185 440 189 223 c 1
 180.213017751 222.520710059 171.82591646 222.293827247 163.821025444 222.293827247 c 0
 21.5118518259 222.293827247 0 294 0 294 c 1
 0 473 328 789 605 789 c 0
 704.45019134 789 743.15066108 719.459436333 743.15066108 617.560149658 c 0
 743.15066108 338.2984337 452.482975018 -184 325 -184 c 0
 324.247281054 -184.006622161 323.497724397 -184.00992611 322.751321609 -184.00992611 c 0
 212.80613683 -184.00992611 171.291405875 -112.323106693 171.291405875 -14.530883597 c 0
 171.291405875 187.774944203 348.959881838 501.802736211 466 524 c 1
510 804.6796875 m 1
 538.284179688 828.875976562 564.416992188 852.858398438 592.485351562 876.086914062 c 1
 666.904296875 804.6796875 l 1
 618.618164062 804.463867188 l 1
 591.625 834.252929688 l 1
 558.287109375 804.463867188 l 1
 510 804.6796875 l 1
EndSplineSet
Validated: 33
EndChar

StartChar: Otilde
Encoding: 213 213 110
Width: 771
Flags: W
HStem: -184.01 51.9957<263.998 343.956> 701.008 87.992<554.031 665.199> 800.163 34.4081<622.209 692.963> 845.333 32.5836<527.738 584.92>
VStem: 171.291 86.9006<-115.644 16.1783> 508 16.6699<812.316 837.063> 670.971 72.1797<517.109 699.27> 695.446 16.1309<843.049 864.474>
LayerCount: 2
Fore
SplineSet
466 524 m 1xfe
 466 524 576 509 574 440 c 1
 453.209908698 368.005905846 258.191996063 47.0926522249 258.191996063 -79.9687344734 c 0
 258.191996063 -111.747110081 270.390616267 -131.399803138 299 -132 c 0
 299.358671355 -132.009501228 299.718296222 -132.014240538 300.078866319 -132.014240538 c 0
 426.982103051 -132.014240538 670.970918489 455.043840275 670.970918489 643.508702677 c 0
 670.970918489 679.544777897 662.050523099 701.008016647 641.685565983 701.008016647 c 0
 641.458468327 701.008016647 641.2299475 701.005347616 641 701 c 0
 470 697 185 440 189 223 c 1
 180.213017751 222.520710059 171.82591646 222.293827247 163.821025444 222.293827247 c 0
 21.5118518259 222.293827247 0 294 0 294 c 1
 0 473 328 789 605 789 c 0
 704.45019134 789 743.15066108 719.459436333 743.15066108 617.560149658 c 0
 743.15066108 338.2984337 452.482975018 -184 325 -184 c 0
 324.247281054 -184.006622161 323.497724397 -184.00992611 322.751321609 -184.00992611 c 0
 212.80613683 -184.00992611 171.291405875 -112.323106693 171.291405875 -14.530883597 c 0
 171.291405875 187.774944203 348.959881838 501.802736211 466 524 c 1xfe
508 812.31640625 m 1
 508.215820312 854.2578125 520.153320312 877.056640625 562.416992188 877.916992188 c 0
 562.826280034 877.925345001 563.233510058 877.92948101 563.63871818 877.92948101 c 0
 604.970519271 877.92948101 625.265866482 834.897252394 662.64453125 834.577148438 c 0
 662.950228124 834.573299673 663.25328632 834.571383535 663.553725447 834.571383535 c 0
 688.409723113 834.571383535 695.339185209 847.686627993 695.446289062 864.581054688 c 1
 711.577148438 864.473632812 l 1xfd
 711.899599705 843.76953374 699.593648042 800.16327446 646.796466142 800.16327446 c 0
 596.190286409 800.16327446 586.2453137 845.008155663 554.78125 845.331054688 c 0
 554.609912972 845.332639283 554.439474479 845.33342958 554.269930519 845.33342958 c 0
 531.347751098 845.33342958 524.776555038 830.887771751 524.669921875 811.885742188 c 1
 508 812.31640625 l 1
EndSplineSet
Validated: 33
EndChar

StartChar: Odieresis
Encoding: 214 214 111
Width: 771
Flags: W
HStem: -184.01 51.9957<263.998 343.956> 701.008 87.992<554.031 665.199> 807.476 67.1055<516.332 578.775 626.225 688.588>
VStem: 171.291 86.9006<-115.644 16.1783> 514 67.1064<809.807 872.249> 623.908 66.998<809.515 872.541> 670.971 72.1797<517.109 699.27>
LayerCount: 2
Fore
SplineSet
466 524 m 1xfa
 466 524 576 509 574 440 c 1
 453.209908698 368.005905846 258.191996063 47.0926522249 258.191996063 -79.9687344734 c 0
 258.191996063 -111.747110081 270.390616267 -131.399803138 299 -132 c 0
 299.358671355 -132.009501228 299.718296222 -132.014240538 300.078866319 -132.014240538 c 0
 426.982103051 -132.014240538 670.970918489 455.043840275 670.970918489 643.508702677 c 0
 670.970918489 679.544777897 662.050523099 701.008016647 641.685565983 701.008016647 c 0
 641.458468327 701.008016647 641.2299475 701.005347616 641 701 c 0
 470 697 185 440 189 223 c 1
 180.213017751 222.520710059 171.82591646 222.293827247 163.821025444 222.293827247 c 0
 21.5118518259 222.293827247 0 294 0 294 c 1
 0 473 328 789 605 789 c 0
 704.45019134 789 743.15066108 719.459436333 743.15066108 617.560149658 c 0
 743.15066108 338.2984337 452.482975018 -184 325 -184 c 0
 324.247281054 -184.006622161 323.497724397 -184.00992611 322.751321609 -184.00992611 c 0
 212.80613683 -184.00992611 171.291405875 -112.323106693 171.291405875 -14.530883597 c 0
 171.291405875 187.774944203 348.959881838 501.802736211 466 524 c 1xfa
657.352539062 874.581054688 m 0
 675.958007812 874.581054688 690.90625 859.525390625 690.90625 841.028320312 c 0
 690.90625 822.53125 675.958007812 807.475585938 657.352539062 807.475585938 c 0
 638.85546875 807.475585938 623.908203125 822.53125 623.908203125 841.028320312 c 0xfc
 623.908203125 859.525390625 638.85546875 874.581054688 657.352539062 874.581054688 c 0
547.552734375 874.581054688 m 0
 566.049804688 874.581054688 581.106445312 859.525390625 581.106445312 841.028320312 c 0
 581.106445312 822.53125 566.049804688 807.475585938 547.552734375 807.475585938 c 0
 529.055664062 807.475585938 514 822.53125 514 841.028320312 c 0
 514 859.525390625 529.055664062 874.581054688 547.552734375 874.581054688 c 0
EndSplineSet
Validated: 33
EndChar

StartChar: multiply
Encoding: 215 215 112
Width: 433
Flags: W
HStem: 166.269 254.116
VStem: 28.2545 313.269
LayerCount: 2
Fore
SplineSet
305.76171875 420.384765625 m 0
 321.011898842 407.749044327 341.523959131 377.534895037 341.523959131 356.712267386 c 0
 341.523959131 348.936121739 338.663294209 342.469741963 331.599609375 338.717773438 c 2
 331.599609375 338.717773438 293.864257812 316.999023438 256.234375 294.153320312 c 1
 276.158203125 275.567382812 293.212890625 257.280273438 304.424804688 240.717773438 c 0
 311.470927172 229.904827785 314.260544616 220.367377676 314.260544616 212.04298624 c 0
 314.260544616 180.381572449 273.905273438 166.268554688 273.905273438 166.268554688 c 1
 238.96875 205.60546875 210.614257812 235.33203125 186.377929688 257.491210938 c 1
 135.143554688 228.2578125 88.625 197.192382812 63.4560546875 186.877929688 c 1
 52.8181881145 194.109029167 28.254480235 223.138577595 28.254480235 247.135362961 c 0
 28.254480235 254.622699054 30.6458263911 261.620081486 36.59765625 267.3125 c 0
 43.849609375 274.810546875 73.400390625 292.920898438 109.499023438 313.918945312 c 1
 89.6982421875 325.129882812 71.95703125 332.55859375 52.26171875 342.642578125 c 0
 45.3938573166 349.684460609 42.8532376372 358.554732762 42.8532376372 367.825558269 c 0
 42.8532376372 394.192233193 63.4033203125 423.798828125 63.4033203125 423.798828125 c 1
 83.3974609375 416.583007812 133.875976562 387.224609375 183.861328125 351.002929688 c 1
 243.280273438 383.845703125 303.9140625 421.915039062 303.9140625 421.915039062 c 2
 304.530273438 421.405273438 305.146484375 420.89453125 305.76171875 420.384765625 c 0
EndSplineSet
Validated: 1
EndChar

StartChar: Oslash
Encoding: 216 216 113
Width: 771
Flags: W
HStem: -184.01 51.9957<275.759 343.956> 222.294 566.706<163.821 605>
VStem: 200.945 20.0551<-235.528 -221.761> 663 33.0017<802.629 832.013> 670.971 72.1788<517.295 699.849>
LayerCount: 2
Fore
SplineSet
663 837 m 2xf0
 663 837 696.001740999 834.275909298 696.001740999 826.102961884 c 0xf0
 696.001740999 822.106113416 688.862934939 803.021717419 676.33565618 772.609088781 c 1
 723.531068299 746.325311801 743.14960335 690.260472485 743.14960335 617.802886986 c 0xe8
 743.14960335 338.900915853 452.478388254 -182.878489253 325 -184 c 0
 324.247281054 -184.006622161 323.497724397 -184.00992611 322.751321609 -184.00992611 c 0
 295.701134684 -184.00992611 272.793209468 -179.670548675 253.626690118 -171.670637802 c 1
 233.175047411 -216.432107299 221.000016193 -242.999520465 221 -243 c 2
 221 -243 200.944911641 -239.388529611 200.944911641 -216.926207822 c 0
 200.944911641 -208.958008356 208.392515462 -186.025429836 221.396651531 -152.056614076 c 1
 186.084711059 -121.980915981 171.291405875 -72.9070825703 171.291405875 -14.530883597 c 0
 171.291405875 187.774944203 348.959881838 501.802736211 466 524 c 1
 466 524 488.382299408 520.947868263 512.77080128 511.26402019 c 1
 544.12749436 579.839750622 573.212162721 643.046657774 597.274045431 695.170849281 c 1
 425.592431165 655.498728963 185.325022254 422.367538439 189 223 c 1
 180.213017751 222.520710059 171.82591646 222.293827247 163.821025444 222.293827247 c 0
 21.5118518259 222.293827247 0 294 0 294 c 1
 0 473 328 789 605 789 c 0
 617.333326458 789 628.732330129 787.932166255 639.239066757 785.867249121 c 1
 654.281246797 818.297222384 662.999999996 837.000000002 663 837 c 2xf0
259.918864818 -57.030953665 m 1
 291.325517867 17.7464889133 332.521106955 111.654884096 376.572357998 210.292406434 c 1
 317.020537576 114.099454258 269.398542603 10.6606897683 259.918864818 -57.030953665 c 1
552.182183675 488.010417488 m 1
 565.411611841 476.047530261 574.590695059 460.378979537 574 440 c 1
 552.530933155 427.203867444 528.717311225 406.560044465 504.070771583 380.547876281 c 1
 421.325810354 196.312550082 330.913213046 -2.34546402241 275.06965568 -124.711462045 c 1
 281.206707814 -129.214210775 289.125747082 -131.738430389 299 -132 c 0
 299.358663895 -132.00950103 299.71828126 -132.014240242 300.078843813 -132.014240242 c 0
 426.982110985 -132.014240242 670.970779108 455.056490592 670.970779108 643.51484967 c 0xe8
 670.970779108 676.983518538 663.275653291 697.880405378 645.863009354 700.684654252 c 1
 620.839225318 642.679716128 588.224623909 568.80792928 552.182183675 488.010417488 c 1
EndSplineSet
Validated: 33
EndChar

StartChar: Ugrave
Encoding: 217 217 114
Width: 829
Flags: W
HStem: 741.012 47.9881<341.523 422.753>
VStem: 0.392615 159.876<311.87 508.039> 163 125.505<-91.2809 -38.0871> 424.401 87.9012<571.249 728.808> 496.743 124.783<-76.2207 70.6329>
LayerCount: 2
Fore
SplineSet
371 789 m 0xf0
 475.251832487 789 512.302448583 723.873352582 512.302448583 629.034408327 c 0xf0
 512.302448583 395.948414687 288.505393835 -16.608940632 288.505393835 -82.9017002566 c 0
 288.505393835 -88.7926667918 290.251050786 -92.0045015123 294.209290468 -92.0045015123 c 0
 341.086206751 -92.0045015123 702.135101893 571.327246808 792 789 c 1
 792 789 912 780 910 729 c 1
 716.672999543 284.471037165 621.526556496 85.9620811223 621.526556496 -13.5647180216 c 0
 621.526556496 -75.6884635883 658.596997093 -99.24731855 732 -120 c 1
 718.14800523 -166.332534231 671.898101073 -190.534102191 624.091354796 -190.534102191 c 0
 571.811747806 -190.534102191 517.670350238 -161.592020919 502 -101 c 0
 498.403930849 -86.8272568746 496.743144057 -71.2114419318 496.743144057 -54.3749912356 c 0xe8
 496.743144057 87.9732955133 615.461339179 317.576414907 687 500 c 1
 419.317252002 9.41414586206 329.875955112 -193.014695651 289.591162023 -193.014695651 c 0
 289.392922784 -193.014695651 289.195873904 -193.009793695 289 -193 c 0
 245 -191 162 -120 163 -76 c 1
 343.55834092 332.632034714 424.401211664 606.428685227 424.401211664 702.678279138 c 0
 424.401211664 727.967835952 418.820027509 741 408 741 c 0
 407.490975046 741.007953515 406.980574222 741.011921751 406.468825451 741.011921751 c 0
 308.213866772 741.011921751 160.269017015 594.729277176 160.269017015 422.792399661 c 0
 160.269017015 370.438334863 173.98612611 315.705668088 207 262 c 1
 207 262 195.512561545 261.327862644 178.020512959 261.327862644 c 0
 124.749274082 261.327862644 15.7865168539 267.561797753 6 318 c 0
 2.21859852104 338.070515542 0.392615455085 358.676890938 0.392615455085 379.526529382 c 0
 0.392615455085 573.712481268 158.785367886 789 371 789 c 0xf0
595.232421875 874.581054688 m 1
 651.045898438 805.862304688 l 1
 610.180664062 806.830078125 l 1
 552 874.581054688 l 1
 595.232421875 874.581054688 l 1
EndSplineSet
Validated: 33
EndChar

StartChar: Uacute
Encoding: 218 218 115
Width: 829
Flags: W
HStem: 741.012 47.9881<341.523 422.753>
VStem: 0.392615 159.876<311.87 508.039> 163 125.505<-91.2809 -38.0871> 424.401 87.9012<571.249 728.808> 496.743 124.783<-76.2207 70.6329>
LayerCount: 2
Fore
SplineSet
371 789 m 0xf0
 475.251832487 789 512.302448583 723.873352582 512.302448583 629.034408327 c 0xf0
 512.302448583 395.948414687 288.505393835 -16.608940632 288.505393835 -82.9017002566 c 0
 288.505393835 -88.7926667918 290.251050786 -92.0045015123 294.209290468 -92.0045015123 c 0
 341.086206751 -92.0045015123 702.135101893 571.327246808 792 789 c 1
 792 789 912 780 910 729 c 1
 716.672999543 284.471037165 621.526556496 85.9620811223 621.526556496 -13.5647180216 c 0
 621.526556496 -75.6884635883 658.596997093 -99.24731855 732 -120 c 1
 718.14800523 -166.332534231 671.898101073 -190.534102191 624.091354796 -190.534102191 c 0
 571.811747806 -190.534102191 517.670350238 -161.592020919 502 -101 c 0
 498.403930849 -86.8272568746 496.743144057 -71.2114419318 496.743144057 -54.3749912356 c 0xe8
 496.743144057 87.9732955133 615.461339179 317.576414907 687 500 c 1
 419.317252002 9.41414586206 329.875955112 -193.014695651 289.591162023 -193.014695651 c 0
 289.392922784 -193.014695651 289.195873904 -193.009793695 289 -193 c 0
 245 -191 162 -120 163 -76 c 1
 343.55834092 332.632034714 424.401211664 606.428685227 424.401211664 702.678279138 c 0
 424.401211664 727.967835952 418.820027509 741 408 741 c 0
 407.490975046 741.007953515 406.980574222 741.011921751 406.468825451 741.011921751 c 0
 308.213866772 741.011921751 160.269017015 594.729277176 160.269017015 422.792399661 c 0
 160.269017015 370.438334863 173.98612611 315.705668088 207 262 c 1
 207 262 195.512561545 261.327862644 178.020512959 261.327862644 c 0
 124.749274082 261.327862644 15.7865168539 267.561797753 6 318 c 0
 2.21859852104 338.070515542 0.392615455085 358.676890938 0.392615455085 379.526529382 c 0
 0.392615455085 573.712481268 158.785367886 789 371 789 c 0xf0
655.815429688 864.043945312 m 1
 699.046875 864.043945312 l 1
 640.8671875 796.291992188 l 1
 600 795.32421875 l 1
 655.815429688 864.043945312 l 1
EndSplineSet
Validated: 33
EndChar

